<svg width="132" height="60" viewBox="0 0 132 60" fill="none" xmlns="http://www.w3.org/2000/svg">
<path d="M22.8477 58.3217V56.8113C23.0144 56.8952 23.1812 56.8952 23.4314 56.8952C23.8483 56.8952 24.0985 56.6434 24.2652 56.056C24.432 55.4686 24.5154 54.3777 24.5154 52.7832V50.4336H30.1023V58.4057H28.5179V51.9441H26.0997L26.0163 53.5385C25.933 55.3847 25.7662 56.7273 25.3492 57.3987C25.0157 58.07 24.3486 58.4896 23.4314 58.4896C23.2646 58.4057 23.0144 58.4057 22.8477 58.3217Z" fill="white"/>
<path d="M36.1895 54.3776C36.1895 53.2027 36.6064 52.1957 37.3569 51.4405C38.1073 50.6013 39.108 50.2656 40.2754 50.2656C41.4428 50.2656 42.4434 50.6852 43.1939 51.4405C43.9444 52.2796 44.3613 53.2027 44.3613 54.3776C44.3613 55.5524 43.9444 56.4755 43.1939 57.3146C42.4434 58.1538 41.4428 58.4895 40.2754 58.4895C39.108 58.4895 38.1073 58.0699 37.3569 57.3146C36.6064 56.5594 36.1895 55.5524 36.1895 54.3776ZM38.5243 56.3076C39.0246 56.8111 39.6083 57.0629 40.2754 57.0629C40.9425 57.0629 41.5262 56.8111 42.0265 56.3076C42.5268 55.8041 42.6936 55.2167 42.6936 54.4614C42.6936 53.7062 42.4434 53.1188 42.0265 52.6153C41.5262 52.1118 40.9425 51.8601 40.2754 51.8601C39.6083 51.8601 39.0246 52.1118 38.5243 52.6153C38.024 53.1188 37.8572 53.7062 37.8572 54.4614C37.8572 55.1328 38.1074 55.8041 38.5243 56.3076Z" fill="white"/>
<path d="M52.033 58.4057H50.3652V50.4336H51.9496L54.201 53.7063L56.4524 50.4336H58.0368V58.4057H56.4524V52.9511L54.6179 55.4686H53.7007L51.8662 52.9511V58.4057H52.033Z" fill="white"/>
<path d="M67.8759 58.4057H64.457V50.4336H70.2107V51.8602H66.1248V53.1189H67.8759C68.7931 53.1189 69.5436 53.3707 70.0439 53.8742C70.6276 54.3777 70.8778 54.9651 70.8778 55.7203C70.8778 56.4756 70.6276 57.1469 70.0439 57.5665C69.5436 58.1539 68.7931 58.4057 67.8759 58.4057ZM66.0414 54.5455V56.9791H67.7091C68.2094 56.9791 68.543 56.8952 68.7931 56.6434C69.0433 56.3917 69.2101 56.1399 69.2101 55.7203C69.2101 55.3007 69.0433 55.049 68.7931 54.7973C68.543 54.5455 68.2094 54.4616 67.7091 54.4616H66.0414V54.5455Z" fill="white"/>
<path d="M77.7156 58.4057H76.0479L79.4667 50.4336H81.051L84.4698 58.4057H82.7188L81.9683 56.5595H78.6328L77.7156 58.4057ZM80.2172 52.4476L79.0497 55.2168H81.3846L80.2172 52.4476Z" fill="white"/>
<path d="M91.5584 58.4057H89.8906V50.4336H93.3095C94.1433 50.4336 94.8104 50.6853 95.3107 51.1049C95.8111 51.5245 96.0612 52.1119 96.0612 52.8672C96.0612 53.6224 95.8111 54.1259 95.3107 54.6294C94.8104 55.049 94.1433 55.3007 93.3095 55.3007H91.475V58.4057H91.5584ZM91.5584 51.8602V53.8742H93.3095C93.7264 53.8742 93.9766 53.7902 94.2267 53.6224C94.4769 53.4546 94.5603 53.2028 94.5603 52.8672C94.5603 52.5315 94.4769 52.2798 94.2267 52.1119C93.9766 51.9441 93.7264 51.8602 93.3095 51.8602H91.5584Z" fill="white"/>
<path d="M102.148 60.0001H100.647V56.8952H101.398C101.731 56.3078 101.982 55.6364 102.148 54.8812C102.315 54.1259 102.399 53.035 102.399 51.6923V50.4336H107.985V56.8952H109.069V60.0001H107.569V58.4057H102.148V60.0001ZM103.232 56.8952H106.401V51.8602H104.066C104.066 52.9511 103.983 53.8742 103.9 54.7133C103.733 55.5525 103.566 56.2238 103.232 56.8952Z" fill="white"/>
<path d="M23.5981 17.8742C23.348 18.8812 22.8477 19.7203 22.0972 20.2238C21.3467 20.7273 20.4295 20.9791 19.3454 20.9791C17.9279 20.9791 16.7605 20.4756 15.8432 19.3846C14.926 18.3776 14.509 17.1189 14.509 15.6084C14.509 14.014 14.926 12.6713 15.8432 11.6643C16.7605 10.6573 17.9279 10.1538 19.3454 10.1538C21.5135 10.1538 22.9311 11.0769 23.5981 12.9231H28.5179C28.2678 11.4126 27.7675 10.0699 26.9336 8.979H11.5905C11.0902 9.56642 10.6733 10.3217 10.3397 11.1608C9.75602 12.5035 9.50586 13.9301 9.50586 15.5245C9.50586 17.1189 9.75602 18.5455 10.3397 19.8042C10.9234 21.063 11.6739 22.1539 12.5912 22.9091C13.5084 23.7483 14.5924 24.3357 15.7598 24.7553C16.9272 25.1749 18.178 25.4266 19.4288 25.4266C20.9298 25.4266 22.264 25.1749 23.5148 24.6714C24.7655 24.1679 25.8496 23.3287 26.8502 22.07C27.8508 20.8952 28.4345 19.3846 28.6847 17.6224H23.5981V17.8742Z" fill="white"/>
<path d="M23.2651 28.9515C22.0143 28.448 20.6801 28.1963 19.2626 28.1963C18.0118 28.1963 16.761 28.448 15.5936 28.7837C14.4262 29.2033 13.3421 29.7907 12.4249 30.6299C12.1747 30.7977 12.008 31.0495 11.7578 31.2173H26.5172C25.5999 30.2103 24.5159 29.455 23.2651 28.9515Z" fill="white"/>
<path d="M123.412 0H67.2927H8.58879C3.83577 0 0 3.94407 0 8.81123V31.8043C0 36.6715 3.83577 40.6156 8.58879 40.6156H123.412C128.165 40.6156 132 36.6715 132 31.8043V8.81123C132 3.86016 128.165 0 123.412 0ZM79.4671 3.86016V7.63641H84.5537V3.86016H96.8115V36.5037H66.5422V3.86016H67.2927H79.4671ZM65.3748 36.5876H35.1056V3.94409H65.3748V36.5876ZM3.83577 31.7204V8.72731C3.83577 6.04198 6.00382 3.86016 8.58879 3.86016H34.0216V36.5037H8.58879C5.92043 36.5876 3.83577 34.4058 3.83577 31.7204ZM128.165 31.7204C128.165 34.4058 125.997 36.5876 123.412 36.5876H97.8955V3.94409H123.412C126.08 3.94409 128.165 6.1259 128.165 8.81123V31.7204Z" fill="white"/>
<path d="M57.5362 29.455V25.1753H47.8634V21.5669H55.3681V17.455H47.8634V14.8535H57.286V10.6577H43.1104V29.455H57.5362Z" fill="white"/>
<path d="M85.2211 18.7137V29.455H89.9741V10.6577H85.8048L78.1333 21.2312V10.6577H73.2969V29.455H77.3828L85.2211 18.7137Z" fill="white"/>
<path d="M115.49 11.4967V9.81836H110.653V11.4967C107.902 11.5806 105.734 12.5037 104.149 14.182C102.565 15.7764 101.814 17.7065 101.814 19.8883C101.814 22.0702 102.565 23.9163 104.149 25.5946C105.734 27.1891 107.902 28.1122 110.653 28.1961V30.294H115.49V28.1961C118.242 28.1122 120.41 27.1891 121.994 25.5946C123.578 24.0002 124.329 22.0702 124.329 19.8883C124.329 17.7065 123.578 15.7764 121.994 14.182C120.41 12.5037 118.242 11.6645 115.49 11.4967ZM110.653 23.8324C109.486 23.7485 108.485 23.4128 107.818 22.6576C107.068 21.9862 106.734 20.9792 106.734 19.8044C106.734 18.5457 107.068 17.6226 107.818 16.8673C108.569 16.1121 109.486 15.7764 110.653 15.7764V23.8324ZM118.325 22.7415C117.658 23.4128 116.657 23.8324 115.49 23.9163V15.8603C116.657 15.8603 117.658 16.2799 118.325 16.9513C119.075 17.7065 119.409 18.6296 119.409 19.8883C119.409 21.0632 118.992 21.9862 118.325 22.7415Z" fill="white"/>
</svg>
