<svg width="191" height="60" viewBox="0 0 191 60" fill="none" xmlns="http://www.w3.org/2000/svg">
<g clip-path="url(#clip0_3823_9445)">
<path d="M46.201 13.1504H63.4359V16.4177H50.1997V20.7278H57.745C60.3992 20.7278 62.7057 21.4925 64.282 22.9987C65.5569 24.2731 66.3567 26.0806 66.3567 28.421C66.3567 30.7614 65.4758 32.65 64.0038 33.994C62.4275 35.4191 60.1906 36.2301 57.6523 36.2301H46.1895V13.1504H46.201ZM61.2106 25.2696C60.4456 24.4238 59.2518 23.9603 57.7103 23.9603H50.2113V32.9628H57.5248C59.1011 32.9628 60.376 32.4994 61.2221 31.6188C61.9523 30.8541 62.3812 29.7766 62.3812 28.421C62.3812 27.0654 61.9639 26.0343 61.2221 25.2696H61.2106Z" fill="white"/>
<path d="M87.069 19.1522C88.8423 20.8438 89.8739 23.3811 89.8739 26.7643V28.3053H73.404C73.5546 29.7651 74.1342 30.9238 75.015 31.7348C76.2436 32.8934 78.3646 33.4264 80.5204 33.4264C82.6763 33.4264 84.8321 33.1599 86.9067 32.43L87.7876 35.1643C85.5159 36.2071 83.2094 36.5894 80.4741 36.5894C77.1245 36.5894 74.0878 35.6625 72.3145 34.052C70.3905 32.2793 69.2314 29.742 69.2314 26.6253C69.2314 23.5086 70.3093 21.0871 72.0827 19.3491C73.8908 17.6228 76.4291 16.6611 79.5816 16.6611C82.7342 16.6611 85.3188 17.5069 87.0458 19.1638L87.069 19.1522ZM74.9455 21.5389C74.0994 22.4195 73.5199 23.6129 73.3344 25.1886H85.9215C85.7245 23.4622 85.1566 22.153 84.2294 21.2609C83.1515 20.2644 81.6099 19.801 79.6164 19.801C77.6229 19.801 76.0813 20.3803 74.9571 21.5273L74.9455 21.5389Z" fill="white"/>
<path d="M96.6075 16.997L97.2566 18.9551C99.1806 17.2982 101.452 16.6494 104.454 16.6494C107.456 16.6494 109.844 17.4952 111.536 19.1868C113.263 20.8784 114.341 23.3462 114.341 26.6136C114.341 29.6955 113.298 32.1518 111.605 33.8433C109.832 35.616 107.294 36.5777 104.141 36.5777C101.522 36.5777 99.3661 35.813 97.6391 34.5733V42H93.71V16.997H96.596H96.6075ZM97.6507 21.8053V31.1901C99.2617 32.5341 101.232 33.3451 103.852 33.3451C105.81 33.3451 107.282 32.8122 108.395 31.8042C109.67 30.6456 110.4 28.8844 110.4 26.6136C110.4 24.3427 109.821 22.6858 108.673 21.4924C107.63 20.4497 106.1 19.8356 104.095 19.8356C101.406 19.8356 99.7138 20.4149 97.6739 21.7937L97.6507 21.8053Z" fill="white"/>
<path d="M135.435 19.1522C137.209 20.8438 138.24 23.3811 138.24 26.7643V28.3053H121.77C121.921 29.7651 122.5 30.9238 123.381 31.7348C124.61 32.8934 126.731 33.4264 128.887 33.4264C131.042 33.4264 133.198 33.1599 135.273 32.43L136.154 35.1643C133.882 36.2071 131.576 36.5894 128.84 36.5894C125.491 36.5894 122.454 35.6625 120.681 34.052C118.757 32.2793 117.598 29.742 117.598 26.6253C117.598 23.5086 118.676 21.0871 120.449 19.3491C122.257 17.6228 124.795 16.6611 127.948 16.6611C131.1 16.6611 133.685 17.5069 135.412 19.1638L135.435 19.1522ZM123.312 21.5389C122.466 22.4195 121.886 23.6129 121.701 25.1886H134.288C134.091 23.4622 133.523 22.153 132.596 21.2609C131.518 20.2644 129.976 19.801 127.983 19.801C125.989 19.801 124.448 20.3803 123.323 21.5273L123.312 21.5389Z" fill="white"/>
<path d="M146.017 16.9968V24.3077H151.059L153.516 20.0787C154.246 18.8506 155.127 17.9585 156.251 17.4603C157.097 17.0316 158.059 16.8462 159.102 16.8462C159.798 16.8462 160.447 16.9273 161.223 17.1127L160.91 19.9976H160.215C159.334 19.9976 158.72 20.1483 158.14 20.4147C157.642 20.6465 157.26 21.0636 156.865 21.6429L154.478 25.4895L161.478 36.2183H157.016L151.476 27.4476H146.005V36.2183H142.076V16.9968H146.005H146.017Z" fill="white"/>
<path d="M180.695 19.1522C182.468 20.8438 183.5 23.3811 183.5 26.7643V28.3053H167.03C167.181 29.7651 167.76 30.9238 168.641 31.7348C169.87 32.8934 171.991 33.4264 174.146 33.4264C176.302 33.4264 178.458 33.1599 180.533 32.43L181.414 35.1643C179.142 36.2071 176.835 36.5894 174.1 36.5894C170.75 36.5894 167.714 35.6625 165.94 34.052C164.016 32.2793 162.857 29.742 162.857 26.6253C162.857 23.5086 163.935 21.0871 165.709 19.3491C167.517 17.6228 170.055 16.6611 173.208 16.6611C176.36 16.6611 178.945 17.5069 180.672 19.1638L180.695 19.1522ZM168.571 21.5389C167.725 22.4195 167.146 23.6129 166.96 25.1886H179.548C179.35 23.4622 178.783 22.153 177.855 21.2609C176.777 20.2644 175.236 19.801 173.242 19.801C171.249 19.801 169.707 20.3803 168.583 21.5273L168.571 21.5389Z" fill="white"/>
<path d="M41.3444 0V4.87779C41.3444 12.9881 35.7694 19.8935 28.1893 21.84C27.9459 21.9095 27.7025 21.9674 27.4592 22.0138C27.4012 22.0138 27.3432 22.037 27.2853 22.0486C27.0651 22.0949 26.8449 22.1297 26.6131 22.1644C26.3581 22.2108 26.1031 22.2339 25.8481 22.2687C25.6395 22.2919 25.4308 22.315 25.2106 22.3266C25.1643 22.3266 25.1063 22.3498 25.0484 22.3498C25.0484 21.0753 25.0715 19.5807 25.0715 18.3641C25.199 18.3641 25.3497 18.341 25.4772 18.3294C25.6047 18.3294 25.7438 18.3062 25.8713 18.2715C26.161 18.2367 26.4508 18.1788 26.7405 18.1092C26.9028 18.0861 27.0535 18.0397 27.2042 17.9934C27.3317 17.9702 27.4476 17.9239 27.5751 17.8891C27.7837 17.8312 27.9807 17.7617 28.1893 17.7037C31.6549 16.5335 34.4713 13.9846 36.036 10.7404C36.9053 8.95614 37.3921 6.9749 37.3921 4.88938C37.3921 4.88938 37.3921 4.88166 37.3921 4.86621V3.9509H36.4764C35.4333 3.9509 34.4249 4.06676 33.4514 4.27531C30.9015 4.86621 28.595 6.18703 26.7985 8.01766C24.5963 10.2538 23.1591 13.2662 22.9389 16.6146L22.9157 17.1476V17.3793V36.4155H18.9634V29.6028H18.0362C17.0162 29.6028 16.0079 29.5217 15.0343 29.3363C14.0028 29.1625 12.9944 28.8844 12.0208 28.5368C5.28681 26.0806 0.5 19.6386 0.5 12.1076V7.22979H5.37954C6.06337 7.22979 6.75879 7.26455 7.44262 7.35724C10.5604 7.71641 13.5044 8.90979 15.9847 10.8099C16.541 11.227 17.051 11.6789 17.5494 12.1655C17.1322 13.6254 16.8772 15.1548 16.8192 16.7305V17.472L16.402 16.8927C15.9847 16.3134 15.5327 15.7804 15.0575 15.2822C14.6518 14.8651 14.2114 14.4596 13.7478 14.112C11.6731 12.4783 9.12322 11.4588 6.45744 11.2386C6.08655 11.2154 5.72725 11.2039 5.35636 11.2039H4.42913V12.1192C4.42913 17.7964 7.95259 22.6858 12.9249 24.6786C14.4084 25.2811 16.0195 25.6287 17.7001 25.6519C17.8044 25.6519 17.8971 25.6519 18.0014 25.6519H18.9287L18.9518 16.7305C19.0446 14.4828 19.5661 12.3393 20.4586 10.3928C21.5481 7.97131 23.1591 5.83945 25.1643 4.14786C28.2125 1.55255 32.1648 0 36.4533 0H41.3328L41.3444 0Z" fill="#90AA3D"/>
<path d="M28.1898 17.7036V21.8399C27.9464 21.9094 27.703 21.9673 27.4596 22.0137C27.4017 22.0137 27.3437 22.0369 27.2858 22.0484C27.0655 22.0948 26.8453 22.1295 26.6135 22.1643C26.3585 22.2106 26.1035 22.2338 25.8486 22.2686C25.6399 22.2918 25.4313 22.3149 25.2111 22.3265C25.1647 22.3265 25.1068 22.3497 25.0488 22.3497C25.0488 21.0752 25.072 19.5806 25.072 18.364C25.1995 18.364 25.3502 18.3409 25.4777 18.3293C25.6052 18.3293 25.7442 18.3061 25.8717 18.2713C26.1615 18.2366 26.4513 18.1786 26.741 18.1091C26.9033 18.086 27.054 18.0396 27.2046 17.9933C27.3321 17.9701 27.448 17.9238 27.5755 17.889C27.7841 17.8311 27.9812 17.7615 28.1898 17.7036Z" fill="#5A9341"/>
<path d="M28.1898 17.7036V21.8399C27.9464 21.9094 27.703 21.9673 27.4596 22.0137C27.4017 22.0137 27.3437 22.0369 27.2858 22.0484C27.0655 22.0948 26.8453 22.1295 26.6135 22.1643C26.3585 22.2106 26.1035 22.2338 25.8486 22.2686C25.6399 22.2918 25.4313 22.3149 25.2111 22.3265C25.1647 22.3265 25.1068 22.3497 25.0488 22.3497C25.0488 21.0752 25.072 19.5806 25.072 18.364C25.1995 18.364 25.3502 18.3409 25.4777 18.3293C25.6052 18.3293 25.7442 18.3061 25.8717 18.2713C26.1615 18.2366 26.4513 18.1786 26.741 18.1091C26.8917 18.086 27.054 18.0396 27.2046 17.9933C27.3321 17.9701 27.448 17.9238 27.5755 17.889C27.7841 17.8311 27.9812 17.7615 28.1898 17.7036Z" fill="#5A9341"/>
</g>
<defs>
<clipPath id="clip0_3823_9445">
<rect width="190" height="60.0001" fill="white" transform="translate(0.5)"/>
</clipPath>
</defs>
</svg>
