<svg width="190" height="60" viewBox="0 0 190 60" fill="none" xmlns="http://www.w3.org/2000/svg">
<g clip-path="url(#clip0_4901_938)">
<path d="M78.0652 30.9787C77.2401 31.6388 76.217 32.0029 75.16 32.0125C74.6768 32.032 74.1949 31.9506 73.7449 31.7737C73.295 31.5968 72.8868 31.3281 72.5465 30.9849C72.2061 30.6417 71.9411 30.2314 71.7682 29.7802C71.5953 29.329 71.5184 28.8468 71.5424 28.3642C71.5211 27.884 71.6005 27.4046 71.7755 26.9567C71.9505 26.5089 72.2173 26.1026 72.5587 25.7639C72.9002 25.4252 73.3087 25.1615 73.7581 24.9898C74.2076 24.818 74.688 24.7421 75.1685 24.7668C76.2192 24.7716 77.2395 25.1199 78.0736 25.7583L79.9058 22.6863C78.3662 21.4772 76.4608 20.8272 74.5027 20.8431C70.4058 20.8431 67.0596 23.699 67.0596 28.4702C67.0596 33.4702 70.7451 35.9363 74.4772 35.9363C76.5507 35.9181 78.5552 35.1897 80.156 33.8727L78.0652 30.9787Z" fill="white"/>
<path d="M95.3903 32.7246C94.6269 32.2712 94.3978 31.8009 94.3978 30.5424V26.1399C94.3978 22.6144 92.1925 20.8433 88.2949 20.8433C86.272 20.8433 83.986 21.3263 82.2345 22.5382L83.5068 25.4238C84.6946 24.7888 86.019 24.4514 87.3662 24.4407C88.9014 24.4407 89.9744 24.9746 89.9744 26.3009V26.7246C89.1266 26.5345 88.2605 26.4378 87.3916 26.4365C83.6807 26.4365 81.3057 28.3517 81.3057 31.2416C81.3057 34.1314 83.6467 35.9026 86.3949 35.9026C87.7775 35.9026 89.4782 35.4407 90.424 34C90.8481 35.3348 92.5148 35.8687 94.8898 35.8687L95.3903 32.7246ZM89.9744 29.6017V30.25C89.9744 31.7034 88.6385 32.4577 87.3662 32.4577C86.4458 32.4577 85.5383 32.0594 85.5383 30.9916C85.5383 29.9238 86.3865 29.3687 88.0574 29.3687C88.7032 29.3732 89.3464 29.4514 89.9744 29.6017Z" fill="white"/>
<path d="M98.8165 31.0084L96.9844 33.4999C98.6511 34.8771 100.271 35.9364 103.092 35.9364C106.523 35.9364 108.974 34.3813 108.974 31.1779C108.974 25.7033 101.811 27.5084 101.811 25.2838C101.811 24.6525 102.379 24.2415 103.414 24.2415C104.678 24.3052 105.904 24.6918 106.976 25.3643L108.495 22.822C106.982 21.527 105.05 20.824 103.058 20.8432C100.038 20.8432 97.4806 22.2754 97.4806 25.5889C97.4806 31.0974 104.546 29.0932 104.546 31.3432C104.546 32.0465 103.863 32.4025 102.761 32.4025C101.361 32.4025 100.089 31.8347 98.8165 31.0084Z" fill="white"/>
<path d="M124.967 35.644V26.7965C124.967 23.2033 123.271 20.8431 119.764 20.8431C119.064 20.8129 118.366 20.9234 117.711 21.168C117.055 21.4125 116.455 21.7862 115.947 22.2669V14.0635L111.464 14.8304V35.644H115.947V27.3601C115.947 25.8347 116.901 24.8643 118.381 24.8643C119.793 24.8643 120.502 25.7372 120.502 27.1821V35.6567L124.967 35.644Z" fill="white"/>
<path d="M139.84 35.644H141.698V14.0635L139.531 14.5169V23.3431C138.974 22.5472 138.228 21.9021 137.359 21.4657C136.491 21.0293 135.528 20.8154 134.556 20.8431C130.841 20.8431 127.724 23.6821 127.724 28.4703C127.724 33.4025 131.027 35.9364 134.484 35.9364C135.5 35.9514 136.503 35.7138 137.404 35.2448C138.305 34.7759 139.076 34.0903 139.645 33.2499L139.84 35.644ZM134.751 33.9491C131.922 33.9491 129.912 31.7965 129.912 28.4406C129.912 25.0847 131.88 22.8601 134.772 22.8601C137.554 22.8601 139.603 24.9787 139.603 28.3431C139.586 31.5508 137.703 33.9448 134.734 33.9448L134.751 33.9491Z" fill="white"/>
<path d="M145.969 35.6441H148.149V28.4407C148.149 25.5042 149.302 22.8941 152.22 22.8941C152.716 22.8956 153.209 22.9713 153.683 23.1186L154.014 21.0635C153.462 20.9113 152.891 20.8357 152.318 20.839C150.329 20.839 149.014 21.7288 148.077 23.4915L147.831 21.1313H145.977L145.969 35.6441Z" fill="white"/>
<path d="M157.343 17.9532C157.655 17.9591 157.961 17.8722 158.223 17.7035C158.485 17.5349 158.691 17.2921 158.814 17.0062C158.937 16.7203 158.973 16.4042 158.916 16.0981C158.858 15.7921 158.711 15.5099 158.493 15.2877C158.275 15.0655 157.995 14.9132 157.69 14.8502C157.385 14.7873 157.068 14.8166 156.78 14.9343C156.491 15.0521 156.244 15.2529 156.07 15.5114C155.897 15.7698 155.804 16.0741 155.804 16.3854C155.8 16.7971 155.961 17.1934 156.249 17.4873C156.538 17.7812 156.931 17.9487 157.343 17.9532ZM156.249 35.6439H158.429V21.1354H156.249V35.6439Z" fill="white"/>
<path d="M163.705 21.1357H161.33L166.886 35.6442H169.163L174.944 21.1357H172.7L168.095 33.1781L163.705 21.1357Z" fill="white"/>
<path d="M188.889 34.0595L187.854 32.6273C186.617 33.5141 185.135 33.9953 183.613 34.0044C180.644 34.0044 178.698 32.1273 178.473 29.1104H189.924C189.969 28.759 189.995 28.4053 190 28.051C190 24.0129 187.392 20.8477 183.32 20.8477C179.385 20.8477 176.268 23.8138 176.268 28.5002C176.268 33.3095 179.537 35.9409 183.52 35.9409C185.476 35.9658 187.377 35.2994 188.889 34.0595ZM178.549 27.3688C178.821 24.7332 180.721 22.7926 183.359 22.7926C186.141 22.7926 187.727 24.9663 187.841 27.3688H178.549Z" fill="white"/>
<path d="M24.9929 17.3729L24.9548 17.3306H24.9336L24.9929 17.3729Z" fill="white"/>
<path fill-rule="evenodd" clip-rule="evenodd" d="M2.28196 24.3646L10.34 32.2629C10.5598 33.6963 11.2488 35.0165 12.2994 36.0171L23.886 47.3307C24.8367 48.258 26.0357 48.8908 27.3382 49.1527C28.1157 49.7155 29.0543 50.0127 30.0143 50.0002C31.1919 49.985 32.3214 49.5317 33.1824 48.729L33.6786 48.2417C34.3 47.6439 34.727 46.8733 34.9043 46.0298C35.04 46.0298 35.1715 46.0298 35.3072 46.0298C35.9399 46.0353 36.5674 45.9162 37.154 45.6791C37.7405 45.4421 38.2745 45.0919 38.7255 44.6485C39.5946 43.8068 40.0986 42.6582 40.1293 41.4493C40.2998 41.4664 40.4711 41.4748 40.6425 41.4748C41.9032 41.4743 43.1164 40.994 44.0353 40.1315C44.8918 39.3055 45.3949 38.1802 45.4391 36.9917C46.6344 36.9461 47.7692 36.4548 48.6199 35.6146C49.1942 35.0564 49.6134 34.3587 49.8365 33.5899C50.0595 32.821 50.0787 32.0075 49.8922 31.229L57.2547 24.0807C57.8872 23.4716 58.3903 22.7413 58.7339 21.9336C59.0776 21.1258 59.2547 20.2571 59.2547 19.3794C59.2547 18.5017 59.0776 17.633 58.7339 16.8253C58.3903 16.0175 57.8872 15.2873 57.2547 14.6781L45.6681 3.39001C45.038 2.76435 44.2901 2.2696 43.4675 1.93432C42.6449 1.59905 41.7641 1.42989 40.8757 1.43662C39.0812 1.42845 37.3565 2.13081 36.0791 3.39001L31.1 8.22899L24.9547 2.22899C23.4643 0.799037 21.478 0.000488281 19.4117 0.000488281C17.3453 0.000488281 15.359 0.799037 13.8686 2.22899L2.28196 13.5595C1.56257 14.2637 0.991056 15.1043 0.600894 16.032C0.210732 16.9597 0.00976563 17.9558 0.00976562 18.962C0.00976563 19.9683 0.210732 20.9644 0.600894 21.8921C0.991056 22.8198 1.56257 23.6604 2.28196 24.3646ZM29.6157 9.64848L23.4958 3.65272C22.4026 2.59325 20.9346 2.00839 19.4117 2.0256C17.8902 2.01613 16.425 2.59986 15.3275 3.65272L3.74089 15.0044C3.21605 15.5237 2.79943 16.1418 2.5151 16.8229C2.23077 17.504 2.08438 18.2347 2.08438 18.9726C2.08438 19.7106 2.23077 20.4413 2.5151 21.1224C2.79943 21.8035 3.21605 22.4216 3.74089 22.9409L10.5266 29.5595C10.8397 28.4324 11.4472 27.4087 12.2867 26.5934L21.8969 17.2163C18.8688 16.7205 15.6541 15.3053 14.6871 14.5595L16.023 12.9705C16.9476 13.6993 21.0275 15.3476 23.7842 15.3603C24.2134 15.3694 24.6417 15.3181 25.0565 15.2078L25.7648 15.0044L26.1889 15.5764L26.2483 15.657L26.3119 15.7375C29.8192 20.0934 36.834 20.2459 38.4795 19.7248C38.5906 19.6875 38.6908 19.6235 38.7714 19.5386C38.8519 19.4536 38.9105 19.3503 38.9418 19.2375C38.9773 19.1142 38.9762 18.9833 38.9386 18.8606C38.9009 18.738 38.8283 18.6289 38.7297 18.5468L29.6157 9.64848ZM32.559 9.64848L40.1929 17.1188C40.531 17.4444 40.7781 17.8525 40.9099 18.3028C41.0417 18.753 41.0536 19.2299 40.9443 19.6861C40.8351 20.1424 40.6085 20.5622 40.2871 20.9042C39.9656 21.2461 39.5604 21.4983 39.1114 21.6358C38.2376 21.9202 37.3194 22.0437 36.4014 22.0002C33.0679 22.0002 28.0253 20.9409 24.9505 17.3392L24.6663 17.3688L13.7413 28.0256C13.3062 28.4492 12.9604 28.9556 12.7243 29.5148C12.4881 30.0741 12.3665 30.675 12.3665 31.282C12.3665 31.889 12.4881 32.4898 12.7243 33.0491C12.9604 33.6083 13.3062 34.1147 13.7413 34.5383L22.4779 43.0849C22.4138 42.4417 22.497 41.7924 22.7211 41.186C22.9452 40.5797 23.3044 40.0322 23.7715 39.5849L24.2677 39.0934C24.8561 38.5224 25.5893 38.1225 26.3882 37.9366C26.2866 37.2145 26.3569 36.4786 26.5934 35.7887C26.83 35.0988 27.2261 34.4744 27.7496 33.9663C28.5711 33.1771 29.6449 32.703 30.782 32.6273C30.6561 31.8876 30.7123 31.1284 30.9458 30.4152C31.1793 29.7021 31.5831 29.0565 32.1221 28.5341C32.6762 27.9984 33.3494 27.6016 34.0866 27.3763C34.8238 27.1509 35.604 27.1033 36.3632 27.2375C36.5606 26.3705 37.0021 25.578 37.6355 24.9536C38.5463 24.0754 39.7626 23.5846 41.0284 23.5846C42.2941 23.5846 43.5105 24.0754 44.4212 24.9536L48.586 29.0256C48.6918 29.1263 48.7923 29.2324 48.8871 29.3434L55.7576 22.6358C56.1928 22.2122 56.5386 21.7058 56.7747 21.1465C57.0108 20.5873 57.1325 19.9864 57.1325 19.3794C57.1325 18.7724 57.0108 18.1716 56.7747 17.6123C56.5386 17.053 56.1928 16.5467 55.7576 16.1231L44.2092 4.79255C43.3131 3.93058 42.1175 3.44903 40.8736 3.44903C39.6297 3.44903 38.4341 3.93058 37.538 4.79255L32.559 9.64848ZM28.3179 47.3095C28.7659 47.7399 29.3632 47.9802 29.9846 47.9802C30.6061 47.9802 31.2034 47.7399 31.6514 47.3095L32.1518 46.8222C32.5425 46.4415 32.7833 45.9332 32.8304 45.39C32.4892 45.1919 32.1767 44.9482 31.9016 44.6654L27.7326 40.5976C27.5135 40.3785 27.316 40.1387 27.1431 39.8815C26.6141 39.9458 26.1217 40.1843 25.7436 40.5595L25.2431 41.0468C25.0255 41.2588 24.8525 41.5121 24.7345 41.792C24.6164 42.0718 24.5555 42.3724 24.5555 42.676C24.5555 42.9797 24.6164 43.2803 24.7345 43.5601C24.8525 43.8399 25.0255 44.0933 25.2431 44.3053L28.3179 47.3095ZM34.1197 43.7587C34.6257 43.9869 35.1883 44.0596 35.7358 43.9675C36.2833 43.8755 36.791 43.6228 37.1945 43.2417C37.5293 42.9095 37.7692 42.4939 37.8893 42.038C38.0094 41.582 38.0052 41.1023 37.8773 40.6485C37.6466 40.489 37.4321 40.3073 37.2369 40.1061L32.1221 35.1697C31.9872 35.0368 31.8611 34.8953 31.7447 34.7459C31.5403 34.6985 31.3311 34.6744 31.1212 34.6739C30.7665 34.6691 30.4144 34.7348 30.0853 34.8672C29.7562 34.9996 29.4567 35.196 29.2043 35.4451C28.9565 35.6902 28.7599 35.9819 28.6257 36.3033C28.4915 36.6248 28.4224 36.9697 28.4224 37.318C28.4224 37.6663 28.4915 38.0112 28.6257 38.3326C28.7599 38.6541 28.9565 38.9458 29.2043 39.1909L33.3733 43.2587C33.5946 43.4702 33.8516 43.6409 34.1324 43.7629L34.1197 43.7587ZM39.3532 39.1485C39.2467 39.096 39.1446 39.035 39.0478 38.9663C38.9253 38.8851 38.8116 38.7913 38.7085 38.6866L33.5811 33.6824C33.3329 33.438 33.1359 33.1467 33.0014 32.8256C32.867 32.5044 32.7977 32.1597 32.7977 31.8116C32.7977 31.4635 32.867 31.1188 33.0014 30.7977C33.1359 30.4765 33.3329 30.1853 33.5811 29.9409C33.8333 29.6912 34.1326 29.4941 34.4617 29.361C34.7908 29.2279 35.143 29.1614 35.498 29.1654C35.7997 29.1658 36.0991 29.2159 36.3844 29.3137C36.587 30.1701 37.0282 30.9516 37.6567 31.568L41.8257 35.6358C42.2483 36.0644 42.7512 36.4056 43.3058 36.64C43.333 37.0166 43.2781 37.3946 43.1448 37.748C43.0115 38.1013 42.8031 38.4216 42.534 38.6866C42.271 38.9431 41.9576 39.1422 41.6137 39.2714C41.2486 39.407 40.8595 39.4661 40.4706 39.4449C40.0817 39.4238 39.7013 39.3229 39.3532 39.1485ZM46.3297 34.7459C46.6249 34.6162 46.8948 34.4355 47.1271 34.212C47.3743 33.9667 47.5705 33.6749 47.7044 33.3535C47.8383 33.032 47.9072 32.6873 47.9072 32.3392C47.9072 31.991 47.8383 31.6463 47.7044 31.3249C47.5705 31.0034 47.3743 30.7116 47.1271 30.4663L42.9581 26.3985C42.4375 25.9119 41.7539 25.6369 41.0411 25.6273C40.6864 25.6225 40.3342 25.6882 40.0051 25.8206C39.676 25.953 39.3766 26.1494 39.1242 26.3985C38.8764 26.6436 38.6798 26.9353 38.5455 27.2567C38.4113 27.5782 38.3422 27.9231 38.3422 28.2714C38.3422 28.6197 38.4113 28.9645 38.5455 29.286C38.6798 29.6075 38.8764 29.8992 39.1242 30.1442L43.2931 34.212C43.3979 34.3133 43.5098 34.4067 43.6282 34.4917C44.0215 34.7558 44.4748 34.9174 44.9466 34.9618C45.4185 35.0062 45.8939 34.932 46.3297 34.7459Z" fill="white"/>
<path d="M47.3346 15.1269C47.5391 15.3142 47.8078 15.4159 48.0853 15.4108C48.3474 15.4023 48.5982 15.3018 48.7935 15.1269C48.8917 15.036 48.97 14.9259 49.0235 14.8034C49.0771 14.6809 49.1047 14.5487 49.1047 14.415C49.1047 14.2813 49.0771 14.1491 49.0235 14.0266C48.97 13.9041 48.8917 13.794 48.7935 13.7032L44.2089 9.22434C44.1138 9.12749 44.0003 9.05055 43.875 8.99803C43.7498 8.94551 43.6153 8.91846 43.4794 8.91846C43.3436 8.91846 43.2091 8.94551 43.0839 8.99803C42.9586 9.05055 42.8451 9.12749 42.75 9.22434C42.6517 9.31556 42.5733 9.42604 42.5197 9.54889C42.4661 9.67174 42.4385 9.80431 42.4385 9.93833C42.4385 10.0723 42.4661 10.2049 42.5197 10.3278C42.5733 10.4506 42.6517 10.5611 42.75 10.6523L47.3346 15.1269Z" fill="white"/>
<path d="M50.9984 16.2245C51.0035 16.4319 50.9465 16.636 50.8348 16.8109C50.7231 16.9857 50.5617 17.1232 50.3713 17.2059C50.1809 17.2886 49.9702 17.3127 49.766 17.275C49.5619 17.2374 49.3736 17.1397 49.2253 16.9946C49.077 16.8494 48.9754 16.6634 48.9336 16.4603C48.8917 16.2571 48.9114 16.0461 48.9902 15.8542C49.069 15.6623 49.2034 15.4983 49.376 15.3831C49.5486 15.2679 49.7517 15.2068 49.9593 15.2076C50.0945 15.2059 50.2286 15.2309 50.3541 15.2812C50.4795 15.3314 50.5938 15.4059 50.6903 15.5004C50.7869 15.5949 50.8638 15.7075 50.9166 15.8318C50.9695 15.9561 50.9973 16.0895 50.9984 16.2245Z" fill="white"/>
</g>
<defs>
<clipPath id="clip0_4901_938">
<rect width="190" height="60.0001" fill="white"/>
</clipPath>
</defs>
</svg>
