<svg width="170" height="70" viewBox="0 0 170 70" fill="none" xmlns="http://www.w3.org/2000/svg">
<g clip-path="url(#clip0_4901_4253)">
<g clip-path="url(#clip1_4901_4253)">
<path d="M30.0161 23.7071C29.6945 24.9935 29.0513 26.0654 28.0865 26.7086C27.1217 27.3518 25.9425 27.6734 24.549 27.6734C22.7266 27.6734 21.2258 27.0302 20.0466 25.6366C18.8674 24.3502 18.3314 22.7423 18.3314 20.8127C18.3314 18.7759 18.8674 17.0607 20.0466 15.7743C21.2258 14.4879 22.7266 13.8447 24.549 13.8447C27.3361 13.8447 29.1585 15.0239 30.0161 17.3823H36.3409C36.0193 15.4527 35.3761 13.7375 34.3041 12.3439H14.5794C13.9362 13.0943 13.4002 14.0591 12.9714 15.1311C12.221 16.8463 11.8994 18.6687 11.8994 20.7055C11.8994 22.7422 12.221 24.5646 12.9714 26.1726C13.7218 27.7806 14.6866 29.1742 15.8658 30.139C17.045 31.211 18.4386 31.9614 19.9394 32.4974C21.4402 33.0334 23.0482 33.355 24.6562 33.355C26.5858 33.355 28.3009 33.0334 29.9089 32.3902C31.5169 31.747 32.9105 30.675 34.1969 29.067C35.4833 27.5662 36.2337 25.6366 36.5553 23.3854H30.0161V23.7071Z" fill="white"/>
<path d="M29.9601 9.33572C28.2889 8.66724 26.5063 8.33301 24.6122 8.33301C22.941 8.33301 21.2698 8.66726 19.7101 9.11292C18.1503 9.66998 16.7019 10.4499 15.4763 11.564C15.1421 11.7868 14.9193 12.1211 14.585 12.3439H34.3052C32.9683 11.0069 31.5199 10.0042 29.9601 9.33572Z" fill="white"/>
<path d="M30.0161 52.2669C29.6945 53.5533 29.0513 54.6253 28.0865 55.2684C27.1217 55.9116 25.9425 56.2332 24.549 56.2332C22.7266 56.2332 21.2258 55.59 20.0466 54.1965C18.8674 52.9101 18.3314 51.3021 18.3314 49.3725C18.3314 47.3357 18.8674 45.6205 20.0466 44.3341C21.2258 43.0477 22.7266 42.4045 24.549 42.4045C27.3361 42.4045 29.1585 43.5837 30.0161 45.9421H36.3409C36.0193 44.0125 35.3761 42.2973 34.3041 40.9037H14.5794C13.9362 41.6541 13.4002 42.6189 12.9714 43.6909C12.221 45.4061 11.8994 47.2285 11.8994 49.2653C11.8994 51.3021 12.221 53.1245 12.9714 54.7325C13.7218 56.3404 14.6866 57.7341 15.8658 58.6989C17.045 59.7708 18.4386 60.5212 19.9394 61.0572C21.4402 61.5932 23.0482 61.9148 24.6562 61.9148C26.5858 61.9148 28.3009 61.5932 29.9089 60.95C31.5169 60.3068 32.9105 59.2348 34.1969 57.6269C35.4833 56.1261 36.2337 54.1964 36.5553 51.9453H30.0161V52.2669Z" fill="white"/>
<path d="M29.9601 37.8955C28.2889 37.2271 26.5063 36.8928 24.6122 36.8928C22.941 36.8928 21.2698 37.2271 19.7101 37.6727C18.1503 38.2298 16.7019 39.0097 15.4763 40.1238C15.1421 40.3466 14.9193 40.6809 14.585 40.9037H34.3052C32.9683 39.5668 31.5199 38.564 29.9601 37.8955Z" fill="white"/>
</g>
<g clip-path="url(#clip2_4901_4253)">
<path d="M73.485 38.3694V33.0094H61.0498V28.2926H70.6978V23.0399H61.0498V19.8239H73.1634V14.3567H54.9395V38.3694H73.485Z" fill="white"/>
</g>
<g clip-path="url(#clip3_4901_4253)">
<path d="M109.077 24.4496V38.1711H115.187V14.1584H109.934L99.9646 27.6656V14.1584H93.7471V38.1711H98.9998L109.077 24.4496Z" fill="white"/>
</g>
<g clip-path="url(#clip4_4901_4253)">
<path d="M147.99 15.0444V12.9004H141.772V15.0444C138.235 15.1516 135.448 16.3308 133.411 18.4747C131.374 20.5115 130.409 22.9772 130.409 25.7643C130.409 28.5515 131.374 30.9099 133.411 33.0539C135.448 35.0907 138.235 36.2699 141.772 36.3771V39.0571H147.99V36.3771C151.528 36.2699 154.315 35.0907 156.351 33.0539C158.388 31.0171 159.353 28.5515 159.353 25.7643C159.353 22.9772 158.388 20.5115 156.351 18.4747C154.315 16.3308 151.528 15.2588 147.99 15.0444ZM141.772 30.9099C140.272 30.8027 138.985 30.3739 138.128 29.4091C137.163 28.5515 136.734 27.2651 136.734 25.7643C136.734 24.1563 137.163 22.9772 138.128 22.0124C139.092 21.0476 140.272 20.6187 141.772 20.6187V30.9099ZM151.635 29.4091C150.777 30.2667 149.491 30.8027 147.99 30.9099V20.6187C149.491 20.6187 150.777 21.1548 151.635 22.0124C152.6 22.9772 153.028 24.1563 153.028 25.7643C153.028 27.2651 152.6 28.4443 151.635 29.4091Z" fill="white"/>
</g>
<path d="M52.7826 70.0001C51.2792 70.0001 49.9905 69.4617 48.9166 68.4924C47.8426 67.5232 47.4131 66.2309 47.4131 64.7232C47.4131 63.2155 47.95 61.9232 48.9166 60.954C49.9905 59.9847 51.2792 59.4463 52.89 59.4463C54.0713 59.4463 55.0378 59.6617 55.897 60.2001V62.2463C54.9304 61.7078 53.9639 61.3847 52.9974 61.3847C51.9235 61.3847 51.0644 61.7078 50.4201 62.354C49.7757 63.0001 49.4535 63.754 49.4535 64.8309C49.4535 65.8001 49.7757 66.6617 50.4201 67.2001C51.0644 67.8463 51.8161 68.0617 52.7826 68.0617C53.6418 68.0617 54.3935 67.8463 54.8231 67.4155V63.8617H56.8635V68.3847C56.4339 68.8155 55.897 69.2463 55.1453 69.5694C54.3935 69.8924 53.6418 70.0001 52.7826 70.0001Z" fill="white"/>
<path d="M66.5287 69.7847H64.4883V59.554H69.2135C70.2874 59.554 71.1465 59.877 71.7909 60.4155C72.4352 60.9539 72.7574 61.7078 72.7574 62.5693C72.7574 63.2155 72.5426 63.8616 72.2204 64.2924C71.8983 64.7232 71.3613 65.1539 70.717 65.3693L73.8313 69.677H71.3613L68.3544 65.5847H66.6361V69.7847H66.5287ZM66.5287 61.4924V63.9693H68.9987C69.4283 63.9693 69.8578 63.8616 70.0726 63.6462C70.2874 63.4309 70.5022 63.1078 70.5022 62.677C70.5022 62.2463 70.3948 62.0309 70.0726 61.8155C69.8578 61.6001 69.4283 61.4924 68.9987 61.4924H66.5287Z" fill="white"/>
<path d="M80.167 64.7232C80.167 63.2155 80.7039 61.9232 81.6705 60.954C82.637 59.8771 83.9257 59.4463 85.4291 59.4463C86.9326 59.4463 88.2213 59.9847 89.1878 60.954C90.1544 62.0309 90.6913 63.2155 90.6913 64.7232C90.6913 66.2309 90.1544 67.4155 89.1878 68.4924C88.2213 69.5694 86.9326 70.0001 85.4291 70.0001C83.9257 70.0001 82.637 69.4617 81.6705 68.4924C80.5965 67.4155 80.167 66.2309 80.167 64.7232ZM83.174 67.0924C83.8183 67.7386 84.57 68.0617 85.4291 68.0617C86.2883 68.0617 87.04 67.7386 87.6844 67.0924C88.3287 66.4463 88.5435 65.6924 88.5435 64.7232C88.5435 63.754 88.2213 63.0001 87.6844 62.354C87.1474 61.7078 86.2883 61.3847 85.4291 61.3847C84.57 61.3847 83.8183 61.7078 83.174 62.354C82.5296 63.0001 82.3148 63.754 82.3148 64.7232C82.2074 65.6924 82.5296 66.4463 83.174 67.0924Z" fill="white"/>
<path d="M102.397 70.0001C101.109 70.0001 100.035 69.5693 99.2829 68.8155C98.5311 68.0616 98.1016 66.877 98.1016 65.477V59.554H100.142V65.5847C100.142 66.3385 100.357 66.9847 100.786 67.4155C101.216 67.8462 101.753 68.0616 102.397 68.0616C103.042 68.0616 103.686 67.8462 104.008 67.4155C104.438 66.9847 104.652 66.3385 104.652 65.5847V59.554H106.693V65.477C106.693 66.877 106.263 67.9539 105.512 68.8155C104.76 69.5693 103.686 70.0001 102.397 70.0001Z" fill="white"/>
<path d="M116.68 69.7847H114.64V59.554H119.043C120.117 59.554 120.976 59.877 121.62 60.4155C122.264 60.9539 122.587 61.7078 122.587 62.677C122.587 63.6463 122.264 64.2924 121.62 64.9386C120.976 65.477 120.117 65.8001 119.043 65.8001H116.68V69.7847ZM116.68 61.4924V64.077H118.935C119.472 64.077 119.794 63.9693 120.117 63.7539C120.439 63.5386 120.546 63.2155 120.546 62.7847C120.546 62.354 120.439 62.0309 120.117 61.8155C119.794 61.6001 119.472 61.4924 118.935 61.4924H116.68Z" fill="white"/>
<path fill-rule="evenodd" clip-rule="evenodd" d="M86.6646 0H158.939C165.06 0 170 5.06154 170 11.3077V40.8154C170 47.0615 165.06 52.123 158.939 52.123H11.0613C4.93999 52.123 0 47.0615 0 40.8154V11.3077C0 5.06154 4.93999 0 11.0613 0H86.6646ZM45.2116 46.9538H84.1946V5.06155H45.2116V46.9538ZM4.93999 11.2V40.7077C4.93999 44.1538 7.62477 46.9538 11.0613 46.8461H43.8155V4.95385H11.0613C7.73216 4.95385 4.93999 7.75384 4.93999 11.2ZM158.939 46.9538C162.268 46.9538 165.06 44.1538 165.06 40.7077V11.3077C165.06 7.86153 162.375 5.06155 158.939 5.06155H126.077V46.9538H158.939ZM124.681 4.95385H108.895H102.344H86.6646H85.698V46.8461H124.681V4.95385Z" fill="white"/>
<path fill-rule="evenodd" clip-rule="evenodd" d="M101.86 9.76656V4.92041H108.411V9.76656H101.86Z" fill="white"/>
</g>
<defs>
<clipPath id="clip0_4901_4253">
<rect width="170" height="70" fill="white"/>
</clipPath>
<clipPath id="clip1_4901_4253">
<rect width="26.7999" height="28.9439" fill="white" transform="translate(10.9756 11.792)"/>
</clipPath>
<clipPath id="clip2_4901_4253">
<rect width="26.7999" height="28.9439" fill="white" transform="translate(50.8125 11.792)"/>
</clipPath>
<clipPath id="clip3_4901_4253">
<rect width="26.7999" height="28.9439" fill="white" transform="translate(90.6504 11.792)"/>
</clipPath>
<clipPath id="clip4_4901_4253">
<rect width="30.0159" height="28.9439" fill="white" transform="translate(129.968 11.792)"/>
</clipPath>
</defs>
</svg>
