<svg width="124" height="60" viewBox="0 0 124 60" fill="none" xmlns="http://www.w3.org/2000/svg">
<g clip-path="url(#clip0_4901_7)">
<path d="M47.7624 60C45.7934 60 44.1568 59.3371 42.8525 58.0113C41.5608 56.6981 40.9149 55.0629 40.9149 53.1057C40.9149 51.1359 41.5608 49.5008 42.8525 48.2002C44.1568 46.8744 45.7934 46.2114 47.7624 46.2114C48.9538 46.2114 50.0512 46.4956 51.0544 47.0638C52.0703 47.6194 52.8604 48.377 53.4247 49.3366L51.1861 50.6435C50.8601 50.05 50.396 49.5891 49.7941 49.2608C49.1921 48.9199 48.5149 48.7495 47.7624 48.7495C46.4832 48.7495 45.4485 49.1535 44.6584 49.9616C43.8809 50.7824 43.4921 51.8304 43.4921 53.1057C43.4921 54.3684 43.8809 55.4101 44.6584 56.2309C45.4485 57.039 46.4832 57.4431 47.7624 57.4431C48.5149 57.4431 49.1921 57.2789 49.7941 56.9506C50.4086 56.6097 50.8726 56.1488 51.1861 55.568L53.4247 56.8748C52.8604 57.8345 52.0703 58.5984 51.0544 59.1666C50.0512 59.7222 48.9538 60 47.7624 60Z" fill="white"/>
<path d="M69.0732 59.7348H66.2514L65.4613 57.3484H60.2128L59.4227 59.7348H56.6198L61.2287 46.4766H64.4455L69.0732 59.7348ZM62.8465 49.4881L61.0406 54.9051H64.6524L62.8465 49.4881Z" fill="white"/>
<path d="M83.2002 59.7348H80.3973L77.7448 55.1323H75.7696V59.7348H73.1736V46.4766H78.4408C79.6573 46.4766 80.692 46.9059 81.5448 47.7646C82.3976 48.6232 82.824 49.6586 82.824 50.8708C82.824 51.6915 82.592 52.4554 82.128 53.1625C81.6639 53.857 81.0494 54.381 80.2844 54.7346L83.2002 59.7348ZM78.4408 48.9199H75.7696V52.8406H78.4408C78.93 52.8406 79.3501 52.6512 79.7012 52.2724C80.0524 51.8809 80.228 51.4137 80.228 50.8708C80.228 50.3278 80.0524 49.8669 79.7012 49.4881C79.3501 49.1093 78.93 48.9199 78.4408 48.9199Z" fill="white"/>
<path d="M22.4896 16.6633C22.2565 17.6021 21.7903 18.3844 21.0909 18.8538C20.3916 19.3231 19.5369 19.5578 18.5268 19.5578C17.2059 19.5578 16.1181 19.0885 15.2634 18.0714C14.4087 17.1327 14.0202 15.9592 14.0202 14.551C14.0202 13.0646 14.4087 11.8129 15.2634 10.8741C16.1181 9.93535 17.2059 9.46597 18.5268 9.46597C20.547 9.46597 21.868 10.3265 22.4896 12.0476H27.0739C26.8408 10.6394 26.3746 9.38774 25.5976 8.37074H11.3007C10.8345 8.91836 10.446 9.62245 10.1352 10.4048C9.59127 11.6565 9.35817 12.9864 9.35817 14.4728C9.35817 15.9592 9.59127 17.2891 10.1352 18.4626C10.6791 19.6361 11.3784 20.6531 12.2331 21.3572C13.0878 22.1395 14.0979 22.6871 15.1857 23.0783C16.2735 23.4694 17.439 23.7041 18.6045 23.7041C20.0031 23.7041 21.2463 23.4694 22.4119 23C23.5774 22.5306 24.5875 21.7483 25.5199 20.5749C26.4523 19.4796 26.9962 18.0714 27.2293 16.4286H22.4896V16.6633Z" fill="white"/>
<path d="M22.2563 26.9899C21.0908 26.5205 19.8476 26.2858 18.5267 26.2858C17.3612 26.2858 16.1957 26.5205 15.1079 26.8334C14.0201 27.2246 13.0099 27.7722 12.1552 28.5545C11.9221 28.7109 11.7667 28.9457 11.5336 29.1021H25.2866C24.3542 28.1633 23.3441 27.4592 22.2563 26.9899Z" fill="white"/>
<path d="M115.497 0H8.50316C4.07423 0 0.5 3.67688 0.5 8.21431V29.6497C0.5 34.1872 4.07423 37.8641 8.50316 37.8641H115.497C119.926 37.8641 123.5 34.1872 123.5 29.6497V8.21431C123.5 3.67688 119.926 0 115.497 0ZM74.5486 3.59866V7.11907H79.2884V3.59866H90.7104V34.0307H62.5051V3.59866H74.5486ZM61.4172 34.109H33.2119V3.67689H61.4172V34.109ZM4.07423 29.5715V8.13607C4.07423 5.63267 6.09444 3.59866 8.50316 3.59866H32.2018V34.0307H8.50316C6.01674 34.1089 4.07423 32.0749 4.07423 29.5715ZM119.926 29.5715C119.926 32.0749 117.906 34.109 115.497 34.109H91.7205V3.67689H115.497C117.983 3.67689 119.926 5.7109 119.926 8.21431V29.5715Z" fill="white"/>
<path d="M54.1136 27.4592V23.5476H45.1003V20.1055H52.0933V16.2721H45.1003V13.9252H53.8804V9.93537H40.6713V27.4592H54.1136Z" fill="white"/>
<path d="M79.9103 17.4456V27.4592H84.3392V9.93537H80.5319L73.3057 19.7925V9.93537H68.7991V27.4592H72.6064L79.9103 17.4456Z" fill="white"/>
<path d="M108.115 10.7177V9.15305H103.608V10.7177C101.044 10.7959 99.024 11.6564 97.5477 13.2211C96.0714 14.7075 95.3721 16.5068 95.3721 18.5408C95.3721 20.5749 96.0714 22.2959 97.5477 23.8606C99.024 25.347 101.044 26.2075 103.608 26.2857V28.2415H108.115V26.2857C110.679 26.2075 112.699 25.347 114.176 23.8606C115.652 22.3742 116.351 20.5749 116.351 18.5408C116.351 16.5068 115.652 14.7075 114.176 13.2211C112.699 11.6564 110.679 10.8741 108.115 10.7177ZM103.608 22.2959C102.521 22.2177 101.588 21.9048 100.967 21.2007C100.267 20.5748 99.9564 19.6361 99.9564 18.5408C99.9564 17.3674 100.267 16.5068 100.967 15.8027C101.666 15.0986 102.521 14.7857 103.608 14.7857V22.2959ZM110.757 21.2007C110.135 21.8266 109.203 22.2177 108.115 22.2959V14.7857C109.203 14.7857 110.135 15.1769 110.757 15.8027C111.456 16.5068 111.767 17.3674 111.767 18.5408C111.767 19.6361 111.456 20.4966 110.757 21.2007Z" fill="white"/>
</g>
<defs>
<clipPath id="clip0_4901_7">
<rect width="123" height="60" fill="white" transform="translate(0.5)"/>
</clipPath>
</defs>
</svg>
