<svg width="190" height="60" viewBox="0 0 190 60" fill="none" xmlns="http://www.w3.org/2000/svg">
<g id="logos2" clip-path="url(#clip0_3713_7109)">
<path id="Vector" d="M78.0652 30.9787C77.2401 31.6388 76.217 32.0029 75.16 32.0125C74.6768 32.032 74.1949 31.9506 73.7449 31.7737C73.295 31.5968 72.8868 31.3281 72.5465 30.9849C72.2061 30.6417 71.9411 30.2314 71.7682 29.7802C71.5953 29.329 71.5184 28.8468 71.5424 28.3642C71.5211 27.884 71.6005 27.4046 71.7755 26.9567C71.9505 26.5089 72.2173 26.1026 72.5587 25.7639C72.9002 25.4252 73.3087 25.1615 73.7581 24.9898C74.2076 24.818 74.688 24.7421 75.1685 24.7668C76.2192 24.7716 77.2395 25.1199 78.0736 25.7583L79.9058 22.6863C78.3662 21.4772 76.4608 20.8272 74.5027 20.8431C70.4058 20.8431 67.0596 23.699 67.0596 28.4702C67.0596 33.4702 70.7451 35.9363 74.4772 35.9363C76.5507 35.9181 78.5552 35.1897 80.156 33.8727L78.0652 30.9787Z" fill="white"/>
<path id="Vector_2" d="M95.3903 32.7241C94.6269 32.2707 94.3978 31.8004 94.3978 30.5419V26.1394C94.3978 22.614 92.1925 20.8428 88.2949 20.8428C86.272 20.8428 83.986 21.3258 82.2345 22.5377L83.5068 25.4233C84.6946 24.7883 86.019 24.4509 87.3662 24.4402C88.9014 24.4402 89.9744 24.9741 89.9744 26.3004V26.7241C89.1266 26.534 88.2605 26.4373 87.3916 26.436C83.6807 26.436 81.3057 28.3513 81.3057 31.2411C81.3057 34.1309 83.6467 35.9021 86.3949 35.9021C87.7775 35.9021 89.4782 35.4402 90.424 33.9996C90.8481 35.3343 92.5148 35.8682 94.8898 35.8682L95.3903 32.7241ZM89.9744 29.6012V30.2496C89.9744 31.7029 88.6385 32.4572 87.3662 32.4572C86.4458 32.4572 85.5383 32.0589 85.5383 30.9911C85.5383 29.9233 86.3865 29.3682 88.0574 29.3682C88.7032 29.3727 89.3464 29.4509 89.9744 29.6012Z" fill="white"/>
<path id="Vector_3" d="M98.8165 31.0084L96.9844 33.4999C98.6511 34.8771 100.271 35.9364 103.092 35.9364C106.523 35.9364 108.974 34.3813 108.974 31.1779C108.974 25.7033 101.811 27.5084 101.811 25.2838C101.811 24.6525 102.379 24.2415 103.414 24.2415C104.678 24.3052 105.904 24.6918 106.976 25.3643L108.495 22.822C106.982 21.527 105.05 20.824 103.058 20.8432C100.038 20.8432 97.4806 22.2754 97.4806 25.5889C97.4806 31.0974 104.546 29.0932 104.546 31.3432C104.546 32.0465 103.863 32.4025 102.761 32.4025C101.361 32.4025 100.089 31.8347 98.8165 31.0084Z" fill="white"/>
<path id="Vector_4" d="M124.967 35.644V26.7965C124.967 23.2033 123.271 20.8431 119.764 20.8431C119.064 20.8129 118.366 20.9234 117.711 21.168C117.055 21.4125 116.455 21.7862 115.947 22.2669V14.0635L111.464 14.8304V35.644H115.947V27.3601C115.947 25.8347 116.901 24.8643 118.381 24.8643C119.793 24.8643 120.502 25.7372 120.502 27.1821V35.6567L124.967 35.644Z" fill="white"/>
<path id="Vector_5" d="M139.84 35.644H141.698V14.0635L139.531 14.5169V23.3431C138.974 22.5472 138.228 21.9021 137.359 21.4657C136.491 21.0293 135.528 20.8154 134.556 20.8431C130.841 20.8431 127.724 23.6821 127.724 28.4703C127.724 33.4025 131.027 35.9364 134.484 35.9364C135.5 35.9514 136.503 35.7138 137.404 35.2448C138.305 34.7759 139.076 34.0903 139.645 33.2499L139.84 35.644ZM134.751 33.9491C131.922 33.9491 129.912 31.7965 129.912 28.4406C129.912 25.0847 131.88 22.8601 134.772 22.8601C137.554 22.8601 139.603 24.9787 139.603 28.3431C139.586 31.5508 137.703 33.9448 134.734 33.9448L134.751 33.9491Z" fill="white"/>
<path id="Vector_6" d="M145.969 35.6441H148.149V28.4407C148.149 25.5042 149.302 22.8941 152.22 22.8941C152.716 22.8956 153.209 22.9713 153.683 23.1186L154.014 21.0635C153.462 20.9113 152.891 20.8357 152.318 20.839C150.329 20.839 149.014 21.7288 148.077 23.4915L147.831 21.1313H145.977L145.969 35.6441Z" fill="white"/>
<path id="Vector_7" d="M157.343 17.9537C157.655 17.9596 157.961 17.8726 158.223 17.704C158.485 17.5353 158.691 17.2926 158.814 17.0067C158.937 16.7208 158.973 16.4047 158.916 16.0986C158.858 15.7926 158.711 15.5104 158.493 15.2882C158.275 15.066 157.995 14.9137 157.69 14.8507C157.385 14.7878 157.068 14.8171 156.78 14.9348C156.491 15.0525 156.244 15.2534 156.07 15.5119C155.897 15.7703 155.804 16.0745 155.804 16.3859C155.8 16.7976 155.961 17.1938 156.249 17.4877C156.538 17.7816 156.931 17.9492 157.343 17.9537ZM156.249 35.6444H158.429V21.1359H156.249V35.6444Z" fill="white"/>
<path id="Vector_8" d="M163.705 21.1357H161.33L166.886 35.6442H169.163L174.944 21.1357H172.7L168.095 33.1781L163.705 21.1357Z" fill="white"/>
<path id="Vector_9" d="M188.889 34.0595L187.854 32.6273C186.617 33.5141 185.135 33.9953 183.613 34.0044C180.644 34.0044 178.698 32.1273 178.473 29.1104H189.924C189.969 28.759 189.995 28.4053 190 28.051C190 24.0129 187.392 20.8477 183.32 20.8477C179.385 20.8477 176.268 23.8138 176.268 28.5002C176.268 33.3095 179.537 35.9409 183.52 35.9409C185.476 35.9658 187.377 35.2994 188.889 34.0595ZM178.549 27.3688C178.821 24.7332 180.721 22.7926 183.359 22.7926C186.141 22.7926 187.727 24.9663 187.841 27.3688H178.549Z" fill="white"/>
<path id="Vector_10" d="M24.9929 17.3725L24.9548 17.3301H24.9336L24.9929 17.3725Z" fill="white"/>
<g id="Vector_11">
<path fill-rule="evenodd" clip-rule="evenodd" d="M2.28196 24.3641L10.34 32.2624C10.5598 33.6958 11.2488 35.016 12.2994 36.0166L23.886 47.3302C24.8367 48.2575 26.0357 48.8903 27.3382 49.1522C28.1157 49.7151 29.0543 50.0123 30.0143 49.9997C31.1919 49.9845 32.3214 49.5313 33.1824 48.7285L33.6786 48.2412C34.3 47.6434 34.727 46.8728 34.9043 46.0294C35.04 46.0294 35.1715 46.0294 35.3072 46.0294C35.9399 46.0349 36.5674 45.9157 37.154 45.6787C37.7405 45.4416 38.2745 45.0914 38.7255 44.648C39.5946 43.8063 40.0986 42.6577 40.1293 41.4488C40.2998 41.4659 40.4711 41.4744 40.6425 41.4743C41.9032 41.4738 43.1164 40.9935 44.0353 40.1311C44.8918 39.305 45.3949 38.1798 45.4391 36.9912C46.6344 36.9456 47.7693 36.4543 48.6199 35.6141C49.1942 35.0559 49.6134 34.3582 49.8365 33.5894C50.0595 32.8205 50.0787 32.007 49.8922 31.2285L57.2547 24.0802C57.8872 23.4711 58.3903 22.7408 58.7339 21.9331C59.0776 21.1253 59.2547 20.2566 59.2547 19.3789C59.2547 18.5012 59.0776 17.6325 58.7339 16.8248C58.3903 16.017 57.8872 15.2868 57.2547 14.6777L45.6681 3.38952C45.038 2.76386 44.2901 2.26911 43.4675 1.93383C42.645 1.59856 41.7641 1.4294 40.8757 1.43613C39.0812 1.42796 37.3565 2.13032 36.0791 3.38952L31.1 8.22851L24.9547 2.2285C23.4643 0.798549 21.478 0 19.4117 0C17.3453 0 15.359 0.798549 13.8686 2.2285L2.28196 13.559C1.56257 14.2632 0.991056 15.1038 0.600894 16.0315C0.210732 16.9592 0.00976563 17.9553 0.00976562 18.9616C0.00976563 19.9678 0.210732 20.9639 0.600894 21.8916C0.991056 22.8193 1.56257 23.6599 2.28196 24.3641ZM29.6157 9.648L23.4958 3.65223C22.4026 2.59276 20.9346 2.00791 19.4117 2.02511C17.8902 2.01564 16.425 2.59937 15.3275 3.65223L3.74089 15.0039C3.21605 15.5232 2.79943 16.1413 2.5151 16.8224C2.23077 17.5035 2.08438 18.2342 2.08438 18.9722C2.08438 19.7101 2.23077 20.4408 2.5151 21.1219C2.79943 21.803 3.21605 22.4211 3.74089 22.9404L10.5266 29.559C10.8397 28.4319 11.4472 27.4082 12.2867 26.5929L21.8969 17.2158C18.8688 16.72 15.6541 15.3048 14.6871 14.559L16.023 12.97C16.9476 13.6988 21.0275 15.3471 23.7842 15.3599C24.2134 15.3689 24.6417 15.3176 25.0565 15.2073L25.7648 15.0039L26.1889 15.576L26.2483 15.6565L26.3119 15.737C29.8192 20.0929 36.834 20.2455 38.4795 19.7243C38.5906 19.687 38.6908 19.6231 38.7714 19.5381C38.8519 19.4532 38.9105 19.3498 38.9418 19.237C38.9773 19.1137 38.9762 18.9828 38.9386 18.8601C38.9009 18.7375 38.8283 18.6285 38.7297 18.5463L29.6157 9.648ZM32.559 9.648L40.1929 17.1183C40.531 17.4439 40.7781 17.852 40.9099 18.3023C41.0417 18.7525 41.0536 19.2294 40.9443 19.6856C40.8351 20.1419 40.6085 20.5618 40.2871 20.9037C39.9656 21.2456 39.5604 21.4978 39.1114 21.6353C38.2376 21.9197 37.3194 22.0432 36.4014 21.9997C33.0679 21.9997 28.0253 20.9404 24.9505 17.3387L24.6663 17.3683L13.7413 28.0251C13.3062 28.4487 12.9604 28.9551 12.7243 29.5144C12.4881 30.0736 12.3665 30.6745 12.3665 31.2815C12.3665 31.8885 12.4881 32.4893 12.7243 33.0486C12.9604 33.6079 13.3062 34.1142 13.7413 34.5378L22.4779 43.0844C22.4138 42.4412 22.497 41.7919 22.7211 41.1855C22.9452 40.5792 23.3044 40.0317 23.7715 39.5844L24.2677 39.0929C24.8561 38.5219 25.5893 38.122 26.3882 37.9361C26.2866 37.214 26.3569 36.4781 26.5934 35.7882C26.83 35.0983 27.2261 34.474 27.7496 33.9658C28.5711 33.1767 29.6449 32.7025 30.782 32.6268C30.6561 31.8871 30.7123 31.1279 30.9458 30.4148C31.1793 29.7016 31.5831 29.056 32.1221 28.5336C32.6762 27.9979 33.3494 27.6012 34.0866 27.3758C34.8238 27.1504 35.604 27.1028 36.3632 27.237C36.5606 26.37 37.0021 25.5776 37.6355 24.9531C38.5463 24.0749 39.7626 23.5841 41.0284 23.5841C42.2941 23.5841 43.5105 24.0749 44.4212 24.9531L48.586 29.0251C48.6918 29.1258 48.7923 29.2319 48.8871 29.3429L55.7576 22.6353C56.1928 22.2117 56.5386 21.7053 56.7747 21.146C57.0108 20.5868 57.1325 19.9859 57.1325 19.3789C57.1325 18.7719 57.0108 18.1711 56.7747 17.6118C56.5386 17.0526 56.1928 16.5462 55.7576 16.1226L44.2092 4.79206C43.3131 3.93009 42.1175 3.44854 40.8736 3.44854C39.6297 3.44854 38.4341 3.93009 37.538 4.79206L32.559 9.648ZM28.3179 47.309C28.7659 47.7394 29.3632 47.9798 29.9846 47.9798C30.6061 47.9798 31.2034 47.7394 31.6514 47.309L32.1518 46.8217C32.5425 46.441 32.7833 45.9327 32.8304 45.3895C32.4892 45.1915 32.1767 44.9477 31.9016 44.665L27.7326 40.5972C27.5135 40.378 27.316 40.1382 27.1431 39.8811C26.6141 39.9453 26.1217 40.1838 25.7436 40.559L25.2431 41.0463C25.0255 41.2583 24.8525 41.5117 24.7345 41.7915C24.6164 42.0713 24.5555 42.3719 24.5555 42.6755C24.5555 42.9792 24.6164 43.2798 24.7345 43.5596C24.8525 43.8394 25.0255 44.0928 25.2431 44.3048L28.3179 47.309ZM34.1197 43.7582C34.6257 43.9864 35.1883 44.0591 35.7358 43.967C36.2833 43.875 36.791 43.6223 37.1945 43.2412C37.5293 42.9091 37.7692 42.4935 37.8893 42.0375C38.0094 41.5816 38.0052 41.1018 37.8773 40.648C37.6466 40.4885 37.4321 40.3069 37.2369 40.1056L32.1221 35.1692C31.9872 35.0363 31.8611 34.8948 31.7447 34.7455C31.5403 34.698 31.3311 34.6739 31.1212 34.6734C30.7665 34.6686 30.4144 34.7343 30.0853 34.8667C29.7562 34.9991 29.4567 35.1955 29.2043 35.4446C28.9565 35.6897 28.7599 35.9814 28.6257 36.3028C28.4915 36.6243 28.4224 36.9692 28.4224 37.3175C28.4224 37.6658 28.4915 38.0107 28.6257 38.3321C28.7599 38.6536 28.9565 38.9453 29.2043 39.1904L33.3733 43.2582C33.5946 43.4697 33.8516 43.6404 34.1324 43.7624L34.1197 43.7582ZM39.3532 39.148C39.2467 39.0955 39.1446 39.0345 39.0478 38.9658C38.9253 38.8846 38.8116 38.7909 38.7085 38.6861L33.5811 33.6819C33.3329 33.4375 33.1359 33.1462 33.0014 32.8251C32.867 32.5039 32.7977 32.1593 32.7977 31.8111C32.7977 31.463 32.867 31.1183 33.0014 30.7972C33.1359 30.476 33.3329 30.1848 33.5811 29.9404C33.8333 29.6907 34.1326 29.4936 34.4617 29.3605C34.7908 29.2274 35.143 29.1609 35.498 29.1649C35.7997 29.1653 36.0991 29.2154 36.3844 29.3133C36.587 30.1696 37.0282 30.9511 37.6567 31.5675L41.8257 35.6353C42.2483 36.0639 42.7512 36.4051 43.3058 36.6395C43.333 37.0161 43.2781 37.3942 43.1448 37.7475C43.0115 38.1008 42.8031 38.4211 42.534 38.6861C42.271 38.9426 41.9576 39.1417 41.6137 39.2709C41.2486 39.4065 40.8595 39.4656 40.4706 39.4444C40.0817 39.4233 39.7013 39.3224 39.3532 39.148ZM46.3297 34.7455C46.6249 34.6158 46.8948 34.435 47.1271 34.2116C47.3743 33.9662 47.5705 33.6744 47.7044 33.353C47.8383 33.0315 47.9072 32.6868 47.9072 32.3387C47.9072 31.9905 47.8383 31.6458 47.7044 31.3244C47.5705 31.0029 47.3743 30.7112 47.1271 30.4658L42.9581 26.398C42.4375 25.9114 41.7539 25.6364 41.0411 25.6268C40.6864 25.622 40.3342 25.6877 40.0051 25.8201C39.676 25.9525 39.3766 26.1489 39.1242 26.398C38.8764 26.6431 38.6798 26.9348 38.5455 27.2562C38.4113 27.5777 38.3422 27.9226 38.3422 28.2709C38.3422 28.6192 38.4113 28.9641 38.5455 29.2855C38.6798 29.607 38.8764 29.8987 39.1242 30.1438L43.2931 34.2116C43.3979 34.3128 43.5098 34.4062 43.6282 34.4912C44.0215 34.7553 44.4748 34.9169 44.9466 34.9613C45.4185 35.0057 45.8939 34.9315 46.3297 34.7455Z" fill="#00475D"/>
<path d="M32.559 9.648L40.1929 17.1183C40.531 17.4439 40.7781 17.852 40.9099 18.3023C41.0417 18.7525 41.0536 19.2294 40.9443 19.6856C40.8351 20.1419 40.6085 20.5618 40.2871 20.9037C39.9656 21.2456 39.5604 21.4978 39.1114 21.6353C38.2376 21.9197 37.3194 22.0432 36.4014 21.9997C33.0679 21.9997 28.0253 20.9404 24.9505 17.3387L24.6663 17.3683L13.7413 28.0251C13.3062 28.4487 12.9604 28.9551 12.7243 29.5144C12.4881 30.0736 12.3665 30.6745 12.3665 31.2815C12.3665 31.8885 12.4881 32.4893 12.7243 33.0486C12.9604 33.6079 13.3062 34.1142 13.7413 34.5378L22.4779 43.0844C22.4138 42.4412 22.497 41.7919 22.7211 41.1855C22.9452 40.5792 23.3044 40.0317 23.7715 39.5844L24.2677 39.0929C24.8561 38.5219 25.5893 38.122 26.3882 37.9361C26.2866 37.214 26.3569 36.4781 26.5934 35.7882C26.83 35.0983 27.2261 34.474 27.7496 33.9658C28.5711 33.1767 29.6449 32.7025 30.782 32.6268C30.6561 31.8871 30.7123 31.1279 30.9458 30.4148C31.1793 29.7016 31.5831 29.056 32.1221 28.5336C32.6762 27.9979 33.3494 27.6012 34.0866 27.3758C34.8238 27.1504 35.604 27.1028 36.3632 27.237C36.5606 26.37 37.0021 25.5776 37.6355 24.9531C38.5463 24.0749 39.7626 23.5841 41.0284 23.5841C42.2941 23.5841 43.5105 24.0749 44.4212 24.9531L48.586 29.0251C48.6918 29.1258 48.7923 29.2319 48.8871 29.3429L55.7576 22.6353C56.1928 22.2117 56.5386 21.7053 56.7747 21.146C57.0108 20.5868 57.1325 19.9859 57.1325 19.3789C57.1325 18.7719 57.0108 18.1711 56.7747 17.6118C56.5386 17.0526 56.1928 16.5462 55.7576 16.1226L44.2092 4.79206C43.3131 3.93009 42.1175 3.44854 40.8736 3.44854C39.6297 3.44854 38.4341 3.93009 37.538 4.79206L32.559 9.648Z" fill="#7A66B6"/>
<path d="M29.6157 9.648L23.4958 3.65223C22.4026 2.59276 20.9346 2.00791 19.4117 2.02511C17.8902 2.01564 16.425 2.59937 15.3275 3.65223L3.74089 15.0039C3.21605 15.5232 2.79943 16.1413 2.5151 16.8224C2.23077 17.5035 2.08438 18.2342 2.08438 18.9722C2.08438 19.7101 2.23077 20.4408 2.5151 21.1219C2.79943 21.803 3.21605 22.4211 3.74089 22.9404L10.5266 29.559C10.8397 28.4319 11.4472 27.4082 12.2867 26.5929L21.8969 17.2158C18.8688 16.72 15.6541 15.3048 14.6871 14.559L16.023 12.97C16.9476 13.6988 21.0275 15.3471 23.7842 15.3599C24.2134 15.3689 24.6417 15.3176 25.0565 15.2073L25.7648 15.0039L26.1889 15.576L26.2483 15.6565L26.3119 15.737C29.8192 20.0929 36.834 20.2455 38.4795 19.7243C38.5906 19.687 38.6908 19.6231 38.7714 19.5381C38.8519 19.4532 38.9105 19.3498 38.9418 19.237C38.9773 19.1137 38.9762 18.9828 38.9386 18.8601C38.9009 18.7375 38.8283 18.6285 38.7297 18.5463L29.6157 9.648Z" fill="#F9A056"/>
<path d="M39.3532 39.148C39.2467 39.0955 39.1446 39.0345 39.0478 38.9658C38.9253 38.8846 38.8116 38.7909 38.7085 38.6861L33.5811 33.6819C33.3329 33.4375 33.1359 33.1462 33.0014 32.8251C32.867 32.5039 32.7977 32.1593 32.7977 31.8111C32.7977 31.463 32.867 31.1183 33.0014 30.7972C33.1359 30.476 33.3329 30.1848 33.5811 29.9404C33.8333 29.6907 34.1326 29.4936 34.4617 29.3605C34.7908 29.2274 35.143 29.1609 35.498 29.1649C35.7997 29.1653 36.0991 29.2154 36.3844 29.3133C36.587 30.1696 37.0282 30.9511 37.6567 31.5675L41.8257 35.6353C42.2483 36.0639 42.7512 36.4051 43.3058 36.6395C43.333 37.0161 43.2781 37.3942 43.1448 37.7475C43.0115 38.1008 42.8031 38.4211 42.534 38.6861C42.271 38.9426 41.9576 39.1417 41.6137 39.2709C41.2486 39.4065 40.8595 39.4656 40.4706 39.4444C40.0817 39.4233 39.7013 39.3224 39.3532 39.148Z" fill="#F9A056"/>
<path d="M46.3297 34.7455C46.6249 34.6158 46.8948 34.435 47.1271 34.2116C47.3743 33.9662 47.5705 33.6744 47.7044 33.353C47.8383 33.0315 47.9072 32.6868 47.9072 32.3387C47.9072 31.9905 47.8383 31.6458 47.7044 31.3244C47.5705 31.0029 47.3743 30.7112 47.1271 30.4658L42.9581 26.398C42.4375 25.9114 41.7539 25.6364 41.0411 25.6268C40.6864 25.622 40.3342 25.6877 40.0051 25.8201C39.676 25.9525 39.3766 26.1489 39.1242 26.398C38.8764 26.6431 38.6798 26.9348 38.5455 27.2562C38.4113 27.5777 38.3422 27.9226 38.3422 28.2709C38.3422 28.6192 38.4113 28.9641 38.5455 29.2855C38.6798 29.607 38.8764 29.8987 39.1242 30.1438L43.2931 34.2116C43.3979 34.3128 43.5098 34.4062 43.6282 34.4912C44.0215 34.7553 44.4748 34.9169 44.9466 34.9613C45.4185 35.0057 45.8939 34.9315 46.3297 34.7455Z" fill="#F9A056"/>
<path d="M34.1197 43.7582C34.6257 43.9864 35.1883 44.0591 35.7358 43.967C36.2833 43.875 36.791 43.6223 37.1945 43.2412C37.5293 42.9091 37.7692 42.4935 37.8893 42.0375C38.0094 41.5816 38.0052 41.1018 37.8773 40.648C37.6466 40.4885 37.4321 40.3069 37.2369 40.1056L32.1221 35.1692C31.9872 35.0363 31.8611 34.8948 31.7447 34.7455C31.5403 34.698 31.3311 34.6739 31.1212 34.6734C30.7665 34.6686 30.4144 34.7343 30.0853 34.8667C29.7562 34.9991 29.4567 35.1955 29.2043 35.4446C28.9565 35.6897 28.7599 35.9814 28.6257 36.3028C28.4915 36.6243 28.4224 36.9692 28.4224 37.3175C28.4224 37.6658 28.4915 38.0107 28.6257 38.3321C28.7599 38.6536 28.9565 38.9453 29.2043 39.1904L33.3733 43.2582C33.5946 43.4697 33.8516 43.6404 34.1324 43.7624L34.1197 43.7582Z" fill="#F9A056"/>
<path d="M28.3179 47.309C28.7659 47.7394 29.3632 47.9798 29.9846 47.9798C30.6061 47.9798 31.2034 47.7394 31.6514 47.309L32.1518 46.8217C32.5425 46.441 32.7833 45.9327 32.8304 45.3895C32.4892 45.1915 32.1767 44.9477 31.9016 44.665L27.7326 40.5972C27.5135 40.378 27.316 40.1382 27.1431 39.8811C26.6141 39.9453 26.1217 40.1838 25.7436 40.559L25.2431 41.0463C25.0255 41.2583 24.8525 41.5117 24.7345 41.7915C24.6164 42.0713 24.5555 42.3719 24.5555 42.6755C24.5555 42.9792 24.6164 43.2798 24.7345 43.5596C24.8525 43.8394 25.0255 44.0928 25.2431 44.3048L28.3179 47.309Z" fill="#F9A056"/>
</g>
<path id="Vector_12" d="M47.3346 15.1274C47.5391 15.3147 47.8078 15.4164 48.0853 15.4113C48.3474 15.4028 48.5982 15.3023 48.7935 15.1274C48.8917 15.0365 48.97 14.9264 49.0235 14.8039C49.0771 14.6814 49.1047 14.5492 49.1047 14.4155C49.1047 14.2818 49.0771 14.1496 49.0235 14.0271C48.97 13.9046 48.8917 13.7945 48.7935 13.7036L44.2089 9.22483C44.1138 9.12798 44.0003 9.05104 43.875 8.99852C43.7498 8.946 43.6153 8.91895 43.4794 8.91895C43.3436 8.91895 43.2091 8.946 43.0839 8.99852C42.9586 9.05104 42.8451 9.12798 42.75 9.22483C42.6517 9.31605 42.5733 9.42653 42.5197 9.54938C42.4661 9.67223 42.4385 9.8048 42.4385 9.93882C42.4385 10.0728 42.4661 10.2054 42.5197 10.3283C42.5733 10.4511 42.6517 10.5616 42.75 10.6528L47.3346 15.1274Z" fill="white"/>
<path id="Vector_13" d="M50.9984 16.225C51.0035 16.4324 50.9465 16.6365 50.8348 16.8114C50.7231 16.9862 50.5617 17.1237 50.3713 17.2064C50.1809 17.2891 49.9702 17.3132 49.766 17.2755C49.5619 17.2379 49.3736 17.1402 49.2253 16.9951C49.077 16.8499 48.9754 16.6639 48.9336 16.4607C48.8917 16.2576 48.9114 16.0466 48.9902 15.8547C49.069 15.6628 49.2034 15.4988 49.376 15.3836C49.5486 15.2684 49.7517 15.2073 49.9593 15.2081C50.0945 15.2064 50.2286 15.2314 50.3541 15.2817C50.4795 15.3319 50.5938 15.4064 50.6903 15.5009C50.7869 15.5954 50.8638 15.708 50.9166 15.8323C50.9695 15.9565 50.9973 16.09 50.9984 16.225Z" fill="white"/>
</g>
<defs>
<clipPath id="clip0_3713_7109">
<rect width="190" height="60" fill="white"/>
</clipPath>
</defs>
</svg>
