<svg width="132" height="60" viewBox="0 0 132 60" fill="none" xmlns="http://www.w3.org/2000/svg">
<path d="M23.5981 17.8239C23.3479 18.8281 22.8476 19.6649 22.0971 20.167C21.3467 20.6691 20.4294 20.9201 19.3454 20.9201C17.9278 20.9201 16.7604 20.418 15.8432 19.3302C14.926 18.326 14.509 17.0708 14.509 15.5645C14.509 13.9745 14.926 12.6356 15.8432 11.6314C16.7604 10.6272 17.9278 10.1252 19.3454 10.1252C21.5134 10.1252 22.931 11.0456 23.5981 12.8867H28.5179C28.2677 11.3804 27.7674 10.0415 26.9335 8.95361H11.5905C11.0902 9.53939 10.6733 10.2925 10.3397 11.1293C9.75602 12.4683 9.50586 13.8908 9.50586 15.4808C9.50586 17.0708 9.75602 18.4934 10.3397 19.7486C10.9234 21.0038 11.6739 22.0917 12.5912 22.8448C13.5084 23.6816 14.5924 24.2674 15.7598 24.6858C16.9272 25.1042 18.178 25.3553 19.4288 25.3553C20.9297 25.3553 22.2639 25.1042 23.5147 24.6021C24.7655 24.1 25.8495 23.2632 26.8501 22.008C27.8508 20.8365 28.4345 19.3302 28.6846 17.5728H23.5981V17.8239Z" fill="white"/>
<path d="M23.2651 28.8703C22.0143 28.3682 20.6801 28.1172 19.2625 28.1172C18.0118 28.1172 16.761 28.3682 15.5936 28.703C14.4262 29.1214 13.3421 29.7071 12.4249 30.544C12.1747 30.7113 12.008 30.9624 11.7578 31.1297H26.5171C25.5999 30.1256 24.5159 29.3724 23.2651 28.8703Z" fill="white"/>
<path d="M123.411 0H67.2925H8.58876C3.83576 0 0 3.93305 0 8.78661V31.7155C0 36.569 3.83576 40.5021 8.58876 40.5021H123.411C128.164 40.5021 132 36.569 132 31.7155V8.78661C132 3.84937 128.164 0 123.411 0ZM79.4668 3.84938V7.61506H84.5534V3.84938H96.8111V36.4017H66.542V3.84938H67.2925H79.4668ZM65.3746 36.4853H35.1055V3.93306H65.3746V36.4853ZM3.83576 31.6318V8.70292C3.83576 6.0251 6.00379 3.84938 8.58876 3.84938H34.0215V36.4017H8.58876C5.92041 36.4853 3.83576 34.3096 3.83576 31.6318ZM128.164 31.6318C128.164 34.3096 125.996 36.4853 123.411 36.4853H97.8951V3.93306H123.411C126.08 3.93306 128.164 6.10878 128.164 8.78661V31.6318Z" fill="white"/>
<path d="M57.5361 29.3722V25.1044H47.8633V21.5061H55.3681V17.4057H47.8633V14.8115H57.286V10.6274H43.1104V29.3722H57.5361Z" fill="white"/>
<path d="M85.2201 18.6609V29.3722H89.9731V10.6274H85.8038L78.1323 21.1714V10.6274H73.2959V29.3722H77.3818L85.2201 18.6609Z" fill="white"/>
<path d="M115.49 11.4647V9.79102H110.653V11.4647C107.902 11.5483 105.734 12.4688 104.149 14.1425C102.565 15.7324 101.814 17.6571 101.814 19.8329C101.814 22.0086 102.565 23.8496 104.149 25.5232C105.734 27.1132 107.902 28.0337 110.653 28.1174V30.2094H115.49V28.1174C118.241 28.0337 120.41 27.1132 121.994 25.5232C123.578 23.9333 124.329 22.0086 124.329 19.8329C124.329 17.6571 123.578 15.7324 121.994 14.1425C120.41 12.4688 118.241 11.632 115.49 11.4647ZM110.653 23.7659C109.486 23.6822 108.485 23.3475 107.818 22.5943C107.068 21.9249 106.734 20.9207 106.734 19.7492C106.734 18.4939 107.068 17.5734 107.818 16.8203C108.569 16.0672 109.486 15.7324 110.653 15.7324V23.7659ZM118.325 22.678C117.658 23.3475 116.657 23.7659 115.49 23.8496V15.8161C116.657 15.8161 117.658 16.2345 118.325 16.904C119.075 17.6571 119.409 18.5776 119.409 19.8329C119.409 21.0044 118.992 21.9249 118.325 22.678Z" fill="white"/>
<path d="M9.25659 58.4097H7.58887L10.9243 50.46H12.5086L15.8441 58.4097H14.093L13.3425 56.5687H10.0071L9.25659 58.4097ZM11.6748 52.4683L10.5074 55.2298H12.8422L11.6748 52.4683Z" fill="white"/>
<path d="M23.4318 58.4101H19.5127V50.5439H23.1817C23.9322 50.5439 24.5159 50.7113 24.9328 51.046C25.3497 51.3808 25.5999 51.8829 25.5999 52.4686C25.5999 52.8871 25.5165 53.1381 25.3497 53.4728C25.1829 53.7239 24.9328 53.9749 24.6826 54.0586C25.0996 54.1423 25.5165 54.3933 25.7666 54.728C26.1002 55.0628 26.267 55.5649 26.267 56.1506C26.267 56.8201 26.0168 57.3222 25.5165 57.7406C24.9328 58.159 24.2657 58.4101 23.4318 58.4101ZM21.097 51.8829V53.6402H22.9315C23.2651 53.6402 23.5152 53.5565 23.682 53.3892C23.8488 53.2218 23.9322 53.0544 23.9322 52.7197C23.9322 52.4686 23.8488 52.2176 23.682 52.0502C23.5152 51.8829 23.2651 51.7992 22.9315 51.7992H21.097V51.8829ZM21.097 54.8954V56.9875H23.0983C23.5152 56.9875 23.8488 56.9038 24.0155 56.7364C24.2657 56.5691 24.3491 56.318 24.3491 55.9833C24.3491 55.6485 24.2657 55.3975 24.0155 55.2301C23.7654 55.0628 23.5152 54.9791 23.0983 54.9791H21.097V54.8954Z" fill="white"/>
<path d="M29.2686 51.9665V50.5439H35.856V51.9665H33.3545V58.4101H31.7701V51.9665H29.2686Z" fill="white"/>
<path d="M38.7744 54.4769C38.7744 53.3053 39.1913 52.3848 39.9418 51.548C40.6923 50.7112 41.6929 50.3765 42.8603 50.3765C44.0277 50.3765 45.0284 50.7949 45.7788 51.548C46.5293 52.3848 46.9462 53.3053 46.9462 54.4769C46.9462 55.6484 46.5293 56.5689 45.7788 57.4057C45.0284 58.2426 44.0277 58.5773 42.8603 58.5773C41.6929 58.5773 40.6923 58.1589 39.9418 57.4057C39.1913 56.5689 38.7744 55.5647 38.7744 54.4769ZM41.1092 56.3179C41.6095 56.82 42.1932 57.071 42.8603 57.071C43.5274 57.071 44.1111 56.82 44.6114 56.3179C45.1117 55.8158 45.2785 55.23 45.2785 54.4769C45.2785 53.7237 45.0284 53.138 44.6114 52.6359C44.1111 52.1338 43.6108 51.8827 42.8603 51.8827C42.1932 51.8827 41.6095 52.1338 41.1092 52.6359C40.6923 53.138 40.4421 53.7237 40.4421 54.4769C40.4421 55.23 40.6923 55.8158 41.1092 56.3179Z" fill="white"/>
<path d="M50.0322 58.3261V56.8198C50.199 56.9035 50.3658 56.9035 50.6159 56.9035C51.0329 56.9035 51.283 56.6524 51.4498 56.0666C51.6166 55.4809 51.6999 54.393 51.6999 52.803V50.46H57.2034V58.3261H55.6191V51.9662H53.2009L53.1175 53.5562C53.0341 55.3972 52.8673 56.6524 52.4504 57.4056C52.1169 58.075 51.4498 58.4934 50.5325 58.4934C50.3658 58.4097 50.199 58.4097 50.0322 58.3261Z" fill="white"/>
<path d="M61.3721 54.4769C61.3721 53.3053 61.789 52.3848 62.5395 51.548C63.2899 50.7112 64.2906 50.3765 65.458 50.3765C66.6254 50.3765 67.626 50.7949 68.3765 51.548C69.127 52.3848 69.5439 53.3053 69.5439 54.4769C69.5439 55.6484 69.127 56.5689 68.3765 57.4057C67.626 58.2426 66.6254 58.5773 65.458 58.5773C64.2906 58.5773 63.2899 58.1589 62.5395 57.4057C61.789 56.5689 61.3721 55.5647 61.3721 54.4769ZM63.7069 56.3179C64.2072 56.82 64.7909 57.071 65.458 57.071C66.1251 57.071 66.7088 56.82 67.2091 56.3179C67.7094 55.8158 67.8762 55.23 67.8762 54.4769C67.8762 53.7237 67.626 53.138 67.2091 52.6359C66.7088 52.1338 66.2085 51.8827 65.458 51.8827C64.7909 51.8827 64.2072 52.1338 63.7069 52.6359C63.2899 53.138 63.0398 53.7237 63.0398 54.4769C63.0398 55.23 63.2066 55.8158 63.7069 56.3179Z" fill="white"/>
<path d="M75.2142 58.4101H73.6299V50.5439H75.2142L77.4656 53.8076L79.7171 50.5439H81.3014V58.4101H79.7171V53.0544L77.8826 55.5649H76.9653L75.1308 53.0544V58.4101H75.2142Z" fill="white"/>
<path d="M89.0575 58.4101H85.6387V50.5439H91.3089V51.9665H87.223V53.2218H88.9741C89.8914 53.2218 90.6418 53.4728 91.1421 53.9749C91.6424 54.477 91.976 55.0628 91.976 55.8159C91.976 56.5691 91.7258 57.2385 91.1421 57.6569C90.7252 58.159 89.9747 58.4101 89.0575 58.4101ZM87.3064 54.5607V56.9875H88.9741C89.4744 56.9875 89.808 56.9038 90.0581 56.6527C90.3083 56.4017 90.475 56.1507 90.475 55.8159C90.475 55.3975 90.3083 55.1465 90.0581 54.8954C89.808 54.6444 89.4744 54.5607 88.9741 54.5607H87.3064Z" fill="white"/>
<path d="M97.0623 58.4097H95.3945L98.73 50.46H100.314L103.65 58.4097H101.899L101.148 56.5687H97.8127L97.0623 58.4097ZM99.4804 52.4683L98.313 55.2298H100.648L99.4804 52.4683Z" fill="white"/>
<path d="M108.903 58.4101H107.318V50.5439H110.737C111.571 50.5439 112.238 50.795 112.738 51.2134C113.239 51.6318 113.489 52.2176 113.489 52.8871C113.489 53.6402 113.239 54.1423 112.738 54.6444C112.238 55.0628 111.571 55.3138 110.737 55.3138H108.903V58.4101ZM108.903 51.8829V53.8076H110.57C110.987 53.8076 111.237 53.7239 111.488 53.5565C111.738 53.3891 111.821 53.1381 111.821 52.8034C111.821 52.4686 111.738 52.2176 111.488 52.0502C111.237 51.8829 110.987 51.7992 110.57 51.7992H108.903V51.8829Z" fill="white"/>
<path d="M117.574 59.9997H116.073V56.9035H116.824C117.157 56.4014 117.407 55.6482 117.574 54.8951C117.741 54.142 117.824 53.0541 117.824 51.7152V50.46H123.328V56.9035H124.412V59.9997H122.911V58.4097H117.574V59.9997ZM118.575 56.9035H121.743V51.9662H119.409C119.409 53.0541 119.325 53.9746 119.242 54.8114C119.159 55.5645 118.908 56.234 118.575 56.9035Z" fill="white"/>
</svg>
