<svg width="300" height="300" viewBox="0 0 300 300" fill="none" xmlns="http://www.w3.org/2000/svg">
<path fill-rule="evenodd" clip-rule="evenodd" d="M42.1288 40.7132L42.258 43.4264L147.526 43.5358L252.794 43.6451L252.904 149.024L253.013 254.403L255.507 254.533L258 254.664V146.332V38H150H42L42.1288 40.7132ZM211.816 58.8624C200.016 59.8621 192.126 67.0041 188.934 79.5754C188.086 82.9155 187.974 84.4444 187.995 92.4806C188.017 100.92 188.103 101.911 189.158 105.825C192.72 119.036 201.318 125.679 214.852 125.673C216.998 125.673 219.985 125.414 221.49 125.098L224.225 124.524L225.826 126.388C228.174 129.12 232.456 132.404 235.676 133.942L238.498 135.291L239.758 134.392C242.591 132.373 245.412 127.675 245.42 124.961C245.424 123.664 245.284 123.54 243.081 122.899C241.792 122.524 240.59 122.217 240.41 122.217C240.23 122.217 238.66 121.504 236.921 120.632L233.76 119.047L235.29 117.268C243.172 108.099 244.637 85.3139 238.206 71.9134C236.205 67.7429 232.091 63.4952 228.168 61.546C223.728 59.3403 217.751 58.3593 211.816 58.8624ZM148.286 92.2588V124.822H166.057H183.829L184.101 123.737C184.72 121.268 185.272 121.349 167.814 121.349H151.755L151.755 107.349V93.3488L164.959 93.4695C177.923 93.588 178.173 93.5737 178.644 92.6933C178.907 92.2002 179.002 91.4131 178.853 90.9447C178.593 90.1225 178.116 90.093 165.169 90.093H151.755V76.6409V63.1891L167.475 63.075L183.195 62.9612V61.4419V59.9225L165.74 59.8092L148.286 59.6954V92.2588ZM219.622 71.1967C222.246 72.2907 224.147 75.0004 225.467 79.5333C226.307 82.4119 226.765 92.0009 226.345 97.8831C225.531 109.286 222.252 113.976 215.1 113.966C209.347 113.959 206.262 111.201 204.394 104.393C203.302 100.414 203.268 84.213 204.343 80.2236C205.362 76.4468 206.992 73.415 208.633 72.2447C211.48 70.2161 216.191 69.7668 219.622 71.1967ZM110.767 172.654C110.646 172.97 110.598 180.163 110.661 188.638L110.775 204.047H111.859C112.709 204.047 112.972 203.798 113.076 202.896L113.209 201.746L114.328 202.784C116.347 204.657 119.834 205.183 122.59 204.03C126.073 202.573 127.431 200.146 127.768 194.778C128.358 185.377 125.266 180.784 118.745 181.376C116.876 181.546 115.754 181.924 114.675 182.748L113.185 183.885L113.064 178.121C112.947 172.512 112.917 172.353 111.966 172.218C111.428 172.141 110.889 172.337 110.767 172.654ZM134.184 172.654C134.063 172.97 134.015 180.163 134.078 188.638L134.192 204.047H135.276H136.361V188.202V172.357L135.383 172.218C134.845 172.141 134.306 172.337 134.184 172.654ZM43.7758 188.843V204.264H52.2064C57.409 204.264 60.7407 204.096 60.9077 203.826C61.056 203.585 61.0547 202.999 60.9038 202.523C60.6444 201.706 60.2381 201.659 53.3955 201.659L46.1609 201.66V195.907V190.155L52.232 189.938L58.3032 189.721V188.636V187.55L52.232 187.333L46.1609 187.116V181.69V176.264L53.3162 176.047L60.4714 175.829V174.744V173.659L52.1236 173.541L43.7758 173.423V188.843ZM143.371 174.166C143.212 174.324 143.082 175.008 143.082 175.685C143.082 176.831 143.201 176.915 144.817 176.915C146.441 176.915 146.551 176.835 146.551 175.659C146.551 174.4 145.925 173.876 144.42 173.876C144.002 173.876 143.53 174.006 143.371 174.166ZM72.3969 181.948C71.5621 182.31 70.3426 183.12 69.6865 183.748L68.494 184.891V183.29C68.494 181.87 68.3713 181.69 67.4025 181.69H66.311L66.4268 192.868L66.5425 204.047L67.5183 204.185L68.494 204.324V196.458C68.494 187.668 68.677 186.929 71.3578 184.882C72.6106 183.925 73.3947 183.683 75.298 183.666C77.3778 183.646 77.8049 183.795 78.7217 184.862C79.7551 186.064 79.7689 186.196 79.7689 194.968C79.7689 202.797 79.8535 203.889 80.4784 204.129C80.8687 204.279 81.5027 204.202 81.8878 203.958C82.4944 203.573 82.5877 202.336 82.5877 194.664C82.5877 186.223 82.5421 185.741 81.605 184.232C79.8761 181.449 75.8505 180.451 72.3969 181.948ZM91.9424 181.703C89.7052 182.171 89.1653 182.596 89.3939 183.706C89.5751 184.589 89.6775 184.593 93.3661 183.866C98.6289 182.829 100.833 184.131 101.295 188.553L101.575 191.24L97.0682 191.241C90.4923 191.242 88.1111 192.751 87.6848 197.189C87.3154 201.042 89.3626 203.82 93.092 204.525C95.1562 204.916 98.6558 203.925 100.151 202.527C101.438 201.323 101.452 201.321 101.452 202.3C101.452 203.511 102.496 204.455 103.436 204.094C104.049 203.859 104.112 202.793 103.97 195.037C103.793 185.369 103.459 183.84 101.2 182.358C99.7573 181.412 94.9537 181.072 91.9424 181.703ZM158.91 182.065C157.956 182.499 156.883 183.209 156.525 183.643C155.913 184.385 155.862 184.357 155.654 183.169C155.468 182.107 155.228 181.907 154.136 181.907H152.839L152.724 192.858L152.608 203.809L153.675 204.077C154.261 204.225 154.948 204.218 155.2 204.062C155.496 203.879 155.658 200.844 155.658 195.488V187.199L157.381 185.558C160.095 182.974 163.727 182.802 165.849 185.158C166.647 186.044 166.728 186.847 166.863 195.217C167.008 204.254 167.015 204.313 167.947 204.18C168.871 204.049 168.886 203.909 168.996 194.713C169.097 186.208 169.035 185.261 168.288 184.043C166.663 181.39 162.377 180.486 158.91 182.065ZM178.76 182.137C174.447 184.34 173.56 190.179 176.95 194.045C178.157 195.421 178.21 195.613 177.634 196.535C176.687 198.053 176.422 199.732 176.923 201.049C177.317 202.088 177.214 202.401 176.095 203.575C174.337 205.418 173.61 208.016 174.282 210.054C175.35 213.294 178.91 214.957 183.894 214.545C189.414 214.09 192.952 211.319 192.952 207.452C192.952 203.897 190.235 202.134 183.671 201.431C181.964 201.247 180.393 200.809 179.84 200.361C178.981 199.664 178.947 199.459 179.427 197.856L179.949 196.11L183.176 195.947C186.608 195.773 187.934 195.142 189.625 192.874C190.79 191.313 191.055 187.954 190.179 185.857C189.796 184.939 189.483 184.126 189.483 184.049C189.483 183.973 190.313 183.85 191.326 183.777C192.967 183.658 193.169 183.524 193.169 182.558C193.169 181.667 192.975 181.488 192.085 181.56C189.194 181.792 186.392 181.772 183.629 181.5C181.008 181.241 180.343 181.328 178.76 182.137ZM143.617 192.868L143.733 204.047H144.817H145.901L146.017 192.868L146.132 181.69H144.817H143.501L143.617 192.868ZM122.583 184.538C124.521 185.807 125.07 187.616 125.078 192.76C125.09 200.174 123.479 202.409 118.427 201.99C116.354 201.818 115.865 201.593 114.815 200.334C113.288 198.503 113.04 197.16 113.227 191.74C113.396 186.857 113.978 185.573 116.66 184.166C118.327 183.291 120.93 183.455 122.583 184.538ZM186.444 184.509C187.825 185.759 188.418 188.305 187.806 190.349C187.068 192.818 185.558 193.845 182.669 193.845C180.639 193.845 180.133 193.668 179.042 192.576C176.835 190.367 177.321 185.509 179.894 184.052C181.427 183.185 185.279 183.453 186.444 184.509ZM101.315 195.591C100.972 198.486 100.238 199.902 98.4602 201.1C96.8241 202.203 93.9828 202.426 92.161 201.595C89.8756 200.552 89.6298 195.982 91.769 194.298C92.733 193.539 93.5214 193.411 97.2339 193.411H101.573L101.315 195.591ZM186.378 204.316C187.651 204.568 189.066 205.149 189.522 205.605C190.604 206.688 190.576 208.634 189.459 210.056C188.522 211.248 185.117 212.512 182.842 212.512C180.712 212.512 178.161 211.541 177.455 210.462C176.467 208.954 176.615 206.327 177.78 204.69C178.757 203.317 178.806 203.302 181.416 203.577C182.871 203.73 185.104 204.063 186.378 204.316ZM119.773 221.477C118.875 221.671 118.798 221.928 118.798 224.715V227.742L122.158 227.615L125.519 227.488L125.651 224.929C125.724 223.521 125.611 222.197 125.401 221.987C124.941 221.526 121.137 221.181 119.773 221.477ZM170.727 221.939L169.535 222.12V237.672C169.535 255.148 169.234 253.752 173.004 253.752C176.774 253.752 176.473 255.145 176.473 237.7V222.176L174.847 221.907C173.168 221.629 172.751 221.632 170.727 221.939ZM51.5603 223.06C45.3461 224.823 42.3721 229.836 42.4059 238.491C42.4475 249.257 47.1852 254.604 56.2047 254.064L59.7433 253.853L61.3422 255.492C62.2216 256.393 63.706 257.476 64.6405 257.898C66.3279 258.66 66.3474 258.658 67.4727 257.619C68.5252 256.648 69.7949 254.322 69.7949 253.366C69.7949 253.139 69.1614 252.813 68.3873 252.643C67.6132 252.473 66.3465 252.032 65.5725 251.662C64.3218 251.065 64.2347 250.913 64.7915 250.297C65.1362 249.916 65.9636 248.438 66.6306 247.012C67.7733 244.568 67.8426 244.08 67.8318 238.558C67.8192 232.134 67.2416 229.853 64.8257 226.682C62.3886 223.484 56.111 221.77 51.5603 223.06ZM133.217 227.05C131.959 227.597 131.807 227.853 131.807 229.421C131.807 231.128 131.765 231.178 130.344 231.178C129.064 231.178 128.847 231.342 128.62 232.481C128.477 233.197 128.477 234.369 128.62 235.085C128.845 236.213 129.07 236.388 130.296 236.388H131.713L131.871 242.791C132.056 250.298 132.536 251.602 135.704 253.209C137.776 254.261 141.287 254.518 143.271 253.763C144.205 253.407 144.383 253.066 144.383 251.628C144.383 248.916 144.092 248.543 141.976 248.543C139.122 248.543 138.746 247.726 138.746 241.523V236.433L141.022 236.302L143.299 236.171V233.783V231.395L141.022 231.264L138.746 231.133V228.768V226.403L136.686 226.42C135.553 226.43 133.992 226.713 133.217 227.05ZM58.3704 229.505C59.8734 230.919 60.4233 233.403 60.4224 238.775C60.422 242.698 60.2589 243.913 59.5078 245.584C58.7429 247.286 58.3144 247.701 56.8782 248.132C54.1327 248.955 52.1579 248.092 51.0052 245.563C50.2433 243.892 50.0854 242.702 50.0755 238.558C50.0612 232.452 50.8886 229.716 53.043 228.744C54.7919 227.955 57.0685 228.281 58.3704 229.505ZM75.2156 231.523C72.6891 232.386 72.2511 233.506 73.5187 235.863C74.2629 237.247 74.3652 237.291 76.056 236.955C78.4788 236.474 81.8114 236.52 82.3214 237.041C82.5534 237.279 82.87 237.988 83.0252 238.617L83.3075 239.761L80.1289 239.741C76.2551 239.716 74.2351 240.337 72.5903 242.056C71.51 243.184 71.3197 243.76 71.1948 246.278C70.9615 250.975 72.9012 253.622 76.906 254.074C79.1735 254.33 82.5322 253.274 83.223 252.089C83.4554 251.69 83.6514 251.594 83.6588 251.876C83.6987 253.428 86.455 254.215 89.2386 253.468L90.2521 253.197L90.1059 244.467C89.9684 236.26 89.9004 235.641 88.9676 234.139C87.4866 231.755 85.0382 230.74 80.8244 230.763C78.7659 230.775 76.5131 231.08 75.2156 231.523ZM103.62 231.052C103.262 231.184 102.628 231.589 102.21 231.953C101.527 232.549 101.452 232.544 101.452 231.897C101.452 231.288 100.921 231.178 97.9823 231.178H94.5131V246.589V262H97.9823H101.452V257.272V252.543L103.061 253.365C106.523 255.132 111.244 253.756 113.047 250.456C115.181 246.548 115.201 238.398 113.085 234.56C111.606 231.878 109.678 230.736 106.7 230.778C105.364 230.797 103.978 230.92 103.62 231.052ZM150.237 231.523C147.707 232.387 147.273 233.506 148.547 235.875C149.241 237.166 149.478 237.299 150.651 237.058C155.61 236.042 157.491 236.465 157.917 238.691C158.116 239.735 158.082 239.746 154.764 239.746C148.924 239.746 146.111 242.031 146.125 246.762C146.138 251.218 148.835 254.196 152.839 254.176C154.845 254.166 158.254 252.756 158.273 251.928C158.28 251.618 158.508 251.755 158.778 252.233C159.506 253.518 160.006 253.738 162.218 253.745C163.469 253.749 164.426 253.51 164.759 253.108C165.153 252.633 165.25 250.335 165.128 244.317C164.934 234.661 164.537 233.349 161.312 231.721C158.874 230.491 153.539 230.395 150.237 231.523ZM118.798 242.183C118.798 251.851 118.883 253.258 119.484 253.488C120.362 253.826 123.491 253.819 124.768 253.476L125.751 253.213L125.635 242.304L125.519 231.395L122.158 231.269L118.798 231.142V242.183ZM106.575 237.62C107.117 238.449 107.306 239.7 107.306 242.465C107.306 246.852 106.547 248.547 104.586 248.536C102.175 248.522 101.452 247.134 101.452 242.522C101.452 238.503 101.919 236.942 103.272 236.441C104.637 235.935 105.727 236.325 106.575 237.62ZM83.2382 245.084C83.2382 246.781 82.0296 248.937 80.922 249.215C79.1497 249.66 78.0343 248.758 78.0343 246.878C78.0343 244.728 78.6479 244.202 81.1566 244.202C82.9602 244.202 83.2382 244.32 83.2382 245.084ZM157.815 246.227C157.38 249.1 155.351 250.345 153.737 248.729C152.933 247.923 152.834 245.466 153.577 244.722C153.863 244.436 155.003 244.202 156.11 244.202H158.123L157.815 246.227Z" fill="white"/>
</svg>
