<svg width="300" height="300" viewBox="0 0 300 300" fill="none" xmlns="http://www.w3.org/2000/svg">
<path fill-rule="evenodd" clip-rule="evenodd" d="M189.667 113.039C188.067 113.13 186.102 113.357 184.778 113.604C181.391 114.236 178.567 115.186 175.89 116.593C175.412 116.844 174.938 117.107 174.835 117.178C174.732 117.248 174.331 117.514 173.944 117.768C171.729 119.223 169.819 121.159 168.449 123.341C168.067 123.948 167.234 125.602 167.05 126.118C166.988 126.292 166.874 126.609 166.797 126.821C165.442 130.551 165.426 136.104 166.759 139.694C167.124 140.675 167.222 140.901 167.624 141.674C169.08 144.474 171.294 146.784 174.507 148.851C175.498 149.489 176.177 149.87 177.428 150.49C178.027 150.786 178.596 151.071 178.693 151.123C178.789 151.175 179.185 151.35 179.572 151.513C182.65 152.809 184.641 153.497 190.511 155.288C190.84 155.388 191.283 155.527 191.496 155.596C191.708 155.664 192.436 155.886 193.113 156.089C196.03 156.961 199.067 158.023 200.605 158.709C201.814 159.248 202.126 159.403 202.96 159.874C205.973 161.576 207.551 163.481 207.922 165.863C208.451 169.262 206.802 171.624 202.789 173.214C198.978 174.724 192.238 175.286 187.134 174.52C183.028 173.904 177.545 172.453 173.241 170.842C172.622 170.611 171.951 170.363 171.75 170.293L171.385 170.164L170.88 171.056C170.602 171.546 170.32 172.043 170.252 172.159C169.975 172.63 168.775 174.705 168.033 175.992C166.781 178.168 166.026 179.474 165.445 180.471C165.148 180.981 164.905 181.413 164.905 181.431C164.905 181.45 165.214 181.582 165.591 181.726C165.968 181.869 166.467 182.058 166.699 182.147C166.931 182.235 167.327 182.387 167.578 182.484C167.83 182.582 168.415 182.791 168.88 182.95C169.344 183.108 169.866 183.289 170.04 183.351C170.214 183.413 170.499 183.506 170.673 183.558C170.848 183.61 171.496 183.813 172.115 184.01C172.735 184.206 173.637 184.478 174.12 184.613C174.604 184.749 175.221 184.922 175.492 184.997C176.182 185.191 178.412 185.741 179.044 185.875C182.009 186.5 184.622 186.947 186.255 187.108C186.68 187.15 187.219 187.213 187.451 187.248C187.683 187.282 188.981 187.365 190.335 187.432C192.66 187.547 192.942 187.547 195.4 187.435C199.143 187.263 201.834 186.901 204.673 186.187C207.6 185.451 210.449 184.242 212.564 182.838C213.424 182.267 213.431 182.262 214.182 181.65C217.891 178.625 220.062 174.347 220.587 169.023C220.738 167.495 220.738 165.343 220.588 163.999C220.081 159.471 218.09 155.77 214.526 152.733C212.552 151.05 209.274 149.122 206.409 147.957C205.435 147.561 204.788 147.304 204.333 147.133C204.063 147.031 203.635 146.87 203.384 146.775C202.036 146.266 198.841 145.247 195.646 144.307C190.684 142.848 188.927 142.292 186.993 141.571C182.438 139.874 179.951 138.151 178.849 135.931C178.519 135.266 178.454 135.068 178.309 134.288C177.966 132.435 178.526 130.505 179.811 129.108C180.373 128.496 180.776 128.174 181.753 127.557C182.143 127.31 183.295 126.77 183.971 126.518C187.757 125.105 193.9 124.604 198.425 125.34C202.006 125.923 206.258 127.252 210.383 129.077C210.925 129.317 211.443 129.517 211.534 129.521C211.678 129.529 211.803 129.35 212.489 128.158C212.923 127.403 213.589 126.248 213.969 125.59C214.35 124.933 215.025 123.761 215.469 122.988C215.913 122.214 216.328 121.495 216.39 121.391C216.655 120.948 217.529 119.395 217.543 119.343C217.551 119.312 217.384 119.193 217.171 119.081C216.64 118.799 214.161 117.606 214.106 117.606C214.082 117.606 213.709 117.452 213.278 117.264C212.474 116.914 211.118 116.373 210.782 116.269C210.679 116.237 210.183 116.064 209.68 115.885C205.563 114.418 200.243 113.355 195.751 113.103C193.881 112.998 190.941 112.967 189.667 113.039ZM15 150.246V185.911H21.6828H28.3655V170.928V155.944H34.0925H39.8195L40.1579 156.525C40.344 156.844 40.5311 157.168 40.5738 157.246C40.6623 157.406 41.9661 159.67 42.1539 159.989C42.2223 160.105 42.5856 160.738 42.9612 161.396C43.3369 162.054 43.6682 162.623 43.6975 162.662C43.7268 162.701 43.8462 162.907 43.9628 163.119C44.0793 163.332 44.4051 163.902 44.6868 164.386C44.9684 164.869 45.4869 165.766 45.8391 166.378C46.1912 166.99 46.5295 167.575 46.5908 167.679C46.6521 167.783 46.7828 168.01 46.8811 168.184C46.9795 168.358 47.3536 169.007 47.7125 169.626C48.0714 170.245 48.6568 171.258 49.0135 171.877C49.3701 172.496 50.0188 173.62 50.455 174.375C50.8912 175.129 51.5477 176.269 51.9139 176.907C52.2802 177.545 52.6317 178.153 52.6951 178.257C52.7585 178.362 53.0953 178.944 53.4435 179.552C53.7917 180.16 54.1439 180.771 54.2261 180.91C54.3083 181.049 54.6757 181.685 55.0425 182.324C56.7415 185.281 57.0108 185.741 57.0913 185.824C57.1596 185.893 58.6524 185.908 64.2557 185.894L71.3339 185.876L71.0841 185.454C70.9467 185.222 70.78 184.937 70.7137 184.821C70.4983 184.444 69.2743 182.322 68.4613 180.917C68.0249 180.162 67.3765 179.038 67.0205 178.419C66.4844 177.487 65.1503 175.178 64.6633 174.339C64.5959 174.223 64.2402 173.606 63.8727 172.968C63.5052 172.329 62.8486 171.19 62.4135 170.435C61.9783 169.681 61.2669 168.446 60.8323 167.692C60.1691 166.54 59.0981 164.689 58.6146 163.858C58.5471 163.742 58.2312 163.188 57.9127 162.627C57.5942 162.066 57.2455 161.464 57.1378 161.29C57.0301 161.116 56.8631 160.831 56.7667 160.657C56.6703 160.483 56.3617 159.945 56.0809 159.461C55.8001 158.978 55.2703 158.06 54.9036 157.421C54.5369 156.783 54.1771 156.158 54.104 156.032C54.0309 155.906 53.9117 155.701 53.839 155.575C53.7663 155.449 53.4138 154.84 53.0555 154.221C52.6972 153.602 52.1132 152.589 51.7576 151.97C51.402 151.351 51.0425 150.733 50.9587 150.598C50.8747 150.463 50.8061 150.32 50.8062 150.281C50.8063 150.211 51.4571 149.054 52.7051 146.905C53.0646 146.286 53.7217 145.146 54.1655 144.372C54.6094 143.599 55.0282 142.871 55.0963 142.754C55.4204 142.202 56.6049 140.153 57.3125 138.921C57.7456 138.166 58.3936 137.042 58.7524 136.423C59.1112 135.804 59.4594 135.203 59.5263 135.087C59.593 134.971 59.9573 134.338 60.3358 133.68C60.7142 133.022 61.0791 132.389 61.1467 132.273C61.7577 131.223 62.3661 130.171 63.2008 128.721C63.5681 128.082 64.2258 126.943 64.6623 126.188C65.0988 125.434 65.536 124.674 65.634 124.5C65.8349 124.143 65.8669 124.088 66.5452 122.917C67.148 121.877 68.7211 119.154 69.4304 117.923C69.7202 117.42 70.0131 116.913 70.0816 116.797C70.15 116.681 70.4265 116.199 70.696 115.726C70.9656 115.253 71.2257 114.818 71.2741 114.759C71.3451 114.674 71.3436 114.646 71.2663 114.617C71.2136 114.597 68.0063 114.588 64.139 114.598L57.1075 114.617L56.8859 115.003C56.7641 115.216 56.3801 115.881 56.0326 116.481C55.685 117.08 55.0267 118.22 54.5696 119.013C54.1125 119.806 53.688 120.541 53.6262 120.646C53.5069 120.849 52.7502 122.161 51.4248 124.465C50.9795 125.239 50.3218 126.378 49.9632 126.997C49.6046 127.616 49.2565 128.218 49.1896 128.334C49.1226 128.45 48.766 129.067 48.3972 129.705C48.0283 130.344 47.6635 130.977 47.5865 131.112C47.4703 131.317 47.0459 132.05 46.3043 133.328C46.237 133.444 45.8728 134.077 45.495 134.735C45.1174 135.393 44.7528 136.026 44.6851 136.142C44.4368 136.567 42.9615 139.122 42.4513 140.011C42.1624 140.514 41.8702 141.02 41.8019 141.137C41.7336 141.253 41.3307 141.949 40.9066 142.684C40.4825 143.419 40.0641 144.139 39.9767 144.284L39.8178 144.548H34.0917H28.3655V129.565V114.581H21.6828H15V150.246ZM234.758 150.246V185.911H259.378H283.999V180.213V174.516L266.079 174.498L248.158 174.48V165.265V156.05L264.514 156.015L280.869 155.979L280.887 150.264L280.905 144.549L264.532 144.531L248.158 144.513L248.139 135.439C248.129 130.448 248.137 126.293 248.158 126.206L248.196 126.048L266.08 126.03L283.964 126.012L283.982 120.297L284 114.581H259.379H234.758V150.246Z" fill="white"/>
<path d="M158.699 185.885C158.717 185.867 158.533 185.511 158.292 185.093C158.05 184.675 157.561 183.827 157.205 183.208C156.406 181.819 154.259 178.098 153.736 177.193C153.523 176.826 153.001 175.923 152.575 175.188C152.15 174.453 151.511 173.345 151.156 172.726C150.595 171.749 148.906 168.821 147.686 166.712L146.385 164.461C145.881 163.59 145.242 162.482 144.963 161.999C144.685 161.515 144.036 160.391 143.522 159.501C143.007 158.611 142.296 157.377 141.94 156.758C141.585 156.139 140.571 154.382 139.688 152.854C138.804 151.325 137.433 148.951 136.641 147.578C135.848 146.204 134.487 143.846 133.616 142.337C132.745 140.828 131.742 139.087 131.387 138.468C131.032 137.849 130.21 136.425 129.56 135.303C128.911 134.181 128.015 132.63 127.569 131.856C127.123 131.082 126.528 130.053 126.247 129.57C125.966 129.086 125.143 127.661 124.419 126.404C123.694 125.147 122.389 122.883 121.518 121.374C119.538 117.945 118.403 115.975 118 115.271C117.829 114.971 117.663 114.71 117.632 114.69L117.404 165.478L158.699 185.885Z" fill="#A0D00F"/>
<path fill-rule="evenodd" clip-rule="evenodd" d="M114.187 120.53C114.362 120.231 117.198 115.316 117.404 114.955C117.499 114.79 117.601 114.671 117.632 114.69L117.404 165.478L76.4795 185.881L77.8962 183.419C78.6753 182.064 79.3683 180.862 79.4361 180.745C79.5446 180.56 81.1871 177.712 83.1288 174.344C83.4856 173.725 84.1351 172.601 84.5721 171.847C85.0092 171.092 85.721 169.858 86.154 169.103C86.5871 168.349 87.2992 167.114 87.7365 166.36C88.1739 165.605 88.759 164.593 89.037 164.109C89.3149 163.625 89.964 162.502 90.4793 161.612C90.9947 160.722 91.7071 159.487 92.0624 158.868C92.4178 158.249 93.4311 156.492 94.3142 154.964C95.855 152.298 96.4466 151.273 98.2319 148.176C98.678 147.402 99.4638 146.041 99.978 145.151C100.492 144.261 101.141 143.137 101.419 142.654C101.697 142.17 102.647 140.524 103.529 138.996C104.411 137.467 105.772 135.109 106.554 133.755C107.335 132.401 108.696 130.043 109.578 128.514C110.461 126.986 111.831 124.612 112.623 123.238C113.415 121.865 114.119 120.646 114.187 120.53Z" fill="#46BA0E"/>
<path d="M76.4795 185.881L117.574 185.898C140.176 185.908 158.682 185.902 158.699 185.885L117.404 165.478L76.4795 185.881Z" fill="#008723"/>
</svg>
