<svg width="300" height="300" viewBox="0 0 300 300" fill="none" xmlns="http://www.w3.org/2000/svg">
<g clip-path="url(#clip0_4310_7453)">
<path d="M16.17 132.824L1.3856 158.132C-2.4645 164.696 2.15562 173 9.54782 173H39.1166C46.5088 173 51.1289 164.696 47.2788 158.132L32.4944 132.824C28.7983 126.418 19.8661 126.418 16.17 132.824ZM30.7234 133.931L45.5848 159.318C47.6638 162.877 45.1998 167.464 41.1187 167.464H11.3959C7.31476 167.464 4.77369 162.877 6.92975 159.318L21.7911 133.931C23.7932 130.451 28.7213 130.451 30.7234 133.931Z" fill="#DBAB6B"/>
<path d="M24.8711 139.23L15.0149 156.075C13.4748 158.685 15.3229 162.007 18.249 162.007H37.9615C40.8876 162.007 42.7356 158.685 41.1956 156.075L31.3393 139.23C29.8763 136.699 26.3342 136.699 24.8711 139.23ZM31.2623 143.263L37.7305 154.256C38.3465 155.285 37.5765 156.55 36.4984 156.55H23.5621C22.4071 156.55 21.714 155.285 22.3301 154.256L28.7982 143.263C29.3372 142.235 30.7233 142.235 31.2623 143.263Z" fill="#DBAB6B"/>
<path d="M71.1498 161.691C67.9157 161.691 65.2207 160.663 63.1416 158.527C61.0626 156.392 60.0615 153.703 60.0615 150.382C60.0615 147.06 61.1396 144.371 63.2186 142.236C65.3747 140.1 68.0697 139.072 71.3808 139.072C73.5369 139.072 75.5389 139.626 77.233 140.654C79.004 141.682 80.3131 143.185 81.1601 145.004L77.079 147.297C75.7699 145.004 73.8449 143.897 71.4578 143.897C69.6098 143.897 68.1467 144.529 66.9147 145.795C65.7597 146.981 65.1437 148.563 65.1437 150.461C65.1437 152.359 65.7597 153.861 66.9147 155.127C68.0697 156.392 69.5328 157.025 71.3038 157.025C72.4589 157.025 73.5369 156.708 74.6149 156.076C75.6929 155.443 76.463 154.652 76.925 153.624L81.0061 156.076C80.0821 157.816 78.773 159.239 77.002 160.267C75.2309 161.216 73.3059 161.691 71.1498 161.691Z" fill="#2CAD6E"/>
<path d="M104.646 149.986C104.646 150.698 104.569 151.41 104.492 152.28H88.4755C88.7836 153.782 89.5536 155.048 90.6316 155.918C91.7096 156.788 93.1727 157.262 94.9437 157.262C97.4848 157.262 99.7948 156.55 101.874 155.048L103.876 158.765C101.258 160.742 98.1778 161.77 94.7127 161.77C92.7877 161.77 91.0936 161.454 89.6306 160.821C88.1675 160.188 86.9355 159.318 86.0115 158.29C85.0875 157.183 84.3944 155.997 84.0094 154.731C83.5474 153.387 83.3164 152.042 83.3164 150.54C83.3164 147.218 84.3174 144.529 86.3195 142.473C88.3985 140.338 91.0166 139.23 94.2507 139.23C97.2538 139.23 99.7949 140.18 101.72 142.157C103.645 143.976 104.646 146.585 104.646 149.986ZM94.1737 143.422C92.7107 143.422 91.4786 143.897 90.4006 144.766C89.3996 145.636 88.7066 146.823 88.3985 148.325H99.6408C99.4098 146.823 98.8708 145.636 97.8698 144.766C96.8688 143.897 95.6367 143.422 94.1737 143.422Z" fill="#2CAD6E"/>
<path d="M113.578 161.216H108.573V139.626H113.501V142.631C114.04 141.524 114.964 140.654 116.119 140.021C117.274 139.389 118.661 139.072 120.124 139.072C122.434 139.072 124.359 139.863 125.976 141.445C127.593 143.027 128.363 145.241 128.363 148.088V161.295H123.281V149.512C123.281 147.772 122.896 146.348 122.049 145.32C121.202 144.292 120.124 143.817 118.661 143.817C117.197 143.817 115.965 144.371 114.964 145.399C114.04 146.506 113.501 147.851 113.501 149.591L113.578 161.216Z" fill="#2CAD6E"/>
<path d="M168.172 149.986C168.172 150.698 168.095 151.41 168.018 152.28H152.002C152.31 153.782 153.08 155.048 154.158 155.918C155.236 156.788 156.699 157.262 158.47 157.262C161.011 157.262 163.321 156.55 165.4 155.048L167.402 158.765C164.784 160.742 161.704 161.77 158.239 161.77C156.314 161.77 154.62 161.454 153.157 160.821C151.694 160.188 150.462 159.318 149.538 158.29C148.614 157.183 147.921 155.997 147.536 154.731C147.074 153.387 146.843 152.042 146.843 150.54C146.843 147.218 147.844 144.529 149.846 142.473C151.925 140.338 154.543 139.23 157.777 139.23C160.78 139.23 163.321 140.18 165.246 142.157C167.248 143.976 168.172 146.585 168.172 149.986ZM157.777 143.422C156.314 143.422 155.082 143.897 154.004 144.766C153.003 145.636 152.31 146.823 152.002 148.325H163.244C163.013 146.823 162.474 145.636 161.473 144.766C160.472 143.897 159.24 143.422 157.777 143.422Z" fill="#2CAD6E"/>
<path d="M177.182 161.216H172.1V139.626H176.951V142.631C178.26 140.259 180.185 139.072 182.803 139.072C183.65 139.072 184.497 139.23 185.344 139.547L184.882 144.529C183.958 144.213 183.188 144.055 182.418 144.055C180.801 144.055 179.492 144.608 178.568 145.715C177.644 146.823 177.105 148.484 177.105 150.698V161.216H177.182Z" fill="#2CAD6E"/>
<path d="M197.356 161.691C194.122 161.691 191.427 160.663 189.348 158.527C187.269 156.392 186.268 153.703 186.268 150.382C186.268 147.06 187.346 144.371 189.425 142.236C191.581 140.1 194.276 139.072 197.587 139.072C199.743 139.072 201.745 139.626 203.439 140.654C205.21 141.682 206.519 143.185 207.366 145.004L203.285 147.297C201.976 145.004 200.051 143.897 197.664 143.897C195.816 143.897 194.353 144.529 193.121 145.795C191.966 146.981 191.35 148.563 191.35 150.461C191.35 152.359 191.966 153.861 193.121 155.127C194.276 156.392 195.739 157.025 197.51 157.025C198.665 157.025 199.743 156.708 200.821 156.076C201.899 155.443 202.669 154.652 203.131 153.624L207.212 156.076C206.288 157.816 204.979 159.239 203.208 160.267C201.437 161.216 199.512 161.691 197.356 161.691Z" fill="#2CAD6E"/>
<path d="M215.76 161.216H210.755V139.626H215.606V142.631C216.915 140.259 218.84 139.072 221.458 139.072C222.305 139.072 223.152 139.23 223.999 139.547L223.537 144.529C222.613 144.213 221.843 144.055 221.073 144.055C219.456 144.055 218.147 144.608 217.223 145.715C216.299 146.823 215.76 148.484 215.76 150.698V161.216Z" fill="#2CAD6E"/>
<path d="M246.175 149.986C246.175 150.698 246.098 151.41 246.021 152.28H230.005C230.313 153.782 231.083 155.048 232.161 155.918C233.239 156.788 234.702 157.262 236.473 157.262C239.014 157.262 241.324 156.55 243.403 155.048L245.405 158.765C242.787 160.742 239.707 161.77 236.242 161.77C234.317 161.77 232.623 161.454 231.16 160.821C229.697 160.188 228.465 159.318 227.541 158.29C226.617 157.183 225.924 155.997 225.539 154.731C225.077 153.387 224.846 152.042 224.846 150.54C224.846 147.218 225.847 144.529 227.849 142.473C229.928 140.338 232.546 139.23 235.78 139.23C238.783 139.23 241.324 140.18 243.249 142.157C245.174 143.976 246.175 146.585 246.175 149.986ZM235.78 143.422C234.317 143.422 233.085 143.897 232.007 144.766C231.006 145.636 230.313 146.823 230.005 148.325H241.247C241.016 146.823 240.477 145.636 239.476 144.766C238.398 143.897 237.166 143.422 235.78 143.422Z" fill="#2CAD6E"/>
<path d="M266.042 142.394V131.006H271.047V161.296H266.119V158.449C264.348 160.663 262.115 161.77 259.42 161.77C256.416 161.77 253.875 160.663 251.95 158.528C249.948 156.313 248.947 153.624 248.947 150.382C248.947 147.219 249.948 144.53 251.95 142.315C253.952 140.101 256.416 139.073 259.42 139.073C262.115 139.073 264.271 140.18 266.042 142.394ZM260.113 157.025C261.961 157.025 263.424 156.393 264.579 155.127C265.734 153.862 266.273 152.28 266.273 150.461C266.273 148.642 265.657 147.06 264.502 145.795C263.424 144.53 261.884 143.897 260.113 143.897C258.265 143.897 256.801 144.53 255.723 145.795C254.568 147.06 254.029 148.642 254.029 150.461C254.029 152.28 254.568 153.862 255.723 155.127C256.801 156.393 258.342 157.025 260.113 157.025Z" fill="#2CAD6E"/>
<path d="M278.901 137.016C277.977 137.016 277.207 136.7 276.591 136.067C275.975 135.435 275.667 134.644 275.667 133.695C275.667 132.746 275.975 131.955 276.591 131.401C277.207 130.768 277.977 130.452 278.901 130.452C279.825 130.452 280.595 130.768 281.134 131.401C281.75 132.034 282.058 132.825 282.058 133.695C282.058 134.644 281.75 135.435 281.134 136.067C280.595 136.7 279.825 137.016 278.901 137.016ZM281.365 139.626V161.217H276.283V139.626H281.365Z" fill="#2CAD6E"/>
<path d="M298.383 155.918L300 159.952C298.383 161.138 296.304 161.771 293.917 161.771C289.143 161.771 286.679 158.923 286.679 153.308L286.756 131.955H291.761V139.626H298.845V143.976H291.761V153.071C291.761 155.681 292.762 156.946 294.841 156.946C295.996 157.025 297.151 156.63 298.383 155.918Z" fill="#2CAD6E"/>
<path d="M143.993 155.918L145.61 159.952C143.993 161.138 141.914 161.771 139.527 161.771C134.753 161.771 132.289 158.923 132.289 153.308L132.366 131.955H137.371V139.626H144.455V143.976H137.371V153.071C137.371 155.681 138.372 156.946 140.451 156.946C141.606 157.025 142.838 156.63 143.993 155.918Z" fill="#2CAD6E"/>
</g>
<defs>
<clipPath id="clip0_4310_7453">
<rect width="300" height="45" fill="white" transform="translate(0 128)"/>
</clipPath>
</defs>
</svg>
