<svg width="300" height="300" viewBox="0 0 300 300" fill="none" xmlns="http://www.w3.org/2000/svg">
<path d="M84.3408 158.56V150.116C84.2687 149.135 84.5897 148.165 85.2349 147.414C85.5903 147.09 86.0096 146.842 86.4667 146.685C86.9238 146.528 87.4088 146.465 87.8914 146.502H89.3314V142.154H88.7128C87.7569 142.128 86.8169 142.399 86.0251 142.928C85.1655 143.557 84.4807 144.389 84.0341 145.348V142.579H80V158.56H84.3408ZM100.55 155.059C99.9897 155.37 99.3522 155.521 98.7096 155.494C98.258 155.524 97.8055 155.452 97.3854 155.287C96.9653 155.121 96.5883 154.864 96.2818 154.536C95.6561 153.719 95.3265 152.719 95.3461 151.695H106.164C106.184 151.551 106.196 151.405 106.201 151.259V150.578C106.201 147.843 105.527 145.727 104.178 144.23C102.83 142.733 100.915 141.991 98.434 142.005C96.0912 142.005 94.244 142.759 92.8924 144.266C91.5408 145.774 90.8667 147.836 90.8702 150.455C90.8702 153.105 91.5564 155.212 92.9496 156.761C93.643 157.535 94.5035 158.147 95.4678 158.55C96.4321 158.954 97.4759 159.14 98.5224 159.094C100.254 159.145 101.956 158.641 103.373 157.658C104.707 156.692 105.646 155.286 106.019 153.695H101.709C101.478 154.253 101.081 154.728 100.571 155.059M96.313 146.414C96.599 146.125 96.9436 145.899 97.3244 145.751C97.7051 145.602 98.1134 145.535 98.5224 145.553C98.9502 145.526 99.379 145.588 99.7811 145.734C100.183 145.881 100.55 146.109 100.857 146.404C101.444 147.091 101.755 147.967 101.73 148.865H95.3461C95.3684 147.964 95.7022 147.098 96.2922 146.409M108.129 153.5C108.093 154.283 108.246 155.063 108.574 155.776C108.903 156.489 109.399 157.115 110.022 157.602C111.283 158.596 113.035 159.094 115.277 159.094C117.752 159.094 119.639 158.617 120.939 157.663C121.584 157.181 122.099 156.549 122.438 155.824C122.777 155.099 122.93 154.302 122.883 153.505C122.916 152.954 122.827 152.402 122.621 151.888C122.416 151.375 122.098 150.912 121.692 150.531C120.902 149.831 119.424 149.231 117.258 148.732C116.967 148.66 116.577 148.573 116.083 148.465C113.931 147.953 112.855 147.414 112.855 146.784C112.845 146.563 112.896 146.344 113.002 146.15C113.108 145.956 113.266 145.794 113.458 145.681C114.026 145.403 114.659 145.277 115.293 145.317C116.018 145.275 116.736 145.472 117.336 145.876C117.58 146.06 117.778 146.296 117.914 146.567C118.05 146.839 118.121 147.137 118.121 147.44H122.347C122.346 146.668 122.168 145.907 121.827 145.213C121.486 144.519 120.99 143.91 120.377 143.43C119.14 142.48 117.44 142.005 115.277 142.005C113.233 142.005 111.612 142.482 110.417 143.436C109.831 143.899 109.363 144.491 109.053 145.166C108.742 145.84 108.597 146.577 108.628 147.317C108.602 147.864 108.698 148.41 108.909 148.917C109.12 149.423 109.441 149.878 109.85 150.249C110.664 150.971 112.122 151.596 114.222 152.126C114.645 152.235 115.211 152.364 115.922 152.51C117.655 152.869 118.521 153.413 118.521 154.141C118.526 154.382 118.464 154.619 118.341 154.827C118.218 155.035 118.04 155.206 117.825 155.32C117.217 155.635 116.534 155.78 115.849 155.741C114.967 155.801 114.087 155.593 113.328 155.146C113.044 154.933 112.814 154.658 112.658 154.342C112.502 154.025 112.423 153.677 112.429 153.326H108.119L108.129 153.5ZM136.238 154.105C135.949 154.509 135.562 154.837 135.113 155.057C134.664 155.277 134.166 155.383 133.665 155.366C133.151 155.392 132.639 155.293 132.174 155.078C131.708 154.864 131.302 154.54 130.993 154.136C130.305 153.116 129.973 151.903 130.046 150.68C130.046 149.07 130.346 147.845 130.946 147.004C131.239 146.591 131.635 146.258 132.095 146.037C132.555 145.816 133.065 145.715 133.576 145.743C134.094 145.718 134.61 145.82 135.077 146.042C135.545 146.263 135.949 146.595 136.253 147.009C136.867 147.853 137.174 149.077 137.174 150.68C137.242 151.899 136.914 153.108 136.238 154.131M130.046 165V156.551C130.544 157.34 131.239 157.992 132.063 158.442C133.329 159.081 134.783 159.257 136.168 158.939C137.553 158.621 138.778 157.829 139.627 156.704C140.865 155.115 141.485 153.042 141.488 150.485C141.492 147.929 140.871 145.891 139.627 144.374C139.065 143.631 138.33 143.032 137.484 142.627C136.638 142.222 135.706 142.023 134.767 142.046C133.819 142.024 132.882 142.247 132.048 142.692C131.201 143.205 130.488 143.907 129.968 144.743V142.579H125.81V164.979L130.046 165ZM148.985 146.886C149.33 146.484 149.76 146.161 150.245 145.94C150.73 145.718 151.258 145.604 151.792 145.604C152.326 145.604 152.854 145.718 153.339 145.94C153.824 146.161 154.254 146.484 154.599 146.886C155.251 147.741 155.576 148.956 155.576 150.531C155.576 152.121 155.249 153.341 154.589 154.202C154.284 154.565 153.909 154.866 153.486 155.086C153.064 155.306 152.601 155.442 152.125 155.486C151.649 155.53 151.169 155.48 150.712 155.341C150.255 155.202 149.831 154.975 149.463 154.674C149.288 154.533 149.128 154.375 148.985 154.202C148.324 153.341 147.992 152.121 147.992 150.531C147.992 148.942 148.324 147.742 148.985 146.886ZM145.788 156.833C147.25 158.35 149.257 159.109 151.807 159.109C154.358 159.109 156.361 158.35 157.817 156.833C159.283 155.294 160.016 153.244 160.016 150.557C160.016 147.87 159.283 145.815 157.817 144.297C156.351 142.779 154.35 142.021 151.807 142.021C149.265 142.021 147.248 142.779 145.788 144.297C144.327 145.815 143.599 147.886 143.599 150.557C143.599 153.228 144.337 155.294 145.788 156.833ZM167.325 158.576V149.086C167.3 148.638 167.366 148.19 167.519 147.768C167.673 147.346 167.911 146.959 168.219 146.63C168.536 146.321 168.914 146.08 169.331 145.924C169.747 145.768 170.192 145.699 170.637 145.722C170.991 145.69 171.348 145.741 171.679 145.869C172.01 145.997 172.307 146.2 172.544 146.461C172.934 146.948 173.127 147.768 173.127 148.911V158.56H177.483V147.681C177.483 145.835 177.038 144.456 176.147 143.543C175.258 142.631 173.917 142.174 172.134 142.169C171.185 142.157 170.245 142.355 169.384 142.749C168.538 143.149 167.802 143.743 167.237 144.481V142.579H162.974V158.56L167.325 158.576ZM180.238 153.521C180.203 154.303 180.357 155.084 180.686 155.797C181.016 156.51 181.513 157.135 182.136 157.622C183.394 158.617 185.144 159.114 187.386 159.114C189.861 159.114 191.748 158.637 193.048 157.684C193.693 157.201 194.207 156.569 194.547 155.844C194.886 155.119 195.039 154.323 194.992 153.526C195.025 152.974 194.936 152.423 194.73 151.909C194.524 151.395 194.207 150.932 193.801 150.552C193.011 149.848 191.531 149.248 189.362 148.752C189.076 148.681 188.686 148.593 188.192 148.486C186.04 147.973 184.964 147.46 184.964 146.804C184.954 146.584 185.005 146.365 185.111 146.171C185.217 145.977 185.375 145.815 185.567 145.702C186.135 145.423 186.768 145.298 187.402 145.338C188.127 145.296 188.845 145.492 189.445 145.897C189.684 146.078 189.879 146.311 190.014 146.577C190.149 146.844 190.221 147.137 190.225 147.435H194.456C194.454 146.663 194.276 145.901 193.934 145.207C193.591 144.513 193.095 143.904 192.481 143.425C191.247 142.479 189.549 142.003 187.386 142C185.342 142 183.723 142.477 182.531 143.43C181.941 143.892 181.47 144.485 181.157 145.161C180.844 145.836 180.696 146.575 180.727 147.317C180.702 147.864 180.799 148.411 181.011 148.917C181.223 149.424 181.545 149.879 181.954 150.249C182.772 150.971 184.229 151.596 186.326 152.126C186.747 152.234 187.314 152.362 188.021 152.51C189.767 152.869 190.62 153.413 190.62 154.141C190.624 154.382 190.562 154.619 190.439 154.827C190.316 155.035 190.138 155.205 189.923 155.32C189.316 155.635 188.633 155.78 187.948 155.741C187.059 155.805 186.171 155.597 185.406 155.146C185.121 154.933 184.892 154.658 184.736 154.342C184.579 154.025 184.501 153.677 184.506 153.326H180.207V153.505" fill="white"/>
<path d="M208.878 150.764H203.057L205.963 141.407L208.878 150.764ZM196 159H200.539L201.92 154.468H210.05L211.471 159H216L208.441 137H203.475L196.025 159" fill="white"/>
<path d="M218 158.497H222.185V156.336C222.708 157.167 223.424 157.865 224.277 158.375C225.114 158.823 226.058 159.047 227.013 159.022C227.958 159.042 228.895 158.842 229.745 158.437C230.595 158.033 231.333 157.437 231.898 156.698C233.147 155.152 233.771 153.124 233.771 150.613C233.771 148.102 233.147 146.046 231.898 144.446C231.041 143.332 229.81 142.549 228.419 142.232C227.028 141.915 225.567 142.085 224.293 142.713C223.459 143.159 222.76 143.809 222.263 144.599V137H218.005L218 158.497ZM228.503 154.109C228.197 154.521 227.789 154.852 227.318 155.072C226.846 155.292 226.326 155.393 225.804 155.368C225.292 155.393 224.781 155.292 224.319 155.074C223.857 154.856 223.459 154.527 223.163 154.119C222.556 153.283 222.258 152.08 222.258 150.45C222.258 148.958 222.573 147.806 223.205 146.994C223.518 146.594 223.927 146.275 224.395 146.062C224.863 145.85 225.377 145.752 225.893 145.776C226.401 145.756 226.907 145.859 227.363 146.077C227.82 146.295 228.214 146.621 228.509 147.025C229.194 148.037 229.525 149.239 229.45 150.45C229.45 152.05 229.142 153.27 228.524 154.109M241.214 137H236.836V140.858H241.214V137ZM241.214 142.606H236.836V158.497H241.214V142.606ZM249.583 137H245.205V158.497H249.583V137ZM257.953 137H253.601V140.858H257.979L257.953 137ZM257.953 142.606H253.601V158.497H257.979L257.953 142.606ZM269.084 155.408H268.038C267.639 155.445 267.238 155.377 266.876 155.21C266.765 155.104 266.682 154.974 266.633 154.83C266.584 154.687 266.57 154.534 266.594 154.384V145.567H269.084V142.611H266.583V138.305H262.284V142.611H260.139V145.567H262.284V154.18C262.284 155.974 262.587 157.177 263.204 157.788C263.822 158.4 264.962 158.701 266.63 158.701C266.782 158.701 267.154 158.701 267.677 158.665C268.2 158.629 268.723 158.624 269.105 158.614L269.084 155.408ZM273.195 164.969C273.504 164.969 273.797 165 274.063 165C275.565 165 276.679 164.745 277.432 164.23C278.185 163.716 278.808 162.763 279.305 161.361L286 142.611H281.428L278.086 154.068L274.66 142.611H269.868L275.737 158.685C275.752 158.76 275.773 158.833 275.8 158.905C275.814 158.979 275.823 159.054 275.826 159.129C275.852 159.453 275.808 159.78 275.697 160.087C275.586 160.394 275.411 160.675 275.183 160.913C274.645 161.339 273.96 161.55 273.268 161.504H272.682C272.537 161.499 272.392 161.484 272.248 161.458V164.883C272.588 164.924 272.913 164.949 273.221 164.969" fill="white"/>
<path d="M69 170L47.1065 113L36 127.858L52.1965 170H69Z" fill="#0C6463"/>
<path d="M34.2953 140C31.751 139.995 29.2623 140.737 27.1431 142.133C25.0239 143.528 23.3691 145.515 22.3873 147.841L22.2838 148.118L14 170H30.345L41 141.847C38.9772 140.637 36.6584 139.998 34.2953 140Z" fill="white"/>
</svg>
