<svg width="300" height="300" viewBox="0 0 300 300" fill="none" xmlns="http://www.w3.org/2000/svg">
<g clip-path="url(#clip0_4310_6884)">
<path d="M32.5706 150.33C32.3334 143.356 30.2203 143.313 25.3687 143.313H22.9537V160.74H27.87V161.863H12V160.74H16.9162V125.124H12V124H39.7509L40.4194 134.727H39.4922C39.2582 131.684 37.9189 128.824 35.7188 126.671C33.8644 125.081 32.1178 125.124 28.1503 125.124H22.9537V142.084H25.2609C29.5734 142.084 31.1906 141.978 31.9669 139.667C32.333 138.081 32.5139 136.459 32.5059 134.833H33.5625V150.288L32.5706 150.33Z" fill="#E81C36"/>
<path d="M41.4114 139.773H50.252V160.74H53.7882V161.863H41.3467V160.74H45.1201V140.96H41.4114V139.773ZM47.4704 124.933C47.895 124.93 48.3158 125.01 48.7084 125.169C49.1009 125.328 49.4572 125.563 49.7564 125.859C50.0556 126.155 50.2917 126.507 50.4508 126.894C50.61 127.281 50.689 127.695 50.6832 128.113C50.6832 128.956 50.3425 129.765 49.7359 130.361C49.1294 130.958 48.3067 131.293 47.4489 131.293C46.5911 131.293 45.7684 130.958 45.1618 130.361C44.5553 129.765 44.2145 128.956 44.2145 128.113C44.1999 127.686 44.2736 127.26 44.4312 126.861C44.5888 126.463 44.827 126.1 45.1314 125.795C45.4359 125.49 45.8001 125.248 46.2022 125.086C46.6042 124.923 47.0357 124.842 47.4704 124.848V124.933Z" fill="#E81C36"/>
<path d="M69.0758 140.96H63.2323V156.86C63.2323 158.535 63.2323 160.782 65.9061 160.782C66.3252 160.794 66.7425 160.724 67.1341 160.576C67.5257 160.429 67.8839 160.207 68.1882 159.924C68.4926 159.64 68.7372 159.3 68.908 158.924C69.0788 158.548 69.1724 158.142 69.1836 157.73H70.3911C70.3081 158.438 70.0838 159.124 69.731 159.747C69.3783 160.371 68.9039 160.92 68.3351 161.363C67.7664 161.806 67.1143 162.134 66.4163 162.329C65.7183 162.524 64.9881 162.582 64.2673 162.5C63.1039 162.63 61.9284 162.394 60.9096 161.827C59.8908 161.259 59.081 160.389 58.5964 159.341C58.1458 157.734 57.9996 156.06 58.1652 154.401V140.96H54.6289V140.134C56.6013 139.215 58.3179 137.84 59.6314 136.127C61.0222 134.652 61.9831 132.836 62.413 130.869H63.2323V139.773H69.0758V140.96Z" fill="#E81C36"/>
<path d="M92.1477 154.676C91.8013 156.902 90.6387 158.926 88.8791 160.367C87.1195 161.808 84.8845 162.566 82.5955 162.499C81.0884 162.482 79.5997 162.172 78.216 161.584C76.8323 160.997 75.5813 160.144 74.5358 159.077C73.4903 158.01 72.6713 156.748 72.1263 155.367C71.5813 153.985 71.3213 152.511 71.3615 151.03C71.3271 149.482 71.6063 147.944 72.1828 146.504C72.7594 145.064 73.6217 143.751 74.7195 142.642C75.8173 141.534 77.1287 140.651 78.5771 140.045C80.0256 139.439 81.5822 139.123 83.1561 139.115C88.2449 139.115 91.3499 142.232 91.3499 144.903C91.3762 145.282 91.3243 145.662 91.1974 146.021C91.0705 146.38 90.8712 146.71 90.6114 146.991C90.3516 147.272 90.0367 147.498 89.6857 147.657C89.3346 147.816 88.9545 147.903 88.5683 147.913C88.2084 147.897 87.8555 147.81 87.5303 147.658C87.2052 147.505 86.9144 147.29 86.6752 147.026C86.436 146.761 86.2532 146.451 86.1376 146.116C86.0221 145.781 85.9761 145.426 86.0024 145.072C86.0104 144.125 86.3978 143.219 87.0805 142.55C87.253 142.338 87.3608 142.232 87.3608 142.02C87.3608 141.808 86.0024 140.196 83.0483 140.196C82.0147 140.115 80.9816 140.361 80.1007 140.899C79.2199 141.437 78.5375 142.238 78.1536 143.186C77.3925 146.279 77.0803 149.462 77.2264 152.641C77.1588 154.422 77.3697 156.202 77.8518 157.92C78.1706 158.936 78.8302 159.816 79.7229 160.417C80.6157 161.017 81.689 161.303 82.768 161.227C84.6747 161.196 86.512 160.518 87.9695 159.309C89.427 158.1 90.4154 156.434 90.7677 154.591L92.1477 154.676Z" fill="#E81C36"/>
<path d="M93.2256 124H101.851V142.932C102.825 141.697 104.084 140.707 105.524 140.044C106.963 139.38 108.542 139.062 110.131 139.116C111.245 139.036 112.363 139.184 113.417 139.548C114.471 139.913 115.437 140.488 116.254 141.236C117.267 142.719 117.724 144.503 117.548 146.281V160.718H121.149V161.842H108.772V160.718H112.244V145.878C112.244 143.631 112.244 140.621 108.6 140.621C107.658 140.629 106.731 140.856 105.895 141.283C105.06 141.711 104.339 142.326 103.791 143.08C102.109 145.2 102.002 147.32 101.894 151.708V160.782H105.387V161.906H92.9453V160.782H96.6109V125.124H93.2256V124Z" fill="#E81C36"/>
<path d="M157.87 161.164C156.604 161.804 155.197 162.131 153.773 162.118C151.853 162.151 149.987 161.487 148.534 160.252C145.925 158.005 145.817 154.782 145.752 151.772L145.687 149.44C145.687 147.32 145.364 144.246 142.151 142.953C139.875 142.276 137.48 142.081 135.122 142.38V160.718H139.973V161.842H124.125V160.718H129.02V125.124H123.888V124H138.981C143.294 124 147.326 124 150.474 126.311C151.512 127.027 152.359 127.979 152.941 129.087C153.523 130.194 153.823 131.424 153.816 132.671C153.816 138.098 148.749 141.426 142.022 141.85C144.649 142.124 147.13 143.173 149.137 144.861C150.427 146.055 151.412 147.532 152.011 149.172C152.611 150.811 152.808 152.566 152.587 154.295V155.8C152.507 156.763 152.557 157.733 152.738 158.683C152.837 159.261 153.136 159.787 153.584 160.173C154.031 160.56 154.601 160.782 155.196 160.803C155.987 160.733 156.76 160.533 157.482 160.21L157.87 161.164ZM135.014 125.187V141.108H137.062C139.676 141.362 142.309 140.876 144.652 139.709C145.564 138.925 146.276 137.94 146.729 136.835C147.182 135.731 147.365 134.536 147.261 133.349C147.28 131.396 146.734 129.477 145.687 127.816C143.79 125.124 140.189 125.187 136.868 125.187H135.014Z" fill="#6C797F"/>
<path d="M178.031 157.92C178.031 159.743 178.031 161.037 179.282 161.037C179.994 161.037 180.597 160.379 180.986 160.061L181.632 160.825C181.112 161.383 180.479 161.827 179.773 162.13C179.068 162.433 178.305 162.588 177.536 162.584C176.4 162.598 175.293 162.24 174.387 161.567C173.898 161.135 173.508 160.605 173.244 160.012C172.98 159.42 172.848 158.779 172.856 158.132C172.2 159.485 171.162 160.623 169.866 161.413C168.57 162.202 167.071 162.609 165.547 162.584C162.097 162.584 159.38 160.655 159.38 157.327C159.38 153.998 161.881 151.751 165.547 150.627C167.967 150.002 170.462 149.696 172.964 149.716V144.267C172.964 142.72 172.749 140.197 169.148 140.197C166.69 140.197 164.663 141.639 164.663 142.444C164.663 143.25 165.806 143.78 165.806 145.009C165.777 145.664 165.485 146.281 164.994 146.725C164.502 147.168 163.852 147.401 163.186 147.373C162.519 147.345 161.892 147.058 161.441 146.575C160.99 146.092 160.753 145.452 160.781 144.797C160.781 142.169 164.318 139.116 169.838 139.116C172.18 139.054 174.47 139.805 176.306 141.236C176.966 141.962 177.46 142.818 177.758 143.746C178.055 144.674 178.148 145.654 178.031 146.621V157.92ZM172.964 150.67C168.652 150.67 164.512 151.963 164.512 156.373C164.463 156.837 164.515 157.307 164.663 157.751C164.812 158.195 165.053 158.603 165.373 158.949C165.692 159.295 166.082 159.571 166.517 159.759C166.952 159.947 167.422 160.043 167.897 160.04C169.042 160.021 170.137 159.574 170.959 158.789C172.706 157.136 172.813 155.27 172.921 152.535L172.964 150.67Z" fill="#6C797F"/>
<path d="M195.627 140.96H189.783V156.86C189.783 158.535 189.783 160.782 192.457 160.782C192.876 160.794 193.293 160.724 193.685 160.576C194.076 160.429 194.435 160.207 194.739 159.924C195.043 159.64 195.288 159.3 195.459 158.924C195.63 158.548 195.723 158.142 195.734 157.73H196.942C196.611 158.935 195.927 160.017 194.975 160.843C194.022 161.668 192.844 162.2 191.587 162.372C190.329 162.544 189.048 162.348 187.903 161.809C186.758 161.27 185.8 160.412 185.147 159.341C184.697 157.734 184.55 156.06 184.716 154.401V140.96H181.18V140.134C183.152 139.215 184.869 137.84 186.182 136.127C187.573 134.652 188.534 132.836 188.964 130.869H189.783V139.773H195.627V140.96Z" fill="#6C797F"/>
<path d="M198.861 139.772H207.701V160.739H211.237V161.863H198.817V160.739H202.569V140.96H198.861V139.772ZM204.92 124.932C205.344 124.918 205.767 124.988 206.164 125.136C206.561 125.285 206.924 125.51 207.231 125.798C207.538 126.087 207.784 126.432 207.953 126.815C208.123 127.198 208.213 127.61 208.219 128.028C208.219 128.871 207.878 129.68 207.271 130.276C206.665 130.873 205.842 131.208 204.984 131.208C204.126 131.208 203.304 130.873 202.697 130.276C202.091 129.68 201.75 128.871 201.75 128.028C201.744 127.614 201.822 127.203 201.978 126.819C202.135 126.435 202.367 126.085 202.662 125.789C202.956 125.494 203.307 125.258 203.695 125.097C204.082 124.935 204.499 124.85 204.92 124.848V124.932Z" fill="#6C797F"/>
<path d="M226.008 161.864H213.631V160.74H217.189V140.96H213.631V139.773H222.256V143.08C223.071 141.851 224.187 140.844 225.502 140.151C226.818 139.458 228.289 139.102 229.781 139.116C231.867 139.072 233.887 139.833 235.409 141.236C236.11 142.011 236.633 142.925 236.942 143.917C237.251 144.908 237.338 145.953 237.199 146.981V160.655H240.8V161.779H228.595V160.655H231.937V146.303C231.971 145.246 231.899 144.187 231.722 143.144C231.577 142.422 231.173 141.776 230.583 141.324C229.992 140.873 229.256 140.645 228.509 140.685C227.233 140.715 226.004 141.163 225.016 141.957C222.45 144.077 222.385 147.278 222.342 151.348V160.74H225.986L226.008 161.864Z" fill="#6C797F"/>
<path d="M258.028 160.782C260.917 160.782 265.38 160.782 265.38 166.739C265.38 172.696 260.594 177.466 253.327 177.466C247.44 177.466 242.869 174.35 242.869 170.597C242.949 169.387 243.428 168.236 244.234 167.318C245.039 166.4 246.127 165.765 247.333 165.509C246.142 165.283 245.065 164.663 244.281 163.754C243.497 162.844 243.052 161.698 243.02 160.506C243.07 159.53 243.324 158.575 243.765 157.7C244.206 156.825 244.826 156.048 245.586 155.418C246.385 154.738 247.244 154.128 248.152 153.595C247.021 152.914 246.093 151.951 245.461 150.805C244.828 149.659 244.515 148.369 244.551 147.065C244.551 141.956 249.014 139.179 253.823 139.179C255.007 139.12 256.191 139.298 257.303 139.703C258.415 140.107 259.432 140.73 260.292 141.532C261.324 140.327 262.794 139.567 264.389 139.412C264.731 139.383 265.075 139.422 265.402 139.527C265.729 139.631 266.031 139.799 266.29 140.021C266.55 140.242 266.761 140.513 266.912 140.816C267.063 141.119 267.151 141.449 267.17 141.787C267.17 142.349 266.943 142.888 266.539 143.286C266.134 143.683 265.586 143.907 265.014 143.907C264.568 143.929 264.129 143.79 263.78 143.517C263.43 143.244 263.195 142.855 263.116 142.423V141.935C263.116 141.723 262.944 141.341 262.469 141.341C261.995 141.341 261.542 141.871 261.154 142.253C262.348 143.689 263.003 145.486 263.009 147.341C263.009 152.175 258.696 155.121 253.737 155.121C252.241 155.14 250.762 154.806 249.424 154.146C247.268 155.821 245.608 157.114 245.608 158.768C245.608 160.888 248.066 160.888 250.136 160.888L258.028 160.782ZM254.362 165.827C252.357 165.827 249.899 165.827 248.324 165.721C247.714 166.274 247.228 166.946 246.898 167.695C246.567 168.443 246.399 169.251 246.405 170.067C246.42 170.918 246.617 171.757 246.982 172.528C247.347 173.3 247.873 173.988 248.525 174.547C249.177 175.107 249.942 175.525 250.769 175.776C251.596 176.027 252.467 176.104 253.327 176.003C261.24 176.003 263.591 170.703 263.591 168.075C263.591 165.446 262.06 165.615 258.955 165.658L254.362 165.827ZM257.144 142.126C256.712 140.939 255.742 140.197 253.758 140.197C250.287 140.197 250.179 142.656 250.071 144.649C249.963 146.641 250.071 146.769 250.071 149.673C250.071 151.284 250.071 154.019 253.672 154.019C254.183 154.058 254.696 153.987 255.177 153.811C255.657 153.635 256.093 153.359 256.454 153.001C257.273 152.196 257.381 151.496 257.424 146.641C257.491 145.131 257.397 143.617 257.144 142.126Z" fill="#6C797F"/>
<path d="M269.499 161.863H268.744V153.383H269.736L270.534 155.948C270.914 157.411 271.776 158.71 272.985 159.642C274.194 160.573 275.682 161.086 277.218 161.1C278.471 161.189 279.711 160.797 280.676 160.007C281.641 159.216 282.257 158.088 282.393 156.86C282.393 154.231 279.784 153.701 277.865 153.319L276.183 153.065C274.757 152.912 273.369 152.51 272.086 151.878C271.094 151.285 270.282 150.441 269.736 149.434C269.189 148.427 268.929 147.294 268.981 146.154C268.944 145.243 269.094 144.333 269.422 143.481C269.751 142.628 270.252 141.85 270.894 141.192C271.537 140.535 272.308 140.012 273.161 139.655C274.014 139.298 274.932 139.114 275.86 139.115C277.912 139.149 279.884 139.9 281.423 141.235L282.393 139.454H283.32V146.111H282.285C282.105 144.552 281.344 143.114 280.15 142.073C278.956 141.032 277.412 140.462 275.817 140.472C274.66 140.402 273.519 140.762 272.62 141.481C271.722 142.199 271.131 143.224 270.965 144.352C270.965 146.853 274.286 147.023 275.601 147.404L277.563 147.765C279.719 148.21 284.549 149.058 284.549 154.952C284.587 155.932 284.423 156.91 284.067 157.827C283.712 158.744 283.171 159.581 282.479 160.288C281.786 160.994 280.955 161.556 280.037 161.94C279.118 162.323 278.13 162.521 277.132 162.52C274.81 162.47 272.586 161.588 270.879 160.04L269.499 161.863Z" fill="#6C797F"/>
</g>
<defs>
<clipPath id="clip0_4310_6884">
<rect width="276" height="53" fill="white" transform="translate(12 124)"/>
</clipPath>
</defs>
</svg>
