<svg width="300" height="300" viewBox="0 0 300 300" fill="none" xmlns="http://www.w3.org/2000/svg">
<path d="M176.673 203.539V210.348H168.332V176.792H176.673V192.037L190.049 176.792H199.917L187.134 191.497L201.004 210.348H190.835L181.461 198.01L176.673 203.539ZM162.442 210.348H155.974L139.885 191.942V210.348H131.544V176.792H137.913L154.097 195.692V176.792H162.438V210.348H162.442ZM102.603 204.576L100.38 210.348H91.4994L105.765 176.595H113.71L127.922 210.348H119.091L116.819 204.576H102.603ZM109.709 186.318L105.366 197.471H114.052L109.709 186.318ZM90.6938 201.02C90.6938 206.598 86.2022 210.344 78.6516 210.344H61.0766V176.788H77.6598C84.914 176.788 89.208 180.242 89.208 185.722C89.208 188.83 87.479 192.037 84.5188 193.074C88.6228 193.963 90.6938 197.417 90.6938 201.02ZM69.4176 190.46H76.3754C79.4876 190.46 81.2166 189.031 81.2166 186.858C81.2166 184.734 79.5826 183.601 76.3754 183.601H69.4176V190.46ZM77.5648 203.44C80.9696 203.44 82.501 201.912 82.501 199.937C82.501 197.866 80.772 196.828 77.713 196.828H69.4176V203.44H77.5648ZM113.247 118.013C114.375 121.365 117.469 123.766 121.117 123.766C124.765 123.766 127.858 121.365 128.983 118.013H113.247ZM121.12 91.4111C107.87 91.4111 97.1272 101.644 97.1272 114.271C97.1272 118.72 98.4648 122.877 100.775 126.388H112.346C108.835 123.732 106.555 119.526 106.555 114.78C106.555 106.736 113.076 100.215 121.12 100.215C129.165 100.215 135.686 106.736 135.686 114.78C135.686 119.526 133.406 123.732 129.891 126.388H141.462C143.776 122.877 145.11 118.72 145.11 114.271C145.106 101.644 134.371 91.4111 121.12 91.4111ZM202.304 100.132V106.242H217.184V113.336H202.304V119.15H219.301V126.392H193.978V92.8892H219.301V100.132H202.304ZM187.069 126.388H178.74V109.593L171.299 121.068V121.118H166.671V121.068L159.181 109.49L159.231 126.388H150.901V92.8854H157.11L168.985 110.771L180.86 92.8854H187.069V126.388ZM91.3322 92.8854V126.388H83.0558V113.826H69.4062V126.392H61.0804V92.8854H69.4062V106.337H83.0558V92.8854H91.3322ZM84.4922 155.654C83.2078 158.743 80.525 160.571 76.782 160.571C71.3138 160.571 67.5176 156.532 67.5176 150.961C67.5176 145.391 71.3138 141.352 76.782 141.352C80.525 141.352 83.204 143.183 84.4922 146.269H93.312C91.583 138.62 85.2864 133.57 76.8352 133.57C66.731 133.57 59.1006 140.865 59.1006 150.961C59.1006 161.065 66.7348 168.353 76.8352 168.353C85.2902 168.353 91.583 163.307 93.312 155.654H84.4922ZM240.14 141.648H230.526V167.714H222.246V141.648H212.64V134.212H240.136V141.648H240.14ZM199.921 167.714H208.251V134.208H199.921V167.714ZM195.338 150.866C195.338 160.814 187.803 167.714 177.262 167.714H163.806V134.212H177.262C187.803 134.212 195.338 141.059 195.338 150.866ZM186.914 150.866C186.914 145.691 182.73 141.701 177.262 141.701H172.135V160.221H177.262C182.726 160.221 186.914 156.186 186.914 150.866ZM141.211 141.454V147.56H156.092V154.658H141.211V160.468H158.208V167.714H132.885V134.212H158.208V141.454H141.211ZM119.103 167.714L112.749 158.006H106.392V167.714H98.062V134.212H112.696C121.025 134.212 126.592 138.745 126.592 145.987C126.592 150.376 124.472 153.917 120.927 155.988L128.808 167.714H119.103ZM106.392 150.517H112.551C115.755 150.517 118.267 148.746 118.267 145.984C118.267 143.274 115.755 141.549 112.551 141.549H106.392V150.517Z" fill="#DB0124"/>
</svg>
