<svg width="300" height="300" viewBox="0 0 300 300" fill="none" xmlns="http://www.w3.org/2000/svg">
<g clip-path="url(#clip0_4310_7282)">
<path d="M61.4108 142.945H21.2822V146.25H61.4108V142.945Z" fill="#E91616"/>
<path d="M61.4109 132.947H24.5674V136.252H61.4109V132.947Z" fill="#E91616"/>
<path d="M68.2223 137.904H27.9541V141.209H68.2223V137.904Z" fill="#E91616"/>
<path d="M104.562 132.947V134.037H99.8025L106.434 144.932L114.393 134.037H109.165V132.947H120.166V134.037H115.798L107.215 145.944L119.464 165.245H122.663V166.334H102.767V165.245H108.151L100.427 153.182L91.7662 165.245H97.7734V166.334H85.0558V165.245H90.2829L99.7238 152.17L88.0987 134.037H84.1191V132.947H104.562Z" fill="white"/>
<path d="M126.911 133.991V132.901H141.423V138.66H141.579C143.19 134.095 146.261 131.812 150.786 131.812C153.802 131.812 156.376 132.396 158.509 133.563C160.642 134.73 162.397 136.196 163.777 137.96C165.154 139.724 166.168 141.644 166.819 143.718C167.469 145.794 167.795 147.74 167.795 149.555C167.795 151.889 167.378 154.122 166.546 156.248C165.714 158.376 164.557 160.255 163.075 161.89C161.592 163.524 159.81 164.834 157.731 165.821C155.65 166.804 153.334 167.298 150.787 167.298C148.394 167.298 146.468 166.649 145.013 165.352C143.556 164.056 142.464 162.5 141.737 160.683H141.58V186.91H146.885V188H126.913V186.91H132.062V133.991H126.911ZM141.774 154.964C141.904 156.911 142.281 158.726 142.905 160.412C143.529 162.099 144.453 163.5 145.674 164.614C146.896 165.731 148.599 166.288 150.785 166.288C152.24 166.288 153.399 165.899 154.257 165.12C155.115 164.342 155.765 163.226 156.207 161.774C156.65 160.322 156.935 158.571 157.066 156.52C157.196 154.471 157.261 152.176 157.261 149.633C157.261 146.519 157.144 143.887 156.91 141.734C156.676 139.581 156.272 137.856 155.7 136.558C155.128 135.262 154.4 134.328 153.516 133.757C152.631 133.187 151.513 132.901 150.161 132.901C148.236 132.901 146.701 133.445 145.557 134.535C144.412 135.625 143.555 137 142.983 138.66C142.409 140.321 142.033 142.137 141.851 144.108C141.668 146.08 141.578 147.92 141.578 149.633C141.579 151.243 141.644 153.018 141.774 154.964Z" fill="white"/>
<path d="M185.09 150.256C185.09 152.123 185.168 154.006 185.324 155.898C185.481 157.793 185.896 159.506 186.573 161.035C187.249 162.567 188.237 163.824 189.537 164.809C190.837 165.796 192.658 166.289 194.999 166.289C197.078 166.289 198.834 165.899 200.265 165.12C201.695 164.343 202.865 163.448 203.776 162.436C204.685 161.424 205.362 160.425 205.804 159.44C206.246 158.456 206.493 157.728 206.545 157.261L207.638 157.649C207.377 158.637 206.936 159.687 206.311 160.802C205.687 161.918 204.83 162.955 203.737 163.915C202.645 164.874 201.292 165.679 199.68 166.328C198.067 166.976 196.117 167.3 193.828 167.3C191.123 167.3 188.601 166.897 186.26 166.094C183.919 165.291 181.877 164.122 180.135 162.591C178.393 161.063 177.028 159.194 176.04 156.988C175.052 154.782 174.558 152.279 174.558 149.479C174.558 147.247 175.025 145.068 175.962 142.94C176.897 140.813 178.185 138.933 179.824 137.299C181.462 135.664 183.386 134.342 185.597 133.329C187.808 132.317 190.187 131.812 192.737 131.812C194.557 131.812 196.377 132.098 198.198 132.668C200.019 133.239 201.657 134.121 203.114 135.314C204.569 136.509 205.767 138.052 206.702 139.945C207.639 141.84 208.107 144.109 208.107 146.755H185.09V150.256ZM197.574 140.451C197.574 139.881 197.547 139.18 197.495 138.35C197.444 137.52 197.262 136.69 196.949 135.859C196.638 135.029 196.13 134.329 195.429 133.758C194.726 133.188 193.751 132.902 192.503 132.902C190.734 132.902 189.368 133.318 188.407 134.147C187.444 134.977 186.729 136.028 186.261 137.299C185.793 138.571 185.493 139.945 185.364 141.424C185.232 142.902 185.142 144.317 185.091 145.665H197.574V140.451Z" fill="white"/>
<path d="M229.166 132.901V139.439H229.322C230.259 137.468 231.519 135.769 233.106 134.341C234.693 132.914 236.786 132.201 239.387 132.201C241.572 132.201 243.34 132.785 244.693 133.952C246.044 135.12 246.72 136.742 246.72 138.817C246.72 140.372 246.343 141.593 245.589 142.475C244.835 143.356 243.625 143.798 241.962 143.798C240.764 143.798 239.672 143.552 238.684 143.058C237.696 142.565 237.202 141.645 237.202 140.295C237.202 140.139 237.227 139.867 237.28 139.477C237.331 139.089 237.397 138.674 237.474 138.232C237.552 137.792 237.617 137.39 237.67 137.026C237.721 136.663 237.748 136.456 237.748 136.404C237.696 135.989 237.617 135.664 237.515 135.431C237.41 135.197 237.241 134.991 237.008 134.809C236.774 134.627 236.424 134.537 235.955 134.537C235.434 134.537 234.786 134.783 234.004 135.276C233.223 135.77 232.495 136.483 231.819 137.416C231.142 138.35 230.557 139.479 230.063 140.801C229.568 142.124 229.323 143.616 229.323 145.277V165.2H235.487V166.289H214.733V165.2H219.805V133.991H214.733V132.901H229.166Z" fill="white"/>
<path d="M260.955 123.64C261.76 123.848 262.553 123.952 263.334 123.952C264.114 123.952 264.905 123.848 265.714 123.64C266.52 123.433 267.312 123.173 268.093 122.861V132.9H277.221V133.99H268.093V160.062C268.093 160.84 268.143 161.568 268.249 162.24C268.352 162.916 268.548 163.526 268.835 164.071C269.119 164.615 269.536 165.043 270.082 165.353C270.628 165.665 271.343 165.821 272.228 165.821C273.213 165.821 274.061 165.614 274.764 165.198C275.466 164.782 276.077 164.252 276.598 163.602C277.116 162.954 277.546 162.215 277.884 161.385C278.221 160.556 278.495 159.751 278.704 158.972L279.873 159.206C279.562 160.971 279.029 162.384 278.275 163.448C277.519 164.511 276.662 165.327 275.7 165.899C274.737 166.469 273.709 166.845 272.618 167.027C271.526 167.209 270.484 167.3 269.497 167.3C266.792 167.3 264.699 166.988 263.216 166.365C261.734 165.744 260.642 164.964 259.94 164.031C259.238 163.096 258.834 162.085 258.731 160.995C258.626 159.906 258.574 158.895 258.574 157.96V133.991H253.348V132.901H258.574V122.861C259.354 123.173 260.147 123.433 260.955 123.64Z" fill="white"/>
<path d="M37.2532 131.296H48.1312V114.047H60.0589C62.5095 114.047 64.5851 114.509 66.2859 115.432C67.9852 116.356 69.3731 117.441 70.4493 118.687C71.5237 119.935 72.3627 121.219 72.9623 122.54C73.5626 123.863 73.9863 124.948 74.2379 125.796H75.2131V113H31.3936V114.047H37.2536V131.295L37.2532 131.296Z" fill="white"/>
<path d="M77.3143 149.892C76.8139 152.038 76.0887 154.046 75.1388 155.917C74.1882 157.787 73.0007 159.423 71.5754 160.819C70.15 162.216 68.5109 163.301 66.6618 164.073C64.8101 164.848 62.7344 165.234 60.4348 165.234H48.1311V147.74H37.2531V165.234H31.4014V166.282H78.2892V149.893H77.3143V149.892Z" fill="white"/>
</g>
<defs>
<clipPath id="clip0_4310_7282">
<rect width="259" height="75" fill="white" transform="translate(21 113)"/>
</clipPath>
</defs>
</svg>
