<svg xmlns="http://www.w3.org/2000/svg" xmlns:xlink="http://www.w3.org/1999/xlink">
    <symbol viewBox="0 0 24 24" id="arrow_down_right" xmlns="http://www.w3.org/2000/svg"><g clip-path="url(#clip0_4901_976)"><path fill-rule="evenodd" clip-rule="evenodd" d="M24 0L24 24L-1.04907e-06 24L-9.8862e-07 22.617L21.6391 22.617L-4.27467e-08 0.977929L0.97793 -1.00633e-06L22.617 21.6391L22.617 -6.04529e-08L24 0Z"/></g><defs><clipPath id="clip0_4901_976"><rect width="24" height="24"/></clipPath></defs>
    </symbol>
    <symbol viewBox="0 0 24 24" id="arrow_down" xmlns="http://www.w3.org/2000/svg">
        <path fill-rule="evenodd" clip-rule="evenodd" d="M24 11.7504L12 24L-8.36457e-07 11.7504L0.691501 11.0445L11.511 22.0891L11.511 -1.09182e-06L12.489 -1.00633e-06L12.489 22.0891L23.3085 11.0446L24 11.7504Z" />
    </symbol>
     <symbol viewBox="0 0 16 15" id="star" xmlns="http://www.w3.org/2000/svg">
        <path d="M8 0L9.79611 5.52786H15.6085L10.9062 8.94427L12.7023 14.4721L8 11.0557L3.29772 14.4721L5.09383 8.94427L0.391548 5.52786H6.20389L8 0Z"/>
    </symbol>
    <symbol viewBox="0 0 24 24" id="arrow_right" xmlns="http://www.w3.org/2000/svg">
        <path fill-rule="evenodd" clip-rule="evenodd" d="M11.7504 -5.35446e-07L24 12L11.7504 24L11.0446 23.3085L22.0891 12.489L-5.4591e-07 12.489L-5.03163e-07 11.511L22.0891 11.511L11.0446 0.6915L11.7504 -5.35446e-07Z"/>
    </symbol>
     <symbol viewBox="0 0 24 24" id="arrow_left" xmlns="http://www.w3.org/2000/svg">
        <path fill-rule="evenodd" clip-rule="evenodd" d="M12.2496 -5.35446e-07L5.24537e-07 12L12.2496 24L12.9554 23.3085L1.9109 12.489L24 12.489L24 11.511L1.9109 11.511L12.9554 0.6915L12.2496 -5.35446e-07Z"/>
    </symbol>
    <symbol viewBox="0 0 19 19" id="close" xmlns="http://www.w3.org/2000/svg">
        <path d="M18.5996 18.5999L0.497674 0.497918" stroke-width="0.8"/>
        <path d="M0.498047 18.5999L18.6 0.497918" stroke-width="0.8"/>
    </symbol>
    <symbol viewBox="0 0 24 24" id="site" xmlns="http://www.w3.org/2000/svg">
        <g clip-path="url(#clip0_4930_4572)">
        <mask id="mask0_4930_4572" style="mask-type:luminance" maskUnits="userSpaceOnUse" x="0" y="0" width="24" height="24">
        <path d="M0 0H24V24H0V0Z" fill="white"/>
        </mask>
        <g mask="url(#mask0_4930_4572)">
        <path fill-rule="evenodd" clip-rule="evenodd" d="M16.6836 9.6C16.7556 10.3548 16.8 11.1504 16.8 12C16.8 12.3183 16.6736 12.6235 16.4485 12.8485C16.2235 13.0736 15.9183 13.2 15.6 13.2C15.2817 13.2 14.9765 13.0736 14.7515 12.8485C14.5264 12.6235 14.4 12.3183 14.4 12C14.4 11.1444 14.3532 10.3464 14.274 9.6H9.7104C9.5436 11.196 9.5424 12.804 9.7056 14.4H12C12.3183 14.4 12.6235 14.5264 12.8485 14.7515C13.0736 14.9765 13.2 15.2817 13.2 15.6C13.2 15.9183 13.0736 16.2235 12.8485 16.4485C12.6235 16.6736 12.3183 16.8 12 16.8H10.0992C10.662 19.296 11.5416 20.892 12.0012 21.6C12.0012 21.6 12.948 21.6156 13.1124 21.6024C13.4293 21.5818 13.7415 21.6867 13.9818 21.8944C14.222 22.1021 14.3709 22.3959 14.3964 22.7124C14.4195 23.0297 14.3157 23.3432 14.1078 23.5839C13.8999 23.8247 13.6049 23.9731 13.2876 23.9964C13.1748 24.0048 12 24 12 24C5.3832 24 0 18.6168 0 12C0 5.382 5.3832 0 12 0C18.6168 0 24 5.382 24 12C24 12.4548 23.9568 12.8988 23.9052 13.3392C23.8575 13.6464 23.6927 13.9231 23.4452 14.1112C23.1978 14.2994 22.887 14.3842 22.5783 14.348C22.2696 14.3118 21.9869 14.1574 21.7897 13.9171C21.5925 13.6768 21.4961 13.3695 21.5208 13.0596C21.5628 12.7104 21.6 12.36 21.6 12C21.6 11.1696 21.4824 10.368 21.2844 9.6H16.6836ZM11.9856 2.4432C11.5224 3.1704 10.6656 4.7604 10.1088 7.2H13.8732C13.314 4.7604 12.4512 3.1704 11.9856 2.4432ZM2.7156 14.4H7.2984C7.22348 13.6038 7.18544 12.8045 7.1844 12.0048C7.1844 11.2008 7.224 10.3992 7.2996 9.6H2.7156C2.50887 10.3833 2.40281 11.1898 2.4 12C2.403 12.8101 2.50905 13.6166 2.7156 14.4ZM3.6984 16.8C4.88339 18.8445 6.77824 20.3823 9.0228 21.1212C8.39752 19.7391 7.93521 18.289 7.6452 16.8H3.6984ZM7.6476 7.2C7.93759 5.70996 8.40073 4.25891 9.0276 2.8764C6.78081 3.61478 4.88403 5.15365 3.6984 7.2H7.6476ZM16.3344 7.2H20.3004C19.1099 5.14401 17.2017 3.60038 14.9424 2.8656C15.5753 4.25061 16.0425 5.70547 16.3344 7.2Z"/>
        <path d="M18.268 22.7339L15.208 16.0019C15.1575 15.8907 15.1421 15.7668 15.1639 15.6467C15.1858 15.5265 15.2437 15.4159 15.33 15.3295C15.4164 15.2432 15.527 15.1853 15.6471 15.1635C15.7673 15.1416 15.8912 15.157 16.0024 15.2075L22.7344 18.2675C22.8378 18.3143 22.9258 18.3894 22.9882 18.4842C23.0506 18.5789 23.0848 18.6894 23.087 18.8029C23.0891 18.9163 23.059 19.028 23.0002 19.1251C22.9414 19.2221 22.8563 19.3005 22.7548 19.3511L20.6644 20.3951C20.5485 20.4534 20.4546 20.5477 20.3968 20.6639L19.3516 22.7543C19.301 22.8558 19.2226 22.9409 19.1255 22.9997C19.0285 23.0585 18.9168 23.0886 18.8033 23.0865C18.6899 23.0843 18.5794 23.0501 18.4846 22.9877C18.3899 22.9253 18.3148 22.8373 18.268 22.7339Z"/>
        </g>
        </g>
        <defs>
        <clipPath id="clip0_4930_4572">
        <rect width="24" height="24" fill="white"/>
        </clipPath>
        </defs>
    </symbol>
    <symbol viewBox="0 0 24 24" id="instagram" xmlns="http://www.w3.org/2000/svg">
        <g clip-path="url(#clip0_4930_875)">
        <path d="M23.9764 7.05607C23.9201 5.78082 23.7139 4.90418 23.4185 4.14447C23.1137 3.33811 22.6449 2.61618 22.0307 2.01602C21.4305 1.40652 20.7038 0.932901 19.9068 0.632936C19.1427 0.337566 18.2706 0.131276 16.9954 0.0751084C15.7106 0.0140652 15.3028 0 12.0443 0C8.78589 0 8.37804 0.0140652 7.09806 0.0703262C5.82286 0.126587 4.94617 0.332971 4.18669 0.628154C3.3801 0.932901 2.65818 1.40174 2.05801 2.01602C1.44852 2.61614 0.975128 3.34284 0.674928 4.13987C0.379558 4.90418 0.173315 5.77613 0.117101 7.05128C0.0561043 8.33605 0.0419922 8.7439 0.0419922 12.0023C0.0419922 15.2608 0.0561043 15.6687 0.112318 16.9486C0.168579 18.2239 0.374963 19.1005 0.670381 19.8602C0.975128 20.6666 1.44852 21.3885 2.05801 21.9887C2.65818 22.5982 3.38488 23.0718 4.18191 23.3718C4.94612 23.6671 5.81807 23.8734 7.09351 23.9296C8.37326 23.986 8.78134 23.9999 12.0398 23.9999C15.2982 23.9999 15.7061 23.986 16.9861 23.9296C18.2613 23.8734 19.138 23.6672 19.8974 23.3718C20.6951 23.0633 21.4195 22.5917 22.0243 21.987C22.629 21.3823 23.1007 20.6579 23.4092 19.8602C23.7044 19.096 23.9108 18.2238 23.967 16.9486C24.0233 15.6687 24.0374 15.2608 24.0374 12.0023C24.0374 8.7439 24.0326 8.336 23.9764 7.05607ZM21.8151 16.8549C21.7635 18.027 21.5666 18.6599 21.4025 19.0819C20.9992 20.1274 20.1694 20.9572 19.1238 21.3605C18.7019 21.5246 18.0644 21.7215 16.8968 21.7729C15.631 21.8294 15.2514 21.8432 12.0491 21.8432C8.84688 21.8432 8.46248 21.8294 7.20116 21.7729C6.02905 21.7215 5.39612 21.5246 4.97416 21.3605C4.45389 21.1682 3.98031 20.8634 3.59586 20.4649C3.19734 20.0758 2.8926 19.607 2.70028 19.0866C2.53618 18.6647 2.33932 18.027 2.28788 16.8596C2.23144 15.5938 2.21756 15.2139 2.21756 12.0117C2.21756 8.80944 2.23144 8.42504 2.28788 7.16395C2.33932 5.99184 2.53618 5.35891 2.70028 4.93695C2.8926 4.41644 3.19734 3.94296 3.60064 3.55841C3.98959 3.1599 4.45843 2.85515 4.97894 2.66307C5.4009 2.49897 6.03862 2.30206 7.20594 2.25044C8.47181 2.19418 8.85167 2.18011 12.0537 2.18011C15.2607 2.18011 15.6403 2.19418 16.9016 2.25044C18.0737 2.30211 18.7067 2.49893 19.1286 2.66302C19.6489 2.85515 20.1225 3.1599 20.5069 3.55841C20.9054 3.9476 21.2102 4.41644 21.4025 4.93695C21.5666 5.35891 21.7635 5.99639 21.8151 7.16395C21.8714 8.42982 21.8854 8.80944 21.8854 12.0117C21.8854 15.2139 21.8714 15.589 21.8151 16.8549Z" />
        <path d="M12.0442 5.8371C8.64048 5.8371 5.87891 8.59848 5.87891 12.0024C5.87891 15.4063 8.64048 18.1676 12.0442 18.1676C15.448 18.1676 18.2094 15.4063 18.2094 12.0024C18.2094 8.59848 15.448 5.8371 12.0442 5.8371ZM12.0442 16.0016C9.83602 16.0016 8.04486 14.2107 8.04486 12.0024C8.04486 9.79403 9.83602 8.00315 12.0441 8.00315C14.2525 8.00315 16.0434 9.79403 16.0434 12.0024C16.0434 14.2107 14.2524 16.0016 12.0442 16.0016ZM19.8927 5.5933C19.8927 6.38818 19.2482 7.03265 18.4531 7.03265C17.6583 7.03265 17.0138 6.38818 17.0138 5.5933C17.0138 4.79834 17.6583 4.15405 18.4532 4.15405C19.2482 4.15405 19.8927 4.79829 19.8927 5.5933Z"/>
        </g>
        <defs>
        <clipPath id="clip0_4930_875">
        <rect width="24" height="24" fill="white"/>
        </clipPath>
        </defs>
    </symbol>


</svg>