<svg width="100" height="32" viewBox="0 0 100 32" fill="none" xmlns="http://www.w3.org/2000/svg">
<path d="M74.9536 31.219C74.3662 31.219 73.9775 30.746 73.9775 30.0143V30.012C73.9775 29.2803 74.3706 28.8095 74.947 28.8095C75.2716 28.8095 75.5388 28.9746 75.6823 29.2423H75.6911V27.9551H76.0754V31.1744H75.6911V30.7817H75.6823C75.5388 31.0517 75.2826 31.219 74.9536 31.219ZM75.0287 30.8754C75.4173 30.8754 75.6933 30.5341 75.6933 30.0143V30.012C75.6933 29.4944 75.4151 29.1531 75.0287 29.1531C74.6223 29.1531 74.3706 29.4833 74.3706 30.012V30.0143C74.3706 30.5475 74.6223 30.8754 75.0287 30.8754Z" fill="white"/>
<path d="M76.8107 28.4615C76.6782 28.4615 76.57 28.3522 76.57 28.2183C76.57 28.0822 76.6782 27.9752 76.8107 27.9752C76.9454 27.9752 77.0514 28.0822 77.0514 28.2183C77.0514 28.3522 76.9454 28.4615 76.8107 28.4615ZM76.6186 31.1744V28.8542H77.0028V31.1744H76.6186Z" fill="white"/>
<path d="M78.4978 31.9998C77.9303 31.9998 77.5726 31.7299 77.4975 31.3863L77.4931 31.3662H77.8795L77.8883 31.3863C77.9612 31.5536 78.1798 31.6563 78.4934 31.6563C78.8975 31.6563 79.1272 31.4309 79.1272 31.0717V30.775H79.1183C78.9814 31.0316 78.7164 31.1967 78.3874 31.1967C77.8088 31.1967 77.4136 30.7259 77.4136 30.0009V29.9986C77.4136 29.278 77.8133 28.8095 78.3962 28.8095C78.7209 28.8095 78.977 28.988 79.1183 29.2468H79.1272V28.8542H79.5114V31.1097C79.5114 31.6473 79.1205 31.9998 78.4978 31.9998ZM78.4713 30.8531C78.8622 30.8531 79.1272 30.5162 79.1272 30.0009V29.9986C79.1272 29.4878 78.86 29.1531 78.4713 29.1531C78.0628 29.1531 77.8066 29.4833 77.8066 29.9986V30.0009C77.8066 30.5274 78.0628 30.8531 78.4713 30.8531Z" fill="white"/>
<path d="M80.2247 28.4615C80.0922 28.4615 79.984 28.3522 79.984 28.2183C79.984 28.0822 80.0922 27.9752 80.2247 27.9752C80.3594 27.9752 80.4654 28.0822 80.4654 28.2183C80.4654 28.3522 80.3594 28.4615 80.2247 28.4615ZM80.0326 31.1744V28.8542H80.4168V31.1744H80.0326Z" fill="white"/>
<path d="M81.6865 31.219C81.2648 31.219 81.0572 31.0271 81.0572 30.5832V29.1754H80.7215V28.8542H81.0572V28.2273H81.4547V28.8542H81.8919V29.1754H81.4547V30.5809C81.4547 30.8286 81.5629 30.8977 81.7682 30.8977C81.8146 30.8977 81.8588 30.891 81.8919 30.8888V31.2034C81.8433 31.2101 81.7616 31.219 81.6865 31.219Z" fill="white"/>
<path d="M82.932 31.219C82.4749 31.219 82.1679 30.9401 82.1679 30.5185V30.514C82.1679 30.1191 82.4727 29.8715 83.0004 29.8402L83.6585 29.8023V29.6082C83.6585 29.3249 83.4752 29.1531 83.155 29.1531C82.8591 29.1531 82.6736 29.2959 82.6294 29.5034L82.625 29.5234H82.254L82.2563 29.4989C82.2894 29.1174 82.6184 28.8095 83.1594 28.8095C83.7027 28.8095 84.0427 29.1063 84.0427 29.5703V31.1744H83.6585V30.7973H83.6497C83.515 31.0517 83.2389 31.219 82.932 31.219ZM82.561 30.5185C82.561 30.7416 82.7421 30.8821 83.0181 30.8821C83.3803 30.8821 83.6585 30.63 83.6585 30.2931V30.1035L83.0446 30.1414C82.7377 30.1593 82.561 30.2976 82.561 30.514V30.5185Z" fill="white"/>
<path d="M84.5506 31.1744V27.9551H84.9349V31.1744H84.5506Z" fill="white"/>
<path d="M87.0526 31.219C86.5955 31.219 86.2885 30.9401 86.2885 30.5185V30.514C86.2885 30.1191 86.5933 29.8715 87.121 29.8402L87.7791 29.8023V29.6082C87.7791 29.3249 87.5958 29.1531 87.2756 29.1531C86.9797 29.1531 86.7942 29.2959 86.75 29.5034L86.7456 29.5234H86.3746L86.3768 29.4989C86.41 29.1174 86.739 28.8095 87.28 28.8095C87.8232 28.8095 88.1633 29.1063 88.1633 29.5703V31.1744H87.7791V30.7973H87.7702C87.6355 31.0517 87.3595 31.219 87.0526 31.219ZM86.6816 30.5185C86.6816 30.7416 86.8627 30.8821 87.1387 30.8821C87.5008 30.8821 87.7791 30.63 87.7791 30.2931V30.1035L87.1652 30.1414C86.8582 30.1593 86.6816 30.2976 86.6816 30.514V30.5185Z" fill="white"/>
<path d="M89.623 31.9998C89.0554 31.9998 88.6977 31.7299 88.6226 31.3863L88.6182 31.3662H89.0047L89.0135 31.3863C89.0864 31.5536 89.305 31.6563 89.6186 31.6563C90.0227 31.6563 90.2523 31.4309 90.2523 31.0717V30.775H90.2435C90.1066 31.0316 89.8416 31.1967 89.5126 31.1967C88.934 31.1967 88.5387 30.7259 88.5387 30.0009V29.9986C88.5387 29.278 88.9384 28.8095 89.5214 28.8095C89.846 28.8095 90.1022 28.988 90.2435 29.2468H90.2523V28.8542H90.6366V31.1097C90.6366 31.6473 90.2457 31.9998 89.623 31.9998ZM89.5965 30.8531C89.9873 30.8531 90.2523 30.5162 90.2523 30.0009V29.9986C90.2523 29.4878 89.9851 29.1531 89.5965 29.1531C89.1879 29.1531 88.9318 29.4833 88.9318 29.9986V30.0009C88.9318 30.5274 89.1879 30.8531 89.5965 30.8531Z" fill="white"/>
<path d="M92.0785 31.219C91.4183 31.219 91.0208 30.7527 91.0208 30.0232V30.021C91.0208 29.3026 91.4271 28.8095 92.0542 28.8095C92.6814 28.8095 93.0634 29.2803 93.0634 29.9763V30.1191H91.4094C91.4183 30.5965 91.6788 30.8754 92.0874 30.8754C92.3789 30.8754 92.5842 30.7282 92.6505 30.5296L92.6571 30.5095H93.0347L93.0303 30.5318C92.9552 30.9156 92.5798 31.219 92.0785 31.219ZM92.052 29.1531C91.7186 29.1531 91.458 29.3829 91.4161 29.8157H92.6726C92.635 29.3651 92.3877 29.1531 92.052 29.1531Z" fill="white"/>
<path d="M93.4521 31.1744V28.8542H93.8363V29.1843H93.8451C93.9688 28.9679 94.2029 28.8095 94.5518 28.8095C95.0553 28.8095 95.3467 29.1397 95.3467 29.6685V31.1744H94.9625V29.7376C94.9625 29.3606 94.7881 29.1531 94.4347 29.1531C94.0726 29.1531 93.8363 29.4141 93.8363 29.809V31.1744H93.4521Z" fill="white"/>
<path d="M96.7887 31.219C96.1373 31.219 95.7244 30.7505 95.7244 30.012V30.0098C95.7244 29.278 96.1461 28.8095 96.7843 28.8095C97.3562 28.8095 97.6941 29.1933 97.7427 29.5904L97.7449 29.6082H97.3695L97.3651 29.5904C97.3077 29.3584 97.1222 29.1531 96.7843 29.1531C96.3846 29.1531 96.1174 29.4878 96.1174 30.0143V30.0165C96.1174 30.5564 96.3912 30.8754 96.7887 30.8754C97.1023 30.8754 97.3032 30.6969 97.3673 30.4381L97.3717 30.4203H97.7493L97.7471 30.4359C97.6853 30.8776 97.3077 31.219 96.7887 31.219Z" fill="white"/>
<path d="M98.3235 31.9552C98.2484 31.9552 98.1667 31.9463 98.1181 31.9374V31.6206C98.1512 31.6273 98.1954 31.6339 98.2418 31.6339C98.4847 31.6339 98.6194 31.5715 98.7121 31.3082L98.7585 31.1766L97.9061 28.8542H98.3168L98.9506 30.7862H98.9594L99.5954 28.8542H99.9995L99.103 31.3194C98.9396 31.7633 98.7386 31.9552 98.3235 31.9552Z" fill="white"/>
<path d="M36.7227 26.0703H40.4701V17.6007C40.4701 16.0298 41.4326 14.9303 42.8571 14.9303C44.2432 14.9303 45.0773 15.8204 45.0773 17.3258V26.0703H48.6836V17.5484C48.6836 15.9906 49.6204 14.9303 51.0449 14.9303C52.4952 14.9303 53.2908 15.8204 53.2908 17.4436V26.0703H57.0382V16.488C57.0382 13.6605 55.2287 11.7755 52.5337 11.7755C50.5188 11.7755 48.8761 12.8881 48.2601 14.6554H48.1831C47.7211 12.8227 46.335 11.7755 44.3458 11.7755C42.4721 11.7755 40.9963 12.8881 40.4187 14.5768H40.3417V12.0373H36.7227V26.0703ZM64.7256 23.5307C63.4551 23.5307 62.608 22.8762 62.608 21.829C62.608 20.8341 63.4037 20.1927 64.8026 20.0879L67.703 19.9047V20.9257C67.703 22.4442 66.3554 23.5307 64.7256 23.5307ZM63.4936 26.2928C65.2132 26.2928 66.9201 25.4158 67.6902 23.9235H67.7672V26.0703H71.3862V16.4226C71.3862 13.595 69.089 11.7362 65.5598 11.7362C61.915 11.7362 59.6435 13.6081 59.5023 16.331H62.9289C63.1085 15.2968 63.9941 14.5899 65.393 14.5899C66.8046 14.5899 67.703 15.3492 67.703 16.6582V17.5877L64.2379 17.7971C60.8113 18.0066 58.8863 19.4858 58.8863 22.0384C58.8863 24.5649 60.8755 26.2928 63.4936 26.2928ZM77.7004 17.6662H77.649V7.18066H73.9016V26.0703H77.649V21.4362L78.6244 20.3629L82.5643 26.0703H86.8764L81.3708 18.0589L86.6197 12.0373H82.3718L77.7004 17.6662ZM93.4857 14.5637C95.154 14.5637 96.2963 15.7943 96.3733 17.5877H90.534C90.6623 15.8335 91.843 14.5637 93.4857 14.5637ZM96.4246 21.7766C96.0781 22.85 95.0257 23.5439 93.6525 23.5439C91.7403 23.5439 90.4955 22.1693 90.4955 20.1665V19.9308H99.9795V18.7658C99.9795 14.4983 97.4513 11.7362 93.4472 11.7362C89.379 11.7362 86.8122 14.6423 86.8122 19.1192C86.8122 23.6093 89.3533 26.3714 93.5884 26.3714C96.9893 26.3714 99.4533 24.5256 99.864 21.7766H96.4246Z" fill="#FFCF00"/>
<path d="M20.2439 11.8572H16.5539L14.4654 22.3299H14.3885L11.9413 11.8572H8.35383L5.91942 22.3299H5.84254L3.7669 11.8572H0L3.65159 25.979H7.58506L10.0579 15.9936H10.1348L12.6204 25.979H16.6051L20.2439 11.8572ZM27.6624 14.3996C29.328 14.3996 30.4683 15.6379 30.5452 17.4427H24.7155C24.8436 15.6774 26.0224 14.3996 27.6624 14.3996ZM30.5965 21.6582C30.2505 22.7383 29.1999 23.4366 27.829 23.4366C25.9199 23.4366 24.6771 22.0533 24.6771 20.0378V19.8007H34.1456V18.6283C34.1456 14.3338 31.6215 11.5542 27.624 11.5542C23.5624 11.5542 20.9998 14.4787 20.9998 18.9839C20.9998 23.5024 23.5367 26.282 27.7649 26.282C31.1602 26.282 33.6202 24.4245 34.0303 21.6582H30.5965Z" fill="white"/>
<path fill-rule="evenodd" clip-rule="evenodd" d="M90.3308 0C89.4567 0 88.748 0.708624 88.748 1.58276V7.25863C88.748 8.13276 89.4567 8.84139 90.3308 8.84139H97.5307C98.4048 8.84139 99.1134 8.13276 99.1134 7.25863V1.58276C99.1134 0.708625 98.4048 0 97.5307 0H90.3308ZM92.4402 5.75548V2.53619H93.085V4.32097H93.0982L93.8976 3.36388H94.6285L93.7342 4.39236L94.6727 5.75548H93.9285L93.2506 4.77832L93.085 4.96349V5.75548H92.4402ZM91.6629 5.79341C91.4619 5.79341 91.3051 5.63278 91.3051 5.43199C91.3051 5.22897 91.4619 5.07058 91.6629 5.07058C91.8616 5.07058 92.0206 5.22897 92.0206 5.43199C92.0206 5.63278 91.8616 5.79341 91.6629 5.79341ZM94.8074 5.38514V5.75548H96.7617V5.26467H95.6156V5.25128L96.7352 3.77661V3.36388H94.8251V3.8547H95.9976V3.86585L94.8074 5.38514Z" fill="#FFCF00"/>
</svg>
