<svg width="512" height="512" viewBox="0 0 512 512" fill="none" xmlns="http://www.w3.org/2000/svg">
<path d="M0 64C0 28.6538 28.6538 0 64 0H448C483.346 0 512 28.6538 512 64V448C512 483.346 483.346 512 448 512H64C28.6538 512 0 483.346 0 448V64Z" fill="white"/>
<path d="M337.024 216.742C331.852 235.834 323.233 247.984 309.442 258.398C295.65 267.077 280.135 272.284 259.448 272.284C233.59 272.284 212.903 263.605 197.388 244.513C181.873 225.42 173.253 204.592 173.253 178.556C173.253 149.049 181.873 126.485 197.388 109.128C212.903 91.7711 233.59 83.0925 259.448 83.0925C297.374 83.0925 323.233 100.45 335.3 133.428H421.496C418.048 105.657 407.704 83.0927 392.189 64H123.26C114.64 74.4142 106.021 88.2998 100.849 102.185C90.5056 124.749 85.334 150.785 85.334 180.292C85.334 208.063 90.5056 234.099 100.849 256.663C111.192 279.227 124.984 298.32 140.499 312.205C157.738 326.091 176.701 338.241 197.388 345.183C218.075 352.126 240.485 357.333 262.896 357.333C288.755 357.333 312.89 352.126 335.3 343.448C357.711 334.769 376.674 319.148 393.913 298.32C411.152 277.491 421.496 249.72 426.667 218.477H337.024V216.742Z" fill="black"/>
<path d="M332.597 412.043C310.247 403.441 286.176 400 262.106 400C239.755 400 217.404 403.441 196.773 410.322C176.141 417.204 157.229 429.247 140.036 443.011C136.598 446.452 131.44 449.892 128.001 453.333H389.334C373.861 432.688 354.948 418.925 332.597 412.043Z" fill="black"/>
</svg>
