<?xml version="1.0" standalone="no"?>
<!DOCTYPE svg PUBLIC "-//W3C//DTD SVG 20010904//EN"
 "http://www.w3.org/TR/2001/REC-SVG-20010904/DTD/svg10.dtd">
<svg version="1.0" xmlns="http://www.w3.org/2000/svg"
 width="700.000000pt" height="700.000000pt" viewBox="0 0 700.000000 700.000000"
 preserveAspectRatio="xMidYMid meet">
<metadata>
Created by potrace 1.14, written by Peter Selinger 2001-2017
</metadata>
<g transform="translate(0.000000,700.000000) scale(0.100000,-0.100000)"
fill="#000000" stroke="none">
<path d="M1632 6063 c-145 -197 -267 -443 -350 -703 -148 -465 -158 -1055 -27
-1534 124 -454 415 -908 743 -1159 194 -148 414 -278 597 -352 205 -83 575
-173 799 -194 271 -27 549 -2 860 76 317 79 538 181 761 352 83 63 263 239
349 342 233 276 389 641 470 1096 l5 33 -620 2 -620 3 -10 -38 c-5 -21 -25
-73 -43 -115 -151 -358 -475 -563 -930 -588 -347 -19 -648 91 -859 316 -281
297 -413 680 -378 1097 23 274 88 476 215 667 171 257 395 409 696 472 106 23
387 26 500 5 358 -65 608 -258 755 -584 l39 -87 591 2 590 3 -3 35 c-6 67 -54
263 -88 360 -62 179 -137 324 -252 483 l-55 77 -1843 0 -1842 0 -50 -67z"/>
<path d="M3425 1528 c-591 -26 -1074 -218 -1550 -615 l-130 -108 1784 -3 c981
-1 1786 0 1789 3 9 8 -98 133 -191 221 -178 170 -352 269 -647 368 -337 112
-653 152 -1055 134z"/>
</g>
</svg>
